<svg viewBox="0 0 16 16" fill="#000000" xmlns="http://www.w3.org/2000/svg" id="Car-Fill--Streamline-Remix-Fill" height="16" width="16">
  <desc>
    Car Fill Streamline Icon: https://streamlinehq.com
  </desc>
  <path d="M12.666666666666666 13.333333333333332H3.333333333333333v0.6666666666666666c0 0.36819999999999997 -0.29847999999999997 0.6666666666666666 -0.6666666666666666 0.6666666666666666H2c-0.36818666666666666 0 -0.6666666666666666 -0.29846666666666666 -0.6666666666666666 -0.6666666666666666v-6l1.67556 -4.468166666666667C3.2040466666666667 3.011433333333333 3.70154 2.6666666666666665 4.257333333333333 2.6666666666666665h7.485333333333333c0.5558 0 1.0532666666666666 0.34476666666666667 1.2484666666666666 0.8651666666666666L14.666666666666666 8v6c0 0.36819999999999997 -0.29846666666666666 0.6666666666666666 -0.6666666666666666 0.6666666666666666h-0.6666666666666666c-0.36819999999999997 0 -0.6666666666666666 -0.29846666666666666 -0.6666666666666666 -0.6666666666666666v-0.6666666666666666ZM2.7573333333333334 8h10.485333333333333l-1.5 -4H4.257333333333333l-1.5 4ZM4.333333333333333 11.333333333333332c0.5522866666666666 0 1 -0.4477333333333333 1 -1S4.885619999999999 9.333333333333332 4.333333333333333 9.333333333333332 3.333333333333333 9.781066666666666 3.333333333333333 10.333333333333332 3.7810466666666667 11.333333333333332 4.333333333333333 11.333333333333332Zm7.333333333333333 0c0.5522666666666667 0 1 -0.4477333333333333 1 -1s-0.4477333333333333 -1 -1 -1 -1 0.4477333333333333 -1 1 0.4477333333333333 1 1 1Z" stroke-width="0.6667"></path>
</svg>