<?xml version="1.0" encoding="UTF-8"?>
<svg version="1.1" xmlns="http://www.w3.org/2000/svg" width="300" height="300">
<path d="M0 0 C14.07417972 8.76872977 23.05390589 21.29960785 26.875 37.5 C29.22855368 51.66658272 27.3744659 65.02688732 19.671875 77.22265625 C18.36679276 79.43026971 18.36679276 79.43026971 18.81494141 81.51022339 C19.67075028 83.85968008 20.63594019 84.99325744 22.4140625 86.73876953 C23.3100415 87.62956711 23.3100415 87.62956711 24.22412109 88.5383606 C25.19599365 89.48230179 25.19599365 89.48230179 26.1875 90.4453125 C26.84959473 91.10079071 27.51168945 91.75626892 28.19384766 92.43161011 C30.30976021 94.52411572 32.43556852 96.60620052 34.5625 98.6875 C36.68767212 100.77763654 38.81070457 102.86988404 40.93115234 104.96481323 C42.25125462 106.26790822 43.57442065 107.56790798 44.90087891 108.86453247 C45.49819824 109.4520932 46.09551758 110.03965393 46.7109375 110.64501953 C47.23864746 111.16146027 47.76635742 111.677901 48.31005859 112.20999146 C50.89607258 115.0026219 50.96635176 117.79103852 50.8984375 121.51953125 C50.5625 123.5625 50.5625 123.5625 48.5625 126.5625 C45.47624563 128.62000291 43.37245121 129.43308379 39.63452148 129.15527344 C33.19218592 127.31222045 28.04081868 120.06914241 23.453125 115.375 C22.91456375 114.82410706 22.3760025 114.27321411 21.82112122 113.70562744 C19.57576236 111.40491232 17.33156321 109.10354357 15.10595703 106.78369141 C13.46210499 105.07357409 11.80305037 103.3795405 10.140625 101.6875 C9.63952209 101.15745361 9.13841919 100.62740723 8.62213135 100.08129883 C7.05928429 98.44837244 7.05928429 98.44837244 4.5625 96.5625 C2.37835355 96.5133722 2.37835355 96.5133722 0.5625 97.5625 C-0.38882813 98.00464844 -1.34015625 98.44679688 -2.3203125 98.90234375 C-3.39023438 99.42957031 -4.46015625 99.95679688 -5.5625 100.5 C-19.47030122 106.95829967 -33.82305618 107.27914202 -48.4375 102.5625 C-57.23688744 99.13929691 -63.83888596 94.25571782 -70.4375 87.5625 C-71.01242188 86.99789062 -71.58734375 86.43328125 -72.1796875 85.8515625 C-82.15486197 75.25616993 -85.96278432 60.70117884 -85.78686523 46.49194336 C-85.29869763 32.64618617 -80.02324239 19.5404953 -70.4375 9.3984375 C-50.41778638 -8.97903399 -23.94413896 -13.42278537 0 0 Z M-57.2578125 23.48046875 C-64.65730077 32.79489997 -67.30714917 42.79851848 -66.4375 54.5625 C-64.70416253 63.84336204 -60.44577926 71.25504867 -53.4375 77.5625 C-52.695 78.243125 -51.9525 78.92375 -51.1875 79.625 C-42.24550844 85.9250395 -33.20937306 87.42864155 -22.4375 86.5625 C-12.46507985 84.27524767 -3.5769197 79.19291712 2.28125 70.71484375 C8.21916337 60.73987343 10.24940475 50.89540297 7.9140625 39.359375 C4.78643645 28.93395483 -1.16182602 21.25231185 -10.4375 15.5625 C-26.09284648 7.29725497 -45.19200945 10.76735867 -57.2578125 23.48046875 Z " fill="#0078FF" transform="translate(249.4375,124.4375)"/>
<path d="M0 0 C1.63657916 -0.01275828 1.63657916 -0.01275828 3.30622053 -0.0257743 C6.96916293 -0.04809352 10.63109417 -0.03459153 14.29406738 -0.02119446 C16.91720815 -0.02960486 19.54034287 -0.04012873 22.16346741 -0.0526123 C28.55272499 -0.07870531 34.94170126 -0.07761003 41.33099186 -0.06657412 C46.52345804 -0.05801731 51.71584278 -0.05884518 56.90830994 -0.06637001 C58.01666052 -0.06795234 58.01666052 -0.06795234 59.14740202 -0.06956664 C60.64844472 -0.07173756 62.14948739 -0.07392433 63.65053004 -0.07612679 C77.72721136 -0.09555876 91.8037348 -0.08355654 105.88040322 -0.06134085 C117.95997272 -0.04308824 130.03923661 -0.05399544 142.11877441 -0.08564758 C156.14494071 -0.12239839 170.17091613 -0.13943633 184.19713068 -0.12623531 C185.69266412 -0.1248942 187.18819758 -0.12358522 188.68373108 -0.12230873 C189.41957002 -0.12167807 190.15540896 -0.1210474 190.91354606 -0.12039762 C196.1000505 -0.11736887 201.28641109 -0.12863714 206.47288513 -0.14555931 C213.45306913 -0.16799072 220.43261271 -0.158911 227.4127636 -0.12846565 C229.97785434 -0.12211768 232.54299365 -0.12604817 235.10804939 -0.14087677 C238.60344413 -0.1594494 242.09675196 -0.1412505 245.59204102 -0.11352539 C246.6129494 -0.12759184 247.63385779 -0.14165829 248.6857028 -0.156151 C255.35110129 -0.0492288 255.35110129 -0.0492288 258.0445013 1.92004621 C260.23960258 4.41942081 261.25805997 6.43497329 261.85852051 9.70414734 C261.1662269 13.31945842 259.84011018 15.0227315 257.29602051 17.64164734 C254.94322874 18.81804322 253.54858748 18.77001472 250.9252882 18.77586842 C250.00128977 18.78032626 249.07729134 18.7847841 248.12529296 18.78937703 C246.59249543 18.78910049 246.59249543 18.78910049 245.0287323 18.78881836 C243.9484099 18.79249505 242.86808751 18.79617174 241.75502807 18.79995984 C238.11072852 18.81103202 234.46645744 18.81484648 230.82214355 18.81864929 C228.21915597 18.8249112 225.61616929 18.83155775 223.01318359 18.83856201 C215.18449036 18.85833588 207.35579581 18.86839357 199.52708384 18.8772898 C195.84229731 18.88167099 192.15751222 18.88703822 188.47272682 18.89227867 C176.22705095 18.9092915 163.98137599 18.92378648 151.73569012 18.93102741 C148.55698839 18.93293737 145.37828666 18.93485769 142.19958496 18.93681335 C141.4095146 18.93729709 140.61944424 18.93778083 139.80543236 18.93827923 C127.00193698 18.94658256 114.19853495 18.9719243 101.39508035 19.00439403 C88.25633682 19.03744301 75.11764076 19.05547419 61.97885543 19.05867165 C54.59933137 19.06083871 47.21994343 19.06961583 39.84045982 19.09513283 C32.900686 19.11907368 25.96116122 19.12267911 19.02135468 19.11237144 C16.47076669 19.11187404 13.92016694 19.11825433 11.36961555 19.13192749 C7.89419899 19.14951994 4.41967551 19.14260193 0.94425964 19.12939453 C-0.07091321 19.14036378 -1.08608606 19.15133302 -2.13202173 19.16263467 C-6.51942982 19.12223222 -9.00363872 19.07170917 -12.80699444 16.73616314 C-15.26772863 14.01919568 -15.66013258 13.02896174 -16.07897949 9.32914734 C-15.70397949 5.64164734 -15.70397949 5.64164734 -13.84954071 2.95128155 C-9.29823047 -0.39052651 -5.51543712 -0.05657201 0 0 Z " fill="#0078FF" transform="translate(15.7039794921875,46.35835266113281)"/>
<path d="M0 0 C1.09770721 -0.00571014 2.19541443 -0.01142029 3.3263855 -0.01730347 C4.53112015 -0.01842133 5.7358548 -0.01953918 6.97709656 -0.02069092 C8.24561462 -0.02565582 9.51413269 -0.03062073 10.8210907 -0.03573608 C14.30260932 -0.0488522 17.78410866 -0.05530356 21.26564813 -0.05974674 C23.44149742 -0.06267889 25.61734145 -0.06678398 27.7931881 -0.07125092 C34.60300939 -0.0849241 41.41281866 -0.09459149 48.22265273 -0.09845281 C56.07965881 -0.10293253 63.93649083 -0.12047708 71.79344398 -0.1494534 C77.86913544 -0.17108146 83.94477797 -0.18115769 90.02050751 -0.18249393 C93.64807114 -0.1835412 97.27547111 -0.18943232 100.90299416 -0.20731354 C104.9512396 -0.22688047 108.99912154 -0.2225008 113.04740906 -0.21600342 C114.24607101 -0.2252182 115.44473297 -0.23443298 116.67971802 -0.243927 C126.90805724 -0.19243098 126.90805724 -0.19243098 131.7063446 3.14044189 C134.3270281 6.18381627 134.7063446 7.66120989 134.7063446 11.70294189 C133.49356003 15.87188888 132.2982119 16.80753146 128.7063446 19.14044189 C125.96549225 19.64659977 125.96549225 19.64659977 122.93766785 19.65510559 C121.20908791 19.67419228 121.20908791 19.67419228 119.44558716 19.69366455 C118.19036758 19.68713867 116.93514801 19.68061279 115.64189148 19.67388916 C114.29952039 19.68095055 112.95715727 19.6896965 111.61480713 19.69999695 C107.976323 19.72247519 104.33827416 19.71955535 100.69974709 19.71067548 C97.66038107 19.70556144 94.62109656 19.7128614 91.58173895 19.72014755 C84.41145023 19.73714114 77.24137437 19.73358578 70.0710907 19.71685791 C62.67672705 19.69993026 55.28295346 19.71578066 47.88865423 19.74808079 C41.53604184 19.77477803 35.18361312 19.78205259 28.83095026 19.77356571 C25.03850359 19.76863761 21.24641207 19.77084547 17.45401001 19.79135323 C13.88817979 19.80971337 10.3231985 19.80374917 6.75741386 19.77915382 C4.8273018 19.77176181 2.89714454 19.78899823 0.96710205 19.80697632 C-8.46771847 19.7033758 -8.46771847 19.7033758 -11.56867981 16.72990417 C-13.72778774 13.48874031 -14.02542844 11.85204618 -13.78974915 8.07403564 C-12.93899257 4.75809466 -10.93307786 3.16604518 -8.2936554 1.14044189 C-5.24837891 0.12534973 -3.18714388 0.00992242 0 0 Z " fill="#0078FF" transform="translate(13.293655395507813,233.85955810546875)"/>
<path d="M0 0 C1.35627251 -0.00856522 1.35627251 -0.00856522 2.73994446 -0.01730347 C3.72961212 -0.01842133 4.71927979 -0.01953918 5.73893738 -0.02069092 C6.78312332 -0.02565582 7.82730927 -0.03062073 8.90313721 -0.03573608 C12.36427973 -0.05036456 15.82537642 -0.05716089 19.2865448 -0.06268311 C21.68927004 -0.06843401 24.09199526 -0.07419175 26.49472046 -0.07995605 C31.53608921 -0.09046801 36.57744201 -0.0963094 41.61882019 -0.09979248 C48.07857492 -0.10527744 54.53811888 -0.1293049 60.9978075 -0.15776443 C65.96234758 -0.17638842 70.92683686 -0.1815963 75.89140892 -0.18312836 C78.27284078 -0.18615597 80.65427172 -0.1941881 83.03566933 -0.20731354 C86.36791135 -0.2243685 89.69963817 -0.22249486 93.03190613 -0.21600342 C94.0155011 -0.2252182 94.99909607 -0.23443298 96.01249695 -0.243927 C101.26894129 -0.21185093 105.07969565 0.10156043 109.57951355 3.14044189 C111.69163859 6.30862945 111.91107819 8.27263441 112.1381073 12.00762939 C111.198507 15.59519418 109.51467504 16.8972366 106.57951355 19.14044189 C102.93385891 19.89201678 99.33804758 19.82353067 95.62638855 19.78741455 C94.52178284 19.79617615 93.41717712 19.80493774 92.27909851 19.81396484 C88.62883695 19.83596619 84.97978737 19.82140203 81.32951355 19.80450439 C78.79272733 19.80787228 76.25594268 19.81272466 73.71916199 19.81900024 C68.40290981 19.82637266 63.08709175 19.81613081 57.7709198 19.79229736 C51.6307171 19.76508695 45.49134455 19.77390174 39.35116196 19.80142939 C33.43668984 19.82688056 27.52247497 19.82415228 21.60795593 19.80952072 C19.09452702 19.80618385 16.58107693 19.81028358 14.06767273 19.82191849 C10.55542273 19.83460884 7.04476953 19.81527234 3.53263855 19.78741455 C2.49248596 19.79753571 1.45233337 19.80765686 0.38066101 19.81808472 C-6.67245015 19.71437557 -6.67245015 19.71437557 -10.56355286 16.72891235 C-12.88440847 13.49375832 -13.15663817 11.92223771 -12.9165802 8.07403564 C-12.06582362 4.75809466 -10.05990891 3.16604518 -7.42048645 1.14044189 C-4.61409924 0.20497949 -2.90280685 0.01098765 0 0 Z " fill="#0078FF" transform="translate(12.420486450195313,139.85955810546875)"/>
</svg>
