<?xml version="1.0" encoding="UTF-8"?>
<svg version="1.1" xmlns="http://www.w3.org/2000/svg" width="300" height="300">
<path d="M0 0 C6.05783628 4.59319494 6.05783628 4.59319494 8.40405273 7.8828125 C13.32987657 11.65380727 18.16936052 10.93127113 24.203125 10.83203125 C25.43987976 10.83529419 26.67663452 10.83855713 27.9508667 10.84191895 C31.90505386 10.85176376 35.85847474 10.83118481 39.8125 10.80078125 C45.00566119 10.76204053 50.19736594 10.7558721 55.390625 10.76953125 C56.57529358 10.74991333 57.75996216 10.73029541 58.98052979 10.71008301 C66.45111375 10.73336878 71.44384811 11.93198096 77.5625 16.30078125 C77.5625 16.96078125 77.5625 17.62078125 77.5625 18.30078125 C78.2225 18.30078125 78.8825 18.30078125 79.5625 18.30078125 C83.00369513 22.1549198 83.68469349 25.61129634 83.69672108 30.66214466 C83.70117892 31.53315746 83.70563676 32.40417026 83.71022969 33.30157739 C83.71004533 34.25399731 83.70986097 35.20641723 83.70967102 36.18769836 C83.71334771 37.20298164 83.7170244 38.21826492 83.7208125 39.26431435 C83.73185216 42.67662156 83.73569364 46.08889831 83.73950195 49.5012207 C83.74576628 51.94362485 83.75241305 54.38602803 83.75941467 56.82843018 C83.77864062 64.1638989 83.78924156 71.49935954 83.79814246 78.83484605 C83.8025278 82.29024503 83.80789388 85.74564249 83.81313133 89.20104027 C83.83013971 100.68846601 83.84463448 112.17589082 83.85188007 123.66332722 C83.85378992 126.64298313 83.85571026 129.62263904 83.85766602 132.60229492 C83.85814976 133.34285982 83.8586335 134.08342472 83.8591319 134.84643098 C83.86743458 146.84660179 83.89277722 158.846673 83.92524669 170.8468003 C83.95831767 183.16974797 83.97632877 195.49264501 83.97952431 207.81563729 C83.98168912 214.73353677 83.99043364 221.6512909 84.01598549 228.56914711 C84.03996249 235.07556632 84.04351797 241.58177087 84.03322411 248.08824158 C84.03272754 250.47673601 84.03908323 252.86524314 84.05278015 255.25369835 C84.07043009 258.51375215 84.06342616 261.7728593 84.05024719 265.03291321 C84.06121644 265.97864096 84.07218568 266.92436872 84.08348733 267.89875489 C84.01788172 274.61793635 82.63988149 278.93874197 78 284.0078125 C72.10321069 288.54257167 68.44897961 289.59645357 61.01104736 289.56820679 C60.13939399 289.5727379 59.26774061 289.57726901 58.36967349 289.58193743 C55.4433355 289.59461685 52.51718277 289.59295877 49.59082031 289.59130859 C47.49486043 289.5972917 45.39890276 289.60409674 43.302948 289.61166382 C37.60447059 289.62935491 31.90605322 289.63402056 26.207551 289.63529539 C21.45117963 289.63719339 16.69482228 289.64454994 11.9384563 289.65163958 C0.71547407 289.66793357 -10.50747606 289.67280768 -21.73046875 289.67138672 C-33.30706972 289.67018556 -44.88348417 289.69127996 -56.46003795 289.72287405 C-66.39817455 289.74903005 -76.33625022 289.75975427 -86.27442098 289.7584759 C-92.21034499 289.75796599 -98.14610336 289.76366489 -104.0819931 289.784832 C-109.66673392 289.8042024 -115.2511509 289.80434682 -120.83590317 289.78979874 C-122.88372394 289.78770795 -124.93156491 289.79242757 -126.97935104 289.80451965 C-129.77931798 289.81998003 -132.57816948 289.81065859 -135.37811279 289.79525757 C-136.18474452 289.80554469 -136.99137624 289.81583182 -137.82245135 289.82643068 C-144.64944302 289.74369093 -149.74110649 287.59271574 -154.9375 283.17578125 C-156.4375 281.30078125 -156.4375 281.30078125 -156.4375 279.30078125 C-157.0975 279.30078125 -157.7575 279.30078125 -158.4375 279.30078125 C-160.67853084 273.88883033 -160.72400136 269.04799764 -160.70492554 263.29397583 C-160.70945665 262.28993993 -160.71398776 261.28590402 -160.71865618 260.25144279 C-160.73131041 256.88909859 -160.72967914 253.52691615 -160.72802734 250.16455078 C-160.7340119 247.75302929 -160.74081728 245.34150972 -160.74838257 242.92999268 C-160.76422049 237.06064796 -160.77049122 231.19134114 -160.77160732 225.32197942 C-160.77255863 220.55006457 -160.77667303 215.77816295 -160.78300858 211.00625229 C-160.80061494 197.46918778 -160.80984828 183.93215495 -160.80834763 170.39507891 C-160.80826772 169.66577221 -160.8081878 168.9364655 -160.80810547 168.18505859 C-160.80802371 167.45485885 -160.80794195 166.72465911 -160.80785771 165.97233211 C-160.80704476 154.13785345 -160.82618608 142.30350205 -160.8543822 130.4690602 C-160.88312286 118.30988911 -160.89692188 106.15078008 -160.89519465 93.99157417 C-160.8945312 87.16813713 -160.90000371 80.34483355 -160.92155075 73.52142715 C-160.94168505 67.10443323 -160.94107677 60.68764828 -160.92651749 54.27063751 C-160.92442485 51.91642979 -160.92915723 49.56220454 -160.9412384 47.20802689 C-160.95667168 43.99220408 -160.94739455 40.77735574 -160.93197632 37.56155396 C-160.94226344 36.63177612 -160.95255057 35.70199829 -160.96314943 34.74404538 C-160.89187195 28.00854788 -159.43402518 22.71777302 -154.9277128 17.57914364 C-153.4375 16.30078125 -153.4375 16.30078125 -151.4375 16.30078125 C-151.4375 15.64078125 -151.4375 14.98078125 -151.4375 14.30078125 C-144.92131439 10.73963747 -138.92350694 10.87579468 -131.609375 10.89453125 C-130.38341614 10.88369507 -129.15745728 10.87285889 -127.89434814 10.86169434 C-122.66462953 10.8158788 -117.43496173 10.8042991 -112.20507812 10.78955078 C-108.38132818 10.77391075 -104.55799941 10.74093388 -100.734375 10.70703125 C-98.9531424 10.71156311 -98.9531424 10.71156311 -97.13592529 10.71618652 C-96.03758362 10.70607544 -94.93924194 10.69596436 -93.80761719 10.68554688 C-92.35702911 10.68246521 -92.35702911 10.68246521 -90.87713623 10.67932129 C-88.01697452 10.23553147 -87.29500578 9.4270868 -85.4375 7.30078125 C-84.7775 7.30078125 -84.1175 7.30078125 -83.4375 7.30078125 C-83.4375 6.64078125 -83.4375 5.98078125 -83.4375 5.30078125 C-60.32423489 -14.22255119 -25.20607389 -17.57154189 0 0 Z M-64.4375 20.30078125 C-64.4375 20.96078125 -64.4375 21.62078125 -64.4375 22.30078125 C-65.02402344 22.55214844 -65.61054687 22.80351563 -66.21484375 23.0625 C-74.0911084 27.45050684 -78.28775326 36.26425032 -80.7890625 44.5078125 C-81.61211755 48.05289899 -81.98609096 51.68950894 -82.4375 55.30078125 C-53.3975 55.30078125 -24.3575 55.30078125 5.5625 55.30078125 C5.5625 48.74587324 5.54226966 46.21886104 3.25 40.61328125 C2.60611328 38.99873047 2.60611328 38.99873047 1.94921875 37.3515625 C0.65372474 34.50147567 -0.65556516 31.87574875 -2.4375 29.30078125 C-3.0975 29.30078125 -3.7575 29.30078125 -4.4375 29.30078125 C-4.68242187 28.71296875 -4.92734375 28.12515625 -5.1796875 27.51953125 C-9.43882649 20.00651589 -19.26280449 15.71593227 -27.125 13.05078125 C-40.24109261 10.23287073 -53.26762887 13.02737679 -64.4375 20.30078125 Z " fill="#0078FF" transform="translate(188.4375,10.69921875)"/>
<path d="M0 0 C0.93064774 -0.00394272 1.86129547 -0.00788544 2.82014465 -0.01194763 C5.89098234 -0.018651 8.9603277 0.01048953 12.03100586 0.04077148 C14.16661796 0.04502229 16.30223468 0.04735024 18.43785095 0.0478363 C22.91092911 0.05400019 27.38350622 0.07669448 31.85644531 0.11230469 C37.59217652 0.15760419 43.32745425 0.1723322 49.06334782 0.1760416 C53.4719643 0.18046867 57.88048547 0.19576943 62.28906059 0.21491814 C64.40418145 0.22380143 66.51931248 0.2305309 68.6344471 0.23507881 C71.58850349 0.24411469 74.54214865 0.26649945 77.49609375 0.29296875 C78.37152832 0.29363342 79.24696289 0.2942981 80.14892578 0.29498291 C81.35797325 0.3099456 81.35797325 0.3099456 82.59144592 0.32521057 C83.28920167 0.32986108 83.98695742 0.33451159 84.70585728 0.33930302 C87.08993226 0.65283537 88.64723471 1.3245274 90.68334961 2.59936523 C93.18366615 6.34984005 93.21938515 8.15792789 92.68334961 12.59936523 C90.69257246 15.35536105 89.10200502 17.27129771 85.6884613 18.06068802 C83.20992545 18.25147201 80.77657455 18.27488928 78.29077148 18.24633789 C77.35197647 18.25509949 76.41318146 18.26386108 75.44593811 18.27288818 C72.34751964 18.29486693 69.25053219 18.28033443 66.15209961 18.26342773 C63.99645718 18.26679629 61.8408166 18.27164924 59.68518066 18.27792358 C55.16924949 18.28529287 50.65381308 18.27458717 46.13793945 18.2512207 C40.3504371 18.22273339 34.56409404 18.23913699 28.77663422 18.26908302 C24.32589997 18.28715417 19.87544041 18.28139869 15.42469788 18.26844406 C13.29085655 18.26510957 11.15699026 18.26919861 9.0231781 18.28084183 C6.04008978 18.2935471 3.05887644 18.27417719 0.07592773 18.24633789 C-0.8052623 18.25645905 -1.68645233 18.2665802 -2.59434509 18.27700806 C-6.96588928 18.20145843 -8.78274761 18.00604674 -12.36462402 15.27767944 C-14.31665039 12.59936523 -14.31665039 12.59936523 -14.94165039 9.09936523 C-13.39928798 0.46213576 -7.46183809 -0.12673432 0 0 Z " fill="#FBFCFF" transform="translate(110.316650390625,180.400634765625)"/>
<path d="M0 0 C1.39356216 -0.00832352 1.39356216 -0.00832352 2.8152771 -0.01681519 C5.881285 -0.02861032 8.94581457 -0.00433716 12.01171875 0.02148438 C14.14493747 0.02319557 16.27815828 0.0231297 18.41137695 0.0213623 C22.88025046 0.02301548 27.34862229 0.04171357 31.81738281 0.07324219 C37.54413232 0.11291944 43.2702247 0.11728734 48.99708557 0.10977936 C53.40146906 0.10670904 57.80570496 0.11883245 62.21005249 0.13591003 C64.3215543 0.1429387 66.43307284 0.14606473 68.54458618 0.1452179 C71.49617715 0.14701667 74.44698247 0.16840576 77.3984375 0.1953125 C78.27027679 0.1923819 79.14211609 0.18945129 80.04037476 0.18643188 C84.73289694 0.25239515 87.89823454 0.54798298 91.69921875 3.61523438 C93.24508751 6.70697189 92.99281396 9.2095299 92.69921875 12.61523438 C90.8321337 14.98020877 89.37860444 16.27554153 86.69921875 17.61523438 C83.70529728 17.73487025 80.73395666 17.79365052 77.73901367 17.80810547 C76.81041031 17.81628296 75.88180695 17.82446045 74.92506409 17.83288574 C71.84327851 17.85775653 68.76153901 17.8742595 65.6796875 17.88867188 C64.62863642 17.89399555 63.57758533 17.89931923 62.49468422 17.90480423 C56.93225457 17.9315423 51.36984743 17.95091568 45.80737305 17.96533203 C40.05691524 17.98198737 34.30702971 18.02677103 28.55678844 18.07770348 C24.13958565 18.11132929 19.7225195 18.12290434 15.30520058 18.12855911 C13.18527156 18.13528378 11.06535191 18.15053722 8.9455471 18.17444992 C5.97909015 18.20600566 3.01418757 18.20615256 0.04760742 18.19873047 C-0.82894501 18.2151358 -1.70549744 18.23154114 -2.60861206 18.2484436 C-6.97621283 18.20368577 -8.76443858 18.02344615 -12.34599304 15.29751587 C-14.30078125 12.61523438 -14.30078125 12.61523438 -14.92578125 9.11523438 C-13.38569071 0.49072736 -7.45506789 -0.11341355 0 0 Z " fill="#FBFDFF" transform="translate(110.30078125,135.384765625)"/>
</svg>
