<?xml version="1.0" encoding="UTF-8"?>
<svg version="1.1" xmlns="http://www.w3.org/2000/svg" width="300" height="300">
<path d="M0 0 C4.72529642 2.4348689 8.42631177 6.57137354 10.7890625 11.296875 C11.627329 19.28693414 11.78273848 26.04867219 6.61328125 32.51953125 C2.06086592 36.95496802 -2.33175569 38.50723248 -8.6484375 38.921875 C-15.66414287 38.62995938 -20.18840545 35.54592 -24.87890625 30.50390625 C-28.82624735 25.14127198 -29.1930418 19.76554276 -28.2109375 13.296875 C-26.64126528 7.29700949 -23.16803588 3.54798741 -17.91015625 0.3671875 C-12.19318203 -1.89974584 -5.84940959 -1.86023627 0 0 Z " fill="#14151A" transform="translate(159.2109375,131.703125)"/>
<path d="M0 0 C1.625 0.828125 1.625 0.828125 3.8125 2.328125 C3.8125 2.988125 3.8125 3.648125 3.8125 4.328125 C4.4725 4.328125 5.1325 4.328125 5.8125 4.328125 C10.2536235 9.13934212 11.24627159 14.75018781 11.0546875 21.09375 C10.47064174 26.48204314 8.38447742 30.08060615 4.4375 33.640625 C-1.5112732 38.27844195 -6.72937329 39.09552067 -14.1875 38.328125 C-19.8457518 36.29969511 -23.35338019 32.75178332 -26.9375 28.015625 C-29.47284355 22.56463636 -29.69531689 18.19615886 -27.875 12.578125 C-25.64983424 6.54304127 -23.89107693 3.70371135 -18.1875 0.328125 C-12.67535127 -1.50925791 -5.58556977 -1.71556786 0 0 Z " fill="#14151A" transform="translate(29.1875,131.671875)"/>
<path d="M0 0 C6.53452116 5.30929844 6.53452116 5.30929844 8 9.4375 C9.42219217 24.11867121 9.42219217 24.11867121 6 29.4375 C5.34 29.4375 4.68 29.4375 4 29.4375 C4 30.4275 4 31.4175 4 32.4375 C-2.63861477 36.39241944 -8.20769484 38.80210991 -16 37.4375 C-21.79081495 35.62216572 -25.73770591 32.61879061 -29 27.4375 C-31.27703513 21.04219082 -31.7804823 14.73314488 -29 8.4375 C-22.56528614 -1.14857372 -11.03965132 -5.66572414 0 0 Z " fill="#14151A" transform="translate(292,132.5625)"/>
</svg>
