<?xml version="1.0" encoding="UTF-8"?>
<svg version="1.1" xmlns="http://www.w3.org/2000/svg" width="300" height="300">
<path d="M0 0 C1.73950195 1.20448303 1.73950195 1.20448303 3.55078125 2.86352539 C4.60023926 3.82175705 4.60023926 3.82175705 5.67089844 4.79934692 C12.88850427 11.61890633 19.98097353 18.56275147 27.04116821 25.54453945 C29.80240278 28.27507815 32.57108567 30.99700673 35.35888672 33.70043945 C38.07671671 36.3362936 40.77437226 38.99130152 43.45895386 41.66099739 C44.47917199 42.66900122 45.50624443 43.67011856 46.54031372 44.663908 C55.575611 53.3639732 55.575611 53.3639732 56.0625 58.17602539 C53.25264109 68.28880576 41.32067909 76.82046327 34.01831055 84.11108398 C32.60161512 85.5291361 31.18513215 86.9474005 29.7688446 88.36585999 C25.94099946 92.19824514 22.11002086 96.02748332 18.27831626 99.85600924 C14.265897 103.86589011 10.25592559 107.8782177 6.24555969 111.89015198 C-0.48171324 118.61924102 -7.21108518 125.34622556 -13.94165039 132.07202148 C-21.72974096 139.85465724 -29.51420463 147.64090683 -37.29681998 155.42901748 C-43.98129845 162.11802716 -50.66771513 168.80509467 -57.35576981 175.49052864 C-61.3496455 179.48284331 -65.34283761 183.47583541 -69.33428383 187.47057915 C-73.08061382 191.21978841 -76.82936361 194.96656092 -80.58003044 198.7114315 C-81.95880645 200.08888079 -83.33672393 201.46719003 -84.71373749 202.84640121 C-86.5867968 204.72217508 -88.46287977 206.5948702 -90.33979797 208.46678162 C-90.88949401 209.01870837 -91.43919004 209.57063513 -92.00554353 210.13928694 C-95.95155494 214.06477026 -97.67691102 215.12177391 -103.1965332 215.16113281 C-104.82381096 215.17554413 -104.82381096 215.17554413 -106.48396301 215.19024658 C-107.66101303 215.19449646 -108.83806305 215.19874634 -110.05078125 215.203125 C-111.85992256 215.21167511 -111.85992256 215.21167511 -113.70561218 215.22039795 C-116.26198445 215.22985846 -118.81836898 215.23638609 -121.37475586 215.24023438 C-125.28586127 215.24993394 -129.19644003 215.28094591 -133.10742188 215.3125 C-135.58853854 215.31903044 -138.06965897 215.32428075 -140.55078125 215.328125 C-141.72175858 215.3404718 -142.8927359 215.3528186 -144.09919739 215.36553955 C-145.19350571 215.36253845 -146.28781403 215.35953735 -147.4152832 215.35644531 C-148.37521683 215.36009094 -149.33515045 215.36373657 -150.32417297 215.36749268 C-153.57127881 214.92154172 -155.39619019 213.97660302 -158 212 C-160.12859643 208.94811723 -160.27338569 206.29041306 -160.33813477 202.62402344 C-160.36057755 201.54900574 -160.38302032 200.47398804 -160.40614319 199.36639404 C-160.4235984 197.63041962 -160.4235984 197.63041962 -160.44140625 195.859375 C-160.45517807 194.66322571 -160.46894989 193.46707642 -160.48313904 192.23468018 C-160.50641276 189.70288721 -160.52367727 187.17103295 -160.53540039 184.63916016 C-160.56230611 180.77782561 -160.63721589 176.91923762 -160.71289062 173.05859375 C-160.72955 170.59637257 -160.74331571 168.13412976 -160.75390625 165.671875 C-160.78376114 164.52265564 -160.81361603 163.37343628 -160.84437561 162.18939209 C-160.83844894 161.10176575 -160.83252228 160.0141394 -160.82641602 158.89355469 C-160.83592789 157.94631531 -160.84543976 156.99907593 -160.85523987 156.02313232 C-159.50537344 151.25157644 -156.42295914 148.49908993 -153 145 C-152.5353672 144.52291304 -152.0707344 144.04582609 -151.59202182 143.55428195 C-147.43650186 139.29669325 -143.2284959 135.09232815 -139.01831055 130.88891602 C-137.60161512 129.4708639 -136.18513215 128.0525995 -134.7688446 126.63414001 C-130.94099946 122.80175486 -127.11002086 118.97251668 -123.27831626 115.14399076 C-119.265897 111.13410989 -115.25592559 107.1217823 -111.24555969 103.10984802 C-104.51828676 96.38075898 -97.78891482 89.65377444 -91.05834961 82.92797852 C-83.27025904 75.14534276 -75.48579537 67.35909317 -67.70318002 59.57098252 C-61.01870155 52.88197284 -54.33228487 46.19490533 -47.64423019 39.50947136 C-43.6503545 35.51715669 -39.65716239 31.52416459 -35.66571617 27.52942085 C-31.91938618 23.78021159 -28.17063639 20.03343908 -24.41996956 16.2885685 C-23.04119355 14.91111921 -21.66327607 13.53280997 -20.28626251 12.15359879 C-18.4132032 10.27782492 -16.53712023 8.4051298 -14.66020203 6.53321838 C-14.11050599 5.98129163 -13.56080996 5.42936487 -12.99445647 4.86071306 C-8.5921615 0.48131988 -6.3543027 -0.81991003 0 0 Z M-6.13305664 25.01953125 C-7.04949951 25.94121094 -7.96594238 26.86289062 -8.91015625 27.8125 C-9.39705429 28.30081299 -9.88395233 28.78912598 -10.38560486 29.29223633 C-11.94692138 30.85917005 -13.50473358 32.42953765 -15.0625 34 C-16.11761028 35.06012306 -17.17294587 36.12002194 -18.22851562 37.1796875 C-20.82163407 39.78385775 -23.41161959 42.39111945 -26 45 C-24.65427113 47.99943905 -23.16462899 50.08076179 -20.83544922 52.39160156 C-20.19493622 53.0319635 -19.55442322 53.67232544 -18.89450073 54.33209229 C-18.20486237 55.01140808 -17.515224 55.69072388 -16.8046875 56.390625 C-15.74352219 57.44754547 -15.74352219 57.44754547 -14.66091919 58.52581787 C-12.40360138 60.7719539 -10.13942367 63.01103009 -7.875 65.25 C-6.34199047 66.77297717 -4.80943285 68.29640939 -3.27734375 69.8203125 C0.47654573 73.55216815 4.23608914 77.27825351 8 81 C11.62083128 79.30145963 13.94255354 77.28895218 16.765625 74.4296875 C17.65507812 73.53378906 18.54453125 72.63789062 19.4609375 71.71484375 C20.38132812 70.77769531 21.30171875 69.84054688 22.25 68.875 C23.19484856 67.92011363 24.14015633 66.96568141 25.0859375 66.01171875 C27.39518338 63.67890913 29.69963203 61.34155914 32 59 C27.89174608 54.10546618 23.63030488 49.48223283 19.10546875 44.97265625 C18.47264481 44.33887558 17.83982086 43.70509491 17.18782043 43.05210876 C15.8638271 41.72744029 14.53859164 40.40401222 13.2121582 39.08178711 C11.17216173 37.04720242 9.13762825 35.00726228 7.10351562 32.96679688 C5.812821 31.67676209 4.52181671 30.38703703 3.23046875 29.09765625 C2.62011276 28.48527603 2.00975677 27.87289581 1.38090515 27.24195862 C-2.14072715 22.75449503 -2.14072715 22.75449503 -6.13305664 25.01953125 Z " fill="#0078FF" transform="translate(245,0)"/>
<path d="M0 0 C1.65068481 -0.01496269 1.65068481 -0.01496269 3.3347168 -0.03022766 C4.53226089 -0.03089233 5.72980499 -0.03155701 6.96363831 -0.03224182 C8.23244843 -0.04056534 9.50125854 -0.04888885 10.80851746 -0.0574646 C14.28166289 -0.07936415 17.75472031 -0.08820199 21.22792697 -0.09329104 C23.39943972 -0.0969391 25.57092956 -0.1031814 27.74243355 -0.11029243 C35.32252639 -0.13476828 42.90255094 -0.1478354 50.48268127 -0.15138245 C57.54185394 -0.15501935 64.60059227 -0.18493013 71.65963215 -0.22678703 C77.72688293 -0.26149848 83.79398976 -0.276931 89.86133915 -0.27762848 C93.48227994 -0.27842083 97.10277771 -0.28713947 100.72361565 -0.31562614 C104.76226791 -0.34669167 108.79988603 -0.33774334 112.83863831 -0.32521057 C114.03415817 -0.34004486 115.22967804 -0.35487915 116.46142578 -0.37016296 C125.49601038 -0.29020979 125.49601038 -0.29020979 129.18862915 2.62802124 C131.84886263 5.7192354 132.54888459 7.20475275 132.46583557 11.27415466 C131.21946805 15.24695114 130.22944743 16.83212624 126.60766602 18.9286499 C121.31117406 21.02905212 115.81034775 20.66761448 110.19654846 20.61473083 C108.33674803 20.61527324 108.33674803 20.61527324 106.43937588 20.61582661 C103.10178901 20.61396332 99.76476905 20.59918237 96.42728424 20.5779953 C93.28938722 20.56084174 90.15150336 20.56010222 87.01356506 20.55796814 C77.85177912 20.54226004 68.69005316 20.50037628 59.52833557 20.46165466 C28.80739807 20.36884216 28.80739807 20.36884216 -2.53416443 20.27415466 C-2.20416443 102.11415466 -1.87416443 183.95415466 -1.53416443 268.27415466 C121.22583557 268.76915466 121.22583557 268.76915466 246.46583557 269.27415466 C246.34710471 228.45170753 246.34710471 228.45170753 246.1955719 187.62937927 C246.18202209 179.72642517 246.18202209 179.72642517 246.17950439 176.02441406 C246.17490327 173.44371172 246.16549119 170.86345263 246.14910889 168.28283691 C246.12459813 164.36967148 246.12411811 160.45668727 246.1252594 156.54344177 C246.11446507 155.39758323 246.10367075 154.25172468 246.09254932 153.07114315 C246.11607537 147.04112462 246.42511599 142.54667859 249.46583557 137.27415466 C253.04048717 134.59316596 254.65032951 134.16167107 259.09083557 134.77415466 C263.12717568 136.5680836 264.26964774 137.43334654 266.46583557 141.27415466 C267.06956475 145.42616631 267.01181358 149.55086473 266.9834137 153.74021912 C266.99392761 155.63861542 266.99392761 155.63861542 267.00465393 157.57536316 C267.02286427 161.04052612 267.01582818 164.5052118 267.00313759 167.97038293 C266.99299127 171.60348792 267.0024084 175.23655278 267.00868225 178.86965942 C267.01595673 184.97355967 267.00637926 191.07726626 266.98731995 197.18113708 C266.96558064 204.22433423 266.97258162 211.26706765 266.99462557 218.31025344 C267.01282039 224.36736956 267.01531717 230.42434662 267.00487089 236.48148125 C266.99865451 240.09455624 266.99774819 243.70741386 267.01101685 247.32047462 C267.02479445 251.35389432 267.00565943 255.38652474 266.9834137 259.41990662 C266.99151062 260.60823593 266.99960754 261.79656525 267.00794983 263.02090454 C266.92898187 270.76434725 265.95953778 276.30543154 260.68458557 282.29759216 C260.11739807 282.74360779 259.55021057 283.18962341 258.96583557 283.64915466 C258.39864807 284.11063904 257.83146057 284.57212341 257.24708557 285.04759216 C253.79424385 287.42520686 251.18863139 288.52377715 246.96670914 288.53142357 C246.06496248 288.53787246 245.16321581 288.54432135 244.2341435 288.55096567 C243.24738716 288.54786846 242.26063082 288.54477126 241.24397278 288.5415802 C239.66697826 288.54837687 239.66697826 288.54837687 238.05812526 288.55531085 C234.52373703 288.56800417 230.98950193 288.56633128 227.45509338 288.56468201 C224.92564189 288.57066422 222.39619224 288.57746905 219.866745 288.58503723 C213.70167456 288.60089705 207.5366605 288.60714706 201.37157157 288.60826199 C196.35933452 288.60921235 191.34711008 288.61332205 186.33487701 288.61966324 C172.12194618 288.63727839 157.90904555 288.64650187 143.69610372 288.64500229 C142.92982226 288.64492238 142.1635408 288.64484247 141.3740387 288.64476013 C140.60682057 288.64467837 139.83960245 288.64459661 139.0491353 288.64451237 C126.61961163 288.64369974 114.19020924 288.66283078 101.76072064 288.69103687 C88.99592665 288.71977503 76.23119178 288.7335766 63.46636462 288.73184931 C56.30084537 288.73118566 49.13545318 288.73666702 41.96996307 288.75820541 C35.22957931 288.77833614 28.48950828 288.77773396 21.74909592 288.76317215 C19.27556085 288.7610789 16.80200912 288.76581549 14.32850266 288.77789307 C10.95056315 288.79331793 7.5735523 288.78405446 4.19563293 288.76863098 C3.21779948 288.77891811 2.23996603 288.78920523 1.23250127 288.79980409 C-5.83071145 288.72858491 -11.50070838 287.32487897 -16.59275818 282.20384216 C-17.27531677 281.18677185 -17.27531677 281.18677185 -17.97166443 280.14915466 C-18.44475037 279.46595154 -18.9178363 278.78274841 -19.40525818 278.07884216 C-21.23767759 275.14950733 -21.66093973 273.43963896 -21.67117882 270.00550652 C-21.67625336 269.10425856 -21.6813279 268.20301059 -21.68655622 267.27445209 C-21.68730286 265.77974264 -21.68730286 265.77974264 -21.68806458 264.25483704 C-21.69244683 263.20113265 -21.69682908 262.14742827 -21.70134413 261.06179345 C-21.7147698 257.50741601 -21.72091947 253.95306339 -21.72703552 250.39866638 C-21.73493357 247.85965868 -21.74320233 245.32065211 -21.7518158 242.78164673 C-21.77580464 235.14426437 -21.79096999 227.50688322 -21.80387586 219.86947507 C-21.80758725 217.71237136 -21.81156054 215.55526829 -21.81562853 213.39816523 C-21.8408675 200.00417312 -21.8629217 186.61018 -21.87535667 173.21616936 C-21.87828641 170.1127764 -21.88124806 167.00938348 -21.88426208 163.9059906 C-21.88500814 163.13465086 -21.88575419 162.36331112 -21.88652284 161.56859745 C-21.8991724 149.07749706 -21.93238897 136.58653915 -21.97406392 124.09550534 C-22.0164973 111.27202172 -22.04005343 98.44861099 -22.04527724 85.62505734 C-22.04869008 78.42481055 -22.06042975 71.22478629 -22.09337997 64.02460861 C-22.12433275 57.24974915 -22.12978947 50.47534513 -22.11799622 43.70040321 C-22.11777507 41.21395867 -22.12611363 38.72749638 -22.14365005 36.24111366 C-22.16629581 32.84539868 -22.15806626 29.45109606 -22.14216614 26.05537415 C-22.15604823 25.07228551 -22.16993031 24.08919687 -22.18423307 23.07631767 C-22.10059205 15.82221143 -20.12602553 10.97709416 -15.05607069 5.75035083 C-10.39280611 1.6101581 -6.16585652 0.03006842 0 0 Z " fill="#0078FF" transform="translate(21.534164428710938,11.725845336914063)"/>
</svg>
