<?xml version="1.0" encoding="UTF-8"?>
<svg version="1.1" xmlns="http://www.w3.org/2000/svg" width="300" height="300">
<path d="M0 0 C0.67453043 -0.00467997 1.34906087 -0.00935994 2.04403162 -0.01418173 C4.29725646 -0.02611815 6.54987156 -0.01668026 8.80310059 -0.00723267 C10.4213242 -0.01129899 12.03954504 -0.01664121 13.65776062 -0.02316284 C18.0482254 -0.03683512 22.4384786 -0.03153818 26.82894707 -0.02202559 C31.42438196 -0.01442854 36.01979877 -0.02147473 40.61523438 -0.02618408 C48.33234915 -0.0316415 56.04937779 -0.02445038 63.76647949 -0.01016235 C72.68757928 0.00616414 81.60847339 0.00087562 90.5295682 -0.01564157 C98.18999889 -0.02925683 105.85036768 -0.0311759 113.51080656 -0.02332556 C118.08563324 -0.01864927 122.66036325 -0.01802301 127.23518372 -0.02793503 C131.53622882 -0.03660299 135.83700881 -0.03058596 140.13802528 -0.01325226 C141.716231 -0.0092865 143.29445904 -0.01042301 144.87265587 -0.01704025 C147.02762811 -0.0252426 149.1817517 -0.01495108 151.33666992 0 C152.5423336 0.00113108 153.74799728 0.00226215 154.99019623 0.00342751 C158.47367754 0.41722183 160.40434407 1.24605876 163.16833496 3.38095093 C163.16833496 4.04095093 163.16833496 4.70095093 163.16833496 5.38095093 C163.82833496 5.38095093 164.48833496 5.38095093 165.16833496 5.38095093 C170.03228174 14.76279294 170.03228174 14.76279294 171.60583496 19.25595093 C172.84245818 22.74098001 174.42542503 25.96234746 176.10583496 29.25595093 C178.36450284 33.6900434 180.32332356 38.12352504 182.10974121 42.76376343 C183.33589273 45.79520813 184.71196593 48.73546931 186.10583496 51.69345093 C188.20954025 56.1764098 190.07438728 60.67464766 191.79333496 65.31845093 C193.47572538 69.8210022 195.45754032 73.40511879 198.16833496 77.38095093 C199.03143396 79.64258997 199.76564911 81.91312191 200.45739746 84.23251343 C201.17792929 86.40994478 202.09655101 88.35647014 203.16833496 90.38095093 C204.68813965 90.3287439 204.68813965 90.3287439 206.23864746 90.27548218 C207.59019326 90.24732497 208.94175715 90.2200269 210.29333496 90.19345093 C210.95849121 90.16831421 211.62364746 90.14317749 212.30895996 90.11727905 C217.04066746 90.04769512 220.13189275 90.9455899 224.16833496 93.38095093 C225.82725968 95.03987565 225.41820309 96.98142511 225.48083496 99.25595093 C225.51821777 100.1402478 225.55560059 101.02454468 225.59411621 101.93563843 C225.16833496 104.38095093 225.16833496 104.38095093 223.62609863 106.02206421 C220.25051865 107.88840753 217.16346673 107.70650399 213.41833496 107.56845093 C212.72095215 107.55491577 212.02356934 107.54138062 211.30505371 107.5274353 C209.59247955 107.49224542 207.88030555 107.43844248 206.16833496 107.38095093 C206.17277618 108.69560333 206.17721741 110.01025574 206.18179321 111.36474609 C206.22233591 123.75386122 206.25231778 136.14296288 206.2719593 148.53212929 C206.28239664 154.90152374 206.29655508 161.27086464 206.31921387 167.64022827 C206.3409438 173.78695579 206.35290396 179.93363178 206.35808945 186.08039474 C206.36178491 188.425539 206.36900117 190.77068044 206.37979507 193.11580276 C206.39431178 196.40037379 206.3963128 199.68473189 206.39538574 202.96932983 C206.40257629 203.93893646 206.40976685 204.90854309 206.41717529 205.90753174 C206.39713652 212.46835801 205.30571524 217.55438756 202.16833496 223.38095093 C201.50833496 223.38095093 200.84833496 223.38095093 200.16833496 223.38095093 C200.16833496 224.04095093 200.16833496 224.70095093 200.16833496 225.38095093 C195.58985598 229.33761644 190.51323319 228.81539455 184.79333496 228.77938843 C183.79125 228.78225861 182.78916504 228.78512878 181.75671387 228.78808594 C179.64196201 228.79012379 177.52719119 228.7846135 175.41247559 228.77206421 C172.17962405 228.756007 168.94802271 228.77192281 165.71520996 228.79110718 C163.65791554 228.7891247 161.6006219 228.78528092 159.54333496 228.77938843 C158.09628174 228.78849747 158.09628174 228.78849747 156.61999512 228.79779053 C148.01807827 228.70785199 148.01807827 228.70785199 144.16833496 225.38095093 C144.16833496 224.72095093 144.16833496 224.06095093 144.16833496 223.38095093 C143.50833496 223.38095093 142.84833496 223.38095093 142.16833496 223.38095093 C134.93964659 213.26078721 138.16833496 200.23787772 138.16833496 188.38095093 C96.91833496 188.38095093 55.66833496 188.38095093 13.16833496 188.38095093 C13.16833496 196.63095093 13.16833496 204.88095093 13.16833496 213.38095093 C11.30188422 218.98030314 9.76590792 223.22417436 5.18005371 227.03182983 C0.74156397 229.02008326 -3.39565169 228.80967322 -8.20666504 228.77938843 C-9.20875 228.78225861 -10.21083496 228.78512878 -11.24328613 228.78808594 C-13.35803799 228.79012379 -15.47280881 228.7846135 -17.58752441 228.77206421 C-20.82037595 228.756007 -24.05197729 228.77192281 -27.28479004 228.79110718 C-29.34208446 228.7891247 -31.3993781 228.78528092 -33.45666504 228.77938843 C-34.90371826 228.78849747 -34.90371826 228.78849747 -36.38000488 228.79779053 C-44.98192173 228.70785199 -44.98192173 228.70785199 -48.83166504 225.38095093 C-48.83166504 224.72095093 -48.83166504 224.06095093 -48.83166504 223.38095093 C-49.49166504 223.38095093 -50.15166504 223.38095093 -50.83166504 223.38095093 C-54.16147639 218.71921504 -54.95860343 214.39001216 -54.95191956 208.75550842 C-54.95329422 207.85673477 -54.95466888 206.95796112 -54.95608521 206.0319519 C-54.95248993 205.05875 -54.94889465 204.0855481 -54.94519043 203.08285522 C-54.94533646 202.04824661 -54.94548248 201.013638 -54.94563293 199.94767761 C-54.94493717 196.53348685 -54.93716048 193.11935089 -54.92932129 189.70516968 C-54.92745592 187.33576996 -54.92603258 184.96636985 -54.92503357 182.5969696 C-54.9212178 176.36465386 -54.91139551 170.13236146 -54.90032959 163.90005493 C-54.89009528 157.53887244 -54.88553162 151.17768616 -54.88049316 144.8164978 C-54.86977242 132.33797193 -54.85270726 119.85946337 -54.83166504 107.38095093 C-55.85646973 107.43895874 -56.88127441 107.49696655 -57.93713379 107.55673218 C-59.29776515 107.6036505 -60.658446 107.64914845 -62.01916504 107.69345093 C-62.6927002 107.73534546 -63.36623535 107.77723999 -64.06018066 107.82040405 C-68.01198632 107.91678956 -69.64783782 107.52611607 -72.78479004 105.04891968 C-74.83166504 102.38095093 -74.83166504 102.38095093 -75.39416504 99.38095093 C-74.698797 95.6723214 -73.52411865 93.99861416 -70.83166504 91.38095093 C-67.06422209 89.94150339 -63.05372997 90.26964484 -59.08166504 90.31845093 C-58.38428223 90.32296265 -57.68689941 90.32747437 -56.96838379 90.3321228 C-55.25610701 90.34385073 -53.54387471 90.3617844 -51.83166504 90.38095093 C-51.50553223 89.50052124 -51.17939941 88.62009155 -50.84338379 87.71298218 C-50.4063916 86.55153687 -49.96939941 85.39009155 -49.51916504 84.19345093 C-49.08990723 83.04489624 -48.66064941 81.89634155 -48.21838379 80.71298218 C-46.96358693 77.69793508 -45.51052803 75.16935952 -43.83166504 72.38095093 C-42.45063983 69.494283 -41.17311763 66.56401553 -39.89416504 63.63095093 C-39.21838379 62.09449259 -38.54260254 60.55803426 -37.86682129 59.02157593 C-37.53005371 58.25224731 -37.19328613 57.4829187 -36.84631348 56.6902771 C-35.85695509 54.43851074 -34.85525036 52.19260248 -33.85119629 49.94735718 C-32.04724934 45.89519781 -30.3116638 41.81624975 -28.58410645 37.73104858 C-25.290629 29.95307868 -21.92309573 22.288086 -18.05041504 14.77938843 C-16.48687597 11.70242371 -15.13804204 8.57431692 -13.83166504 5.38095093 C-13.17166504 5.38095093 -12.51166504 5.38095093 -11.83166504 5.38095093 C-11.83166504 4.72095093 -11.83166504 4.06095093 -11.83166504 3.38095093 C-7.9080172 0.35034578 -4.8791081 0.00457727 0 0 Z M-3.14338684 19.21286011 C-4.1290772 21.28098269 -4.1290772 21.28098269 -4.83166504 23.38095093 C-5.3073291 24.56817749 -5.78299316 25.75540405 -6.27307129 26.97860718 C-6.64303223 28.12200562 -7.01299316 29.26540405 -7.39416504 30.44345093 C-9.92689389 37.89872489 -9.92689389 37.89872489 -11.95666504 41.25595093 C-13.76264118 44.26591116 -14.88845508 47.07027585 -16.05432129 50.35360718 C-16.84038546 52.40369414 -17.76104047 54.30638708 -18.76916504 56.25595093 C-20.3423766 59.30029544 -21.65413099 62.37370671 -22.89416504 65.56845093 C-24.26885219 69.09342694 -25.88487616 72.1363028 -27.83166504 75.38095093 C-30.04424604 80.37173513 -31.75705071 85.0078793 -32.83166504 90.38095093 C38.77833496 90.38095093 110.38833496 90.38095093 184.16833496 90.38095093 C181.72806921 82.9744028 181.72806921 82.9744028 178.73083496 75.94345093 C177.11328188 72.47726575 175.60386331 69.01332464 174.23083496 65.44345093 C172.74135871 61.63835168 171.02358836 58.02171135 169.16833496 54.38095093 C166.93235709 49.99284436 165.00233612 45.59939584 163.22692871 41.00985718 C160.36559396 33.90403325 156.99413762 27.01000091 153.5645752 20.16415405 C153.11549301 19.2673291 152.66641083 18.37050415 152.20372009 17.44650269 C151.862043 16.76487061 151.52036591 16.08323853 151.16833496 15.38095093 C131.56690842 15.1941014 111.96566246 15.0530119 92.36353016 14.96645355 C83.26194815 14.92519523 74.16091933 14.86894319 65.05969238 14.7774353 C57.12737576 14.69771816 49.19545972 14.64609036 41.26275367 14.62824297 C37.06185457 14.61780916 32.86210147 14.5932783 28.6615696 14.53511047 C24.70745021 14.48079862 20.75494829 14.46405882 16.80049133 14.47608948 C15.34958795 14.47388884 13.89863042 14.45797628 12.44804955 14.42730713 C3.37370197 13.89696061 3.37370197 13.89696061 -3.14338684 19.21286011 Z M-37.83166504 107.38095093 C-37.83166504 128.83095093 -37.83166504 150.28095093 -37.83166504 172.38095093 C37.07833496 172.38095093 111.98833496 172.38095093 189.16833496 172.38095093 C189.16833496 150.93095093 189.16833496 129.48095093 189.16833496 107.38095093 C114.25833496 107.38095093 39.34833496 107.38095093 -37.83166504 107.38095093 Z M-37.83166504 188.38095093 C-37.85229004 192.32032593 -37.87291504 196.25970093 -37.89416504 200.31845093 C-37.90326904 201.56231567 -37.91237305 202.80618042 -37.92175293 204.08773804 C-37.92425049 205.05977173 -37.92674805 206.03180542 -37.92932129 207.03329468 C-37.93455811 208.03352661 -37.93979492 209.03375854 -37.94519043 210.06430054 C-38.09347599 212.3430232 -38.09347599 212.3430232 -36.83166504 213.38095093 C-34.56391613 213.48118501 -32.2930334 213.51176434 -30.02307129 213.51376343 C-29.00019264 213.51519852 -29.00019264 213.51519852 -27.95664978 213.5166626 C-26.51158557 213.51734431 -25.06651832 213.51549061 -23.62145996 213.51132202 C-21.40695311 213.50598177 -19.19264985 213.51126298 -16.97814941 213.51766968 C-15.57645626 213.51700873 -14.17476323 213.51572723 -12.77307129 213.51376343 C-10.85023315 213.51207153 -10.85023315 213.51207153 -8.8885498 213.51034546 C-5.915422 213.59324076 -5.915422 213.59324076 -3.83166504 212.38095093 C-3.83166504 204.46095093 -3.83166504 196.54095093 -3.83166504 188.38095093 C-15.05166504 188.38095093 -26.27166504 188.38095093 -37.83166504 188.38095093 Z M155.16833496 188.38095093 C155.14770996 192.32032593 155.12708496 196.25970093 155.10583496 200.31845093 C155.09673096 201.56231567 155.08762695 202.80618042 155.07824707 204.08773804 C155.07574951 205.05977173 155.07325195 206.03180542 155.07067871 207.03329468 C155.06544189 208.03352661 155.06020508 209.03375854 155.05480957 210.06430054 C154.90652401 212.3430232 154.90652401 212.3430232 156.16833496 213.38095093 C158.54402016 213.46934763 160.8904217 213.49625398 163.26599121 213.47860718 C163.9748497 213.47719223 164.68370819 213.47577728 165.41404724 213.47431946 C167.68635208 213.46870535 169.95855971 213.45615056 172.23083496 213.44345093 C173.76794292 213.43843774 175.30505241 213.43387452 176.84216309 213.42977905 C180.61759138 213.41873135 184.39294667 213.40145734 188.16833496 213.38095093 C189.44695111 210.82371863 189.28170105 209.0135799 189.26599121 206.15438843 C189.26349365 205.22545776 189.26099609 204.2965271 189.25842285 203.33944702 C189.24931885 202.15689331 189.24021484 200.9743396 189.23083496 199.75595093 C189.21020996 196.00220093 189.18958496 192.24845093 189.16833496 188.38095093 C177.94833496 188.38095093 166.72833496 188.38095093 155.16833496 188.38095093 Z " fill="#14151A" transform="translate(74.8316650390625,35.619049072265625)"/>
<path d="M0 0 C1.17111328 -0.01933594 2.34222656 -0.03867188 3.54882812 -0.05859375 C13.06477146 -0.00430999 13.06477146 -0.00430999 16.2109375 2.94140625 C18.48423355 6.47478721 18.61249833 8.50001023 17.9375 12.625 C16.07041495 14.98997439 14.61688569 16.28530715 11.9375 17.625 C7.83945531 17.92195976 3.7325376 17.90306005 -0.375 17.9375 C-1.51646484 17.96650391 -2.65792969 17.99550781 -3.83398438 18.02539062 C-12.27047241 18.08949018 -12.27047241 18.08949018 -16.29296875 15.73046875 C-18.3859234 13.24017613 -18.99810137 12.03899121 -19.5 8.8125 C-19.0061199 5.21423068 -18.03526826 3.89273609 -15.19995117 1.67016602 C-10.49201271 -0.63191103 -5.12525384 -0.08490205 0 0 Z " fill="#0078FF" transform="translate(222.0625,166.375)"/>
<path d="M0 0 C1.7634375 -0.01643555 1.7634375 -0.01643555 3.5625 -0.03320312 C13.46392153 0.05118399 13.46392153 0.05118399 18 4.5625 C19.0625 8 19.0625 8 19 11.5625 C17.23358828 14.36439446 15.96950178 16.07774911 13 17.5625 C8.87999208 17.80593642 4.75139093 17.74770245 0.625 17.75 C-0.52484375 17.76224609 -1.6746875 17.77449219 -2.859375 17.78710938 C-3.96539062 17.78904297 -5.07140625 17.79097656 -6.2109375 17.79296875 C-7.22462402 17.79707764 -8.23831055 17.80118652 -9.28271484 17.80541992 C-12.08794326 17.55463805 -13.66790888 17.1141059 -16 15.5625 C-18.50031654 11.81202518 -18.53603554 10.00393734 -18 5.5625 C-13.68357205 -1.21203043 -7.3957516 -0.15002347 0 0 Z " fill="#0078FF" transform="translate(79,166.4375)"/>
</svg>
