<?xml version="1.0" encoding="UTF-8"?>
<svg version="1.1" xmlns="http://www.w3.org/2000/svg" width="300" height="300">
<path d="M0 0 C4.21985502 3.45155038 8.14742338 7.14742338 12 11 C14.4436282 11.30392367 14.4436282 11.30392367 17.31665039 11.25537109 C18.98462425 11.26580948 18.98462425 11.26580948 20.68629456 11.27645874 C21.89454391 11.27546173 23.10279327 11.27446472 24.34765625 11.2734375 C26.89779075 11.29373883 29.44792092 11.31458983 31.99804688 11.3359375 C36.0246555 11.36061126 40.05120104 11.37582695 44.07788086 11.38085938 C47.9597891 11.39041543 51.84092256 11.42424835 55.72265625 11.4609375 C56.91673599 11.45589203 58.11081573 11.45084656 59.34107971 11.44564819 C66.82546758 11.53318178 73.83023765 12.18263858 79.58070374 17.44711304 C83.08432302 21.45709218 85.24526147 25.05104645 85.26285553 30.38701153 C85.27053782 31.26375772 85.27822011 32.14050392 85.2861352 33.04381818 C85.28440223 34.00265575 85.28266927 34.96149333 85.28088379 35.9493866 C85.28682603 36.97142585 85.29276828 37.9934651 85.29889059 39.04647523 C85.31627664 42.48178138 85.31928207 45.91694823 85.32226562 49.35229492 C85.33152117 51.81116026 85.34157039 54.27002273 85.35235596 56.72888184 C85.37861689 63.41705779 85.39156998 70.10517914 85.40037727 76.79339385 C85.40590525 80.97118306 85.41438059 85.14896303 85.42338562 89.32674599 C85.44777017 100.8982329 85.4683682 112.46971243 85.4751358 124.04122448 C85.4757945 125.1519233 85.4757945 125.1519233 85.47646651 126.28506048 C85.47712134 127.3983911 85.47712134 127.3983911 85.4777894 128.53421324 C85.47867633 130.03818969 85.47956945 131.54216614 85.48046875 133.04614258 C85.48091161 133.79216409 85.48135447 134.53818559 85.48181075 135.30681381 C85.48970349 147.38976221 85.52460176 159.47246913 85.57118779 171.55532428 C85.61865231 183.96643018 85.64354123 196.37741502 85.64587164 208.78861314 C85.64770321 215.75471384 85.65915796 222.7205 85.69551086 229.6865139 C85.72959401 236.24062035 85.73279051 242.794236 85.71523285 249.34844208 C85.71369129 251.75222941 85.72238848 254.15604872 85.74214935 256.55975533 C85.76757643 259.84577839 85.75584577 263.12968609 85.73498535 266.41569519 C85.75915457 267.83722115 85.75915457 267.83722115 85.78381205 269.2874648 C85.68083667 276.23952143 83.71955315 280.85811174 79 286 C74.16731711 290.21728387 69.11117111 290.57805494 62.98062134 290.52139282 C62.09485959 290.52904392 61.20909785 290.53669501 60.29649484 290.54457796 C57.34015987 290.56515061 54.38460814 290.5572711 51.42822266 290.54931641 C49.30388167 290.55801429 47.17954696 290.56838181 45.05522156 290.58029175 C39.29274805 290.60705582 33.53053702 290.60823091 27.76801348 290.60316515 C22.9544083 290.60102458 18.1408561 290.61079542 13.32726228 290.62037599 C1.96943657 290.64256096 -9.38825685 290.64344421 -20.74609375 290.63134766 C-32.45633579 290.61926738 -44.16609726 290.64389281 -55.8762573 290.68648779 C-65.93678421 290.72173439 -75.99715825 290.73372023 -86.05774462 290.72721231 C-92.06358637 290.72358849 -98.06908531 290.72883982 -104.07487106 290.75664139 C-109.72382438 290.78181299 -115.37202933 290.77789695 -121.0209713 290.75181961 C-123.09094815 290.74709204 -125.16097778 290.75254353 -127.23089409 290.76906586 C-146.04441518 290.90837806 -146.04441518 290.90837806 -152.3729496 285.96991539 C-157.68927106 279.53329642 -158.58546815 274.85220764 -158.5146637 266.68312073 C-158.52160922 265.65781264 -158.52855475 264.63250455 -158.53571075 263.57612652 C-158.55397664 260.14761499 -158.54371715 256.71979571 -158.53344727 253.29125977 C-158.5405059 250.83032717 -158.54925068 248.36939893 -158.55955505 245.90847778 C-158.57972768 239.9222137 -158.581075 233.93622054 -158.57292951 227.94995017 C-158.56662298 223.08317604 -158.56777251 218.21645731 -158.57420158 213.34968376 C-158.57510324 212.6563263 -158.57600489 211.96296884 -158.57693387 211.24860055 C-158.57878512 209.83993013 -158.58064769 208.43125972 -158.58252143 207.02258932 C-158.59909078 193.82044916 -158.59038817 180.61841595 -158.57353585 167.41628223 C-158.55884047 155.34579995 -158.57346642 143.27556662 -158.60230602 131.2051164 C-158.63171949 118.80181289 -158.64266658 106.39862421 -158.63312382 93.99528736 C-158.6321013 92.59156893 -158.63110668 91.18785048 -158.6301403 89.784132 C-158.62966391 89.09353094 -158.62918752 88.40292987 -158.6286967 87.6914015 C-158.62653509 82.83291002 -158.63632312 77.97452757 -158.65091133 73.11606026 C-158.67028785 66.5717698 -158.66332187 60.02786733 -158.63871193 53.4835701 C-158.63370086 51.0826039 -158.63720137 48.6816025 -158.64986038 46.28066444 C-158.6657828 43.00119805 -158.65084564 39.72325737 -158.62818909 36.44386292 C-158.64002482 35.49531246 -158.65186054 34.54676201 -158.66405493 33.5694676 C-158.55615749 25.87418673 -156.04948495 20.97129303 -150.5625 15.625 C-145.94755958 12.69845242 -141.64961009 11.74690546 -136.22924805 11.82397461 C-134.56172737 11.83774391 -134.56172737 11.83774391 -132.86051941 11.85179138 C-131.67291519 11.86847366 -130.48531097 11.88515594 -129.26171875 11.90234375 C-126.72461188 11.90640799 -124.18750075 11.90829321 -121.65039062 11.90820312 C-117.66647123 11.91630501 -113.68591146 11.93752345 -109.70239258 11.99633789 C-105.84611191 12.04767855 -101.9932411 12.04203894 -98.13671875 12.02734375 C-96.36442146 12.0736216 -96.36442146 12.0736216 -94.55632019 12.12083435 C-88.02066537 12.04571795 -84.58844997 11.30952551 -79.89453125 6.59130859 C-78.59572627 5.06140523 -77.29747913 3.53102795 -76 2 C-55.03901849 -14.82320203 -21.85158773 -14.92701882 0 0 Z M-74 25 C-81.38296726 35.02864596 -84 44.65789056 -84 57 C-52.65 57 -21.3 57 11 57 C11 41.93896729 6.69636935 31.24640675 -3.5390625 20.296875 C-14.13801323 10.40452098 -26.68477858 7.5775171 -40.7265625 7.78515625 C-53.98976883 8.25159929 -65.20264634 15.40288692 -74 25 Z M-140 31 C-140.09804809 34.09714258 -140.12990642 37.17200116 -140.12025452 40.26954651 C-140.12110894 41.25453705 -140.12196337 42.2395276 -140.12284368 43.25436634 C-140.12450147 46.58178635 -140.11897225 49.90915684 -140.11352539 53.23657227 C-140.11324356 55.6110738 -140.11340118 57.98557542 -140.1139679 60.3600769 C-140.11422605 66.1559002 -140.10987473 71.95170706 -140.10353024 77.74752659 C-140.0963963 84.48902125 -140.09488635 91.23051353 -140.09374207 97.97201144 C-140.09155123 109.99526046 -140.08489027 122.01850271 -140.07543945 134.04174805 C-140.06626616 145.72403937 -140.05919638 157.40632885 -140.05493164 169.08862305 C-140.05466364 169.81557328 -140.05439565 170.54252351 -140.05411953 171.29150254 C-140.05180681 177.61451849 -140.04965395 183.93753449 -140.04751682 190.2605505 C-140.03810026 217.50704004 -140.01818183 244.75351164 -140 272 C-71.69 272 -3.38 272 67 272 C67.02911338 229.19043061 67.02911338 229.19043061 67.04882812 186.38085938 C67.05078613 180.61678057 67.05280666 174.85270179 67.05493164 169.08862305 C67.05519539 168.36614346 67.05545914 167.64366388 67.05573088 166.89929098 C67.06008567 155.22020787 67.0679725 143.54112966 67.0771528 131.86204947 C67.08648908 119.88504351 67.09205555 107.90804013 67.09408849 95.93103069 C67.09534006 89.19999831 67.09836182 82.46897617 67.10573006 75.73794746 C67.11248605 69.41057933 67.11461783 63.08322696 67.11310768 56.75585556 C67.1133842 54.42612942 67.11539181 52.09640279 67.11920547 49.76667976 C67.12413615 46.60094889 67.12300061 43.43527861 67.12025452 40.26954651 C67.12316736 39.33474081 67.1260802 38.39993511 67.12908131 37.43680197 C67.5295858 33.3980028 67.5295858 33.3980028 66 30 C62.89748799 29.91125865 59.8173188 29.88481545 56.71484375 29.90234375 C55.78402481 29.9037587 54.85320587 29.90517365 53.8941803 29.90663147 C50.90858809 29.91224828 47.92306971 29.9248036 44.9375 29.9375 C42.91862087 29.94251284 40.89974057 29.94707612 38.88085938 29.95117188 C33.92054428 29.96222317 28.96028468 29.97949905 24 30 C24.28294922 31.00708008 24.56589844 32.01416016 24.85742188 33.05175781 C27.20929552 41.71382803 28.64076714 49.71744213 28.5 58.75 C28.52320313 60.30847656 28.52320313 60.30847656 28.546875 61.8984375 C28.50864782 69.2953977 28.50864782 69.2953977 26.09375 72.640625 C22.89802781 74.71545956 21.13724411 75.12726198 17.35136414 75.14044189 C15.88139481 75.14900711 15.88139481 75.14900711 14.38172913 75.15774536 C13.30273849 75.15886322 12.22374786 75.15998108 11.11206055 75.16113281 C9.41191803 75.16858017 9.41191803 75.16858017 7.6774292 75.17617798 C3.91385296 75.19082775 0.15031887 75.19760638 -3.61328125 75.203125 C-6.22161358 75.20887423 -8.8299459 75.21463199 -11.4382782 75.22039795 C-16.21304546 75.22997273 -20.98780358 75.23586737 -25.76257926 75.2388947 C-32.78874688 75.24337391 -39.81471982 75.26091434 -46.84082824 75.2898953 C-52.92662898 75.3141258 -59.01234941 75.3218395 -65.09819603 75.32357025 C-67.68699389 75.32660137 -70.27579083 75.33464527 -72.86455727 75.34775543 C-76.48448113 75.3647785 -80.10392949 75.36294449 -83.72387695 75.35644531 C-85.33325386 75.37026749 -85.33325386 75.37026749 -86.97514343 75.3843689 C-96.13695487 75.33274859 -96.13695487 75.33274859 -100 72 C-101.96622673 68.06754653 -101.27290856 63.1983852 -101.3125 58.875 C-101.34150391 57.87339844 -101.37050781 56.87179688 -101.40039062 55.83984375 C-101.47474684 46.76838564 -99.45491791 38.65845869 -97 30 C-102.96313166 29.97535426 -108.92623395 29.957166 -114.8894043 29.94506836 C-116.91968298 29.94002722 -118.94995802 29.93319443 -120.98022461 29.92456055 C-123.89177347 29.91248533 -126.8032745 29.90676966 -129.71484375 29.90234375 C-130.6283812 29.89718246 -131.54191864 29.89202118 -132.48313904 29.88670349 C-136.56390235 29.46643161 -136.56390235 29.46643161 -140 31 Z " fill="#14151A" transform="translate(186,10)"/>
<path d="M0 0 C0.89788239 -0.0049649 1.79576477 -0.00992981 2.72085571 -0.01504517 C5.69501509 -0.02966519 8.66912112 -0.03646867 11.64331055 -0.04199219 C13.70973207 -0.04774393 15.77615358 -0.05350166 17.84257507 -0.05926514 C22.17776742 -0.06977478 26.51294123 -0.07561764 30.84814453 -0.07910156 C36.39990203 -0.08458508 41.95141412 -0.10861033 47.50309467 -0.13707352 C51.77278863 -0.15570861 56.04242358 -0.16090597 60.31215477 -0.16243744 C62.35865813 -0.1654627 64.40516048 -0.17348696 66.45162392 -0.18662262 C69.31689682 -0.20370055 72.18157168 -0.20179848 75.046875 -0.1953125 C76.31187584 -0.20913467 76.31187584 -0.20913467 77.60243225 -0.22323608 C82.55169083 -0.18818755 85.91368622 0.44699237 90.2175293 3.16113281 C92.38975308 5.80557916 92.2164625 7.19100299 92.0925293 10.66113281 C91.1361487 14.48665519 90.34678496 15.83654289 87.2175293 18.16113281 C83.03356432 19.47236505 78.83235696 19.30877162 74.48925781 19.30639648 C73.60913025 19.3097551 72.72900269 19.31311371 71.82220459 19.3165741 C68.91360054 19.32607091 66.00505413 19.32802649 63.09643555 19.32910156 C61.0738879 19.33231473 59.05134049 19.33567885 57.02879333 19.33918762 C52.78953513 19.3451755 48.5502973 19.34702784 44.31103516 19.34643555 C38.87920876 19.34633388 33.44751294 19.35999267 28.01571751 19.37720776 C23.83871358 19.38832566 19.66174126 19.39035483 15.48472404 19.38982582 C13.48206062 19.391006 11.47939638 19.39542988 9.47674751 19.40315819 C6.67613696 19.41295491 3.87581043 19.41008137 1.07519531 19.40405273 C-0.16478966 19.41248199 -0.16478966 19.41248199 -1.42982483 19.42108154 C-7.00910626 19.39056143 -10.90267024 18.89252798 -15.1574707 14.97363281 C-16.7824707 12.16113281 -16.7824707 12.16113281 -16.7824707 8.59863281 C-15.70755666 4.90361578 -14.80518127 3.47261737 -11.7824707 1.16113281 C-7.85129547 -0.14925893 -4.09848012 0.00539379 0 0 Z " fill="#14151A" transform="translate(111.782470703125,134.8388671875)"/>
<path d="M0 0 C0.95815613 -0.01022186 1.91631226 -0.02044373 2.90350342 -0.03097534 C6.07207189 -0.05878494 9.23977123 -0.05685302 12.40844727 -0.05224609 C14.61035995 -0.06001893 16.81226963 -0.06868804 19.01417542 -0.07821655 C23.63015461 -0.09314458 28.24582789 -0.092556 32.86181641 -0.08203125 C38.77834847 -0.07043938 44.69362883 -0.10430535 50.60995388 -0.1507206 C55.15761134 -0.18017905 59.70496675 -0.1819411 64.25270271 -0.17570114 C66.43401634 -0.17672836 68.61534671 -0.18721886 70.79656792 -0.20732498 C73.8469777 -0.23199227 76.89494211 -0.21851447 79.9453125 -0.1953125 C80.84677505 -0.21059998 81.74823761 -0.22588745 82.67701721 -0.24163818 C88.60344024 -0.14196168 88.60344024 -0.14196168 91.23692513 1.80733109 C93.8097578 4.68598158 94.5328267 6.28676085 94.59985352 10.17431641 C93.46761344 13.7708437 92.46549746 15.2422939 89.53735352 17.54931641 C86.17363364 19.23117635 82.36900462 18.70571286 78.66894531 18.71044922 C77.75009552 18.71541412 76.83124573 18.72037903 75.884552 18.72549438 C72.83521789 18.74013701 69.78593581 18.74692176 66.73657227 18.75244141 C64.62148537 18.75819145 62.5063985 18.7639492 60.39131165 18.76971436 C55.95178992 18.78023054 51.51228634 18.78606906 47.07275391 18.78955078 C41.38298836 18.7950346 35.69346224 18.81905774 30.00377178 18.84752274 C25.63289184 18.86614397 21.2620696 18.87135446 16.89115334 18.87288666 C14.79358423 18.87591524 12.6960162 18.88395065 10.59848595 18.89707184 C7.66345378 18.91412021 4.72900686 18.91225486 1.79394531 18.90576172 C0.92674362 18.9149765 0.05954193 18.92419128 -0.8339386 18.9336853 C-5.54663645 18.90101403 -8.62067452 18.5868681 -12.46264648 15.54931641 C-14.56366243 12.87529611 -14.46111624 11.50646956 -14.33764648 8.04931641 C-12.29463495 -0.12272974 -7.35929734 -0.0403593 0 0 Z " fill="#14151A" transform="translate(109.462646484375,180.45068359375)"/>
</svg>
