<?xml version="1.0" encoding="UTF-8"?>
<svg version="1.1" xmlns="http://www.w3.org/2000/svg" width="300" height="300">
<path d="M0 0 C12.56985221 0.02789919 22.74101345 2.60489832 32.98242188 10.38037109 C32.98242188 11.04037109 32.98242188 11.70037109 32.98242188 12.38037109 C34.96242187 13.37037109 34.96242187 13.37037109 36.98242188 14.38037109 C36.98242188 15.04037109 36.98242188 15.70037109 36.98242188 16.38037109 C37.97242188 16.71037109 38.96242187 17.04037109 39.98242188 17.38037109 C50.56854974 30.85362475 52.3408169 45.91603368 52.10742188 62.56787109 C52.09839844 63.80601563 52.089375 65.04416016 52.08007812 66.31982422 C52.05675463 69.3402162 52.02402664 72.36018508 51.98242188 75.38037109 C52.99782547 75.37148865 54.01322906 75.3626062 55.05940247 75.35345459 C64.66555489 75.27208976 74.27163668 75.21227242 83.87805653 75.17312241 C88.81590539 75.15231776 93.75347431 75.12413137 98.69116211 75.07861328 C103.46335763 75.03490004 108.23528522 75.01118052 113.00766563 75.00086212 C114.82119649 74.99351622 116.634714 74.97917224 118.44812965 74.95745087 C131.37829993 74.80884189 142.44969273 75.14372077 152.33007812 84.57958984 C158.95415146 91.79873359 160.34506831 97.4443555 160.29492188 106.88037109 C160.29290771 107.90122803 160.29089355 108.92208496 160.28881836 109.97387695 C160.17933322 118.439635 159.1274919 126.55076287 157.70507812 134.88037109 C157.0528469 138.73395038 156.69489656 142.53695354 156.48242188 146.44287109 C156.17257709 151.77220145 155.48212746 156.93479716 154.60742188 162.19287109 C152.26503572 176.34191685 150.68346628 190.58748804 149.19726562 204.84912109 C149.00197266 206.71709351 149.00197266 206.71709351 148.80273438 208.62280273 C148.55438994 211.01992843 148.3106233 213.41753451 148.07226562 215.81567383 C147.46867833 221.68393131 146.69378169 227.40550023 145.39990234 233.16381836 C144.94498198 235.57915286 144.78547256 237.92706345 144.66992188 240.38037109 C144.16573396 246.09750188 141.8883366 250.50227401 138.98242188 255.38037109 C138.44617188 256.28787109 137.90992188 257.19537109 137.35742188 258.13037109 C126.32891516 268.57843008 114.05210677 267.22357812 99.71191406 267.125 C97.2389159 267.12986024 94.76592167 267.13730317 92.29293823 267.14712524 C86.29270015 267.16394205 80.29310912 267.15297376 74.29294583 267.12859936 C67.29894919 267.10125339 60.30506563 267.10464414 53.31102911 267.10886602 C40.83095171 267.11523373 28.35110327 267.09197656 15.87109375 267.05273438 C3.77141353 267.01469834 -8.32799864 267.00056924 -20.42773438 267.01171875 C-33.62187458 267.02384085 -46.81589719 267.02347085 -60.01002765 267.00074708 C-61.41731691 266.99833262 -62.82460618 266.99592064 -64.23189545 266.9935112 C-65.27038435 266.99170058 -65.27038435 266.99170058 -66.32985283 266.98985339 C-71.20135314 266.982105 -76.07280956 266.98287832 -80.94431305 266.98668289 C-87.50095598 266.99137584 -94.05730377 266.97423539 -100.61388779 266.9425621 C-103.02010297 266.93407646 -105.42635304 266.9323753 -107.83257675 266.9379425 C-111.11640277 266.94438776 -114.39920193 266.92622091 -117.68292236 266.90176392 C-118.63554813 266.90932256 -119.58817389 266.91688121 -120.5696671 266.92466891 C-126.5610914 266.84569861 -130.15966388 265.97435508 -135.01757812 262.38037109 C-140.53983298 255.68454666 -140.73738774 247.87096924 -140.66455078 239.56201172 C-140.67331238 238.31840378 -140.68207397 237.07479584 -140.69110107 235.79350281 C-140.70922962 232.4107547 -140.70513449 229.02955306 -140.68920565 225.64689445 C-140.67645286 222.08948731 -140.68831256 218.53214148 -140.69613647 214.97473145 C-140.70520602 209.00321743 -140.69331654 203.03201367 -140.66943359 197.06054688 C-140.64222709 190.1790812 -140.6510432 183.29835648 -140.67856562 176.41690874 C-140.70133317 170.48447644 -140.7044197 164.55226583 -140.69137228 158.61980391 C-140.68361944 155.08717695 -140.68241979 151.55489706 -140.69905472 148.02229309 C-140.71632212 144.08081779 -140.69231933 140.1401572 -140.66455078 136.19873047 C-140.67467194 135.04414841 -140.68479309 133.88956635 -140.69522095 132.69999695 C-140.59934721 125.32391642 -139.34779121 119.48024839 -135.01757812 113.38037109 C-128.02264041 107.08872277 -119.57087149 107.72492032 -110.70117188 107.89208984 C-109.23431105 107.90143299 -107.76743447 107.90854199 -106.30055237 107.91352844 C-102.4680864 107.93248084 -98.63659091 107.98147603 -94.80450439 108.03704834 C-90.88282392 108.08849792 -86.96098429 108.1110969 -83.0390625 108.13623047 C-75.36479532 108.18960971 -67.69132348 108.27477502 -60.01757812 108.38037109 C-59.71650146 107.44628418 -59.4154248 106.51219727 -59.10522461 105.54980469 C-58.03755107 102.43857285 -56.71911449 99.84970391 -55.08007812 97.00537109 C-53.20497007 93.66120028 -51.55108074 90.4314246 -50.26757812 86.81787109 C-49.01757812 83.38037109 -49.01757812 83.38037109 -47.01757812 81.38037109 C-46.30864779 79.75995889 -45.60490374 78.13701818 -44.93164062 76.50146484 C-43.15146202 72.37053756 -41.04918595 68.39178938 -39.01757812 64.38037109 C-37.01881493 60.39727814 -35.0304633 56.40910412 -33.05273438 52.41552734 C-27.12434203 40.46696729 -27.12434203 40.46696729 -24.20507812 35.38037109 C-22.63016996 32.62692427 -21.4049158 29.92794009 -20.33007812 26.94287109 C-19.01757812 23.38037109 -19.01757812 23.38037109 -17.01757812 21.38037109 C-16.33532143 19.81118069 -15.65802977 18.2396461 -15.00585938 16.65771484 C-13.74339782 13.74856431 -12.3582398 10.91174865 -10.95507812 8.06787109 C-10.44847656 7.04048828 -9.941875 6.01310547 -9.41992188 4.95458984 C-6.89613342 0.32178596 -5.15413016 0.10082241 0 0 Z M3.30664062 18.65771484 C1.71868852 20.72345784 0.8184442 22.92126719 -0.15429688 25.32568359 C-1.88596672 29.44721454 -4.00064038 33.39304031 -6.01757812 37.38037109 C-7.37427069 40.08744277 -8.72704157 42.79647064 -10.08007812 45.50537109 C-10.73756567 46.82050753 -11.39511661 48.13561227 -12.05273438 49.45068359 C-12.53782471 50.42086426 -12.53782471 50.42086426 -13.03271484 51.41064453 C-22.07454427 69.49430339 -31.1163737 87.57796224 -40.15820312 105.66162109 C-40.44111332 106.24317963 -40.72402351 106.82473816 -41.01550674 107.42391968 C-42.01757812 109.38037109 -42.01757812 109.38037109 -43.05819321 111.03237915 C-46.79278044 117.31101202 -46.55625533 123.35278252 -46.47167969 130.49755859 C-46.47226379 131.79595169 -46.4728479 133.09434479 -46.47344971 134.43208313 C-46.47459152 137.97097791 -46.45116987 141.50932398 -46.42315388 145.04809189 C-46.39805042 148.75428187 -46.39579121 152.46048616 -46.39105225 156.16674805 C-46.3786486 163.17542211 -46.34586272 170.18384487 -46.30565429 177.19240856 C-46.26085491 185.17547795 -46.23892908 193.15855971 -46.21887255 201.14172363 C-46.17712746 217.55475293 -46.1068267 233.96752988 -46.01757812 250.38037109 C-25.27707479 250.42710721 -4.53658014 250.46236785 16.20396519 250.48399544 C25.83431827 250.49430474 35.46463863 250.50835849 45.0949707 250.53125 C53.48949055 250.55119443 61.8839867 250.56409005 70.27852958 250.56854808 C74.72270419 250.57115367 79.16681097 250.57727079 83.61096382 250.59183121 C87.7961468 250.60543173 91.98123417 250.60958873 96.16643715 250.60658646 C97.70026927 250.60713551 99.23410466 250.61109823 100.76791763 250.61878204 C102.86753516 250.62878212 104.96679513 250.62632177 107.06642151 250.62088013 C108.23986398 250.62272371 109.41330645 250.6245673 110.62230778 250.62646675 C115.97177033 250.23467068 119.83313854 249.45303554 123.79492188 245.75537109 C126.35779641 242.25445097 127.29218485 238.6097646 127.98242188 234.38037109 C128.24152344 232.84703125 128.24152344 232.84703125 128.50585938 231.28271484 C129.44388688 225.25350907 130.09095034 219.28542395 130.41992188 213.19287109 C130.7423836 207.60847218 131.4284094 202.20878186 132.36132812 196.69677734 C134.05426493 186.33353098 135.28970028 175.93600771 136.48242188 165.50537109 C137.75474132 154.50168672 139.0303132 143.51497979 140.73242188 132.56787109 C141.77172064 125.68843005 142.44076511 118.82603939 142.85742188 111.88037109 C142.91897461 111.00018311 142.98052734 110.11999512 143.04394531 109.21313477 C143.32469588 103.29939089 142.39566907 100.19582616 138.48242188 95.63037109 C134.67526513 92.45774047 129.74578312 93.22830309 125.07641602 93.22265625 C124.16556747 93.21757553 123.25471893 93.21249481 122.31626892 93.20726013 C120.33721441 93.19655585 118.3581478 93.1879359 116.379076 93.1811409 C113.24821243 93.16936073 110.11748734 93.14991103 106.98667908 93.12802124 C98.08467194 93.06636855 89.18267946 93.012314 80.28051758 92.97900391 C74.83695382 92.95808539 69.39364324 92.92280669 63.95022392 92.87824631 C61.87420057 92.86406566 59.79813243 92.85535923 57.72206306 92.85219193 C54.82037895 92.84729566 51.91936976 92.82417151 49.01782227 92.796875 C48.15794708 92.79988113 47.2980719 92.80288727 46.41213989 92.8059845 C42.9400153 92.75735864 40.57695869 92.68218697 37.44885254 91.09420776 C34.90885962 88.12568486 35.44161538 84.44439252 35.47851562 80.72412109 C35.46909439 79.86661255 35.45967316 79.009104 35.44996643 78.12561035 C35.42126837 75.37695654 35.41823698 72.62916258 35.41992188 69.88037109 C35.68332254 47.02180592 35.68332254 47.02180592 24.98242188 27.38037109 C24.32242188 27.38037109 23.66242188 27.38037109 22.98242188 27.38037109 C22.48742187 25.89537109 22.48742187 25.89537109 21.98242188 24.38037109 C17.86421088 20.83997031 8.40896205 14.76853278 3.30664062 18.65771484 Z M-121.01757812 125.38037109 C-123.53533001 127.89812298 -123.27022179 128.71828463 -123.27827454 132.2010498 C-123.28535934 133.21902145 -123.29244415 134.2369931 -123.29974365 135.28581238 C-123.29726624 136.4069191 -123.29478882 137.52802582 -123.29223633 138.68310547 C-123.29734726 139.86036697 -123.30245819 141.03762848 -123.307724 142.25056458 C-123.31926507 145.48399613 -123.32169003 148.71726922 -123.3191607 151.95071602 C-123.31809281 154.64721863 -123.32296959 157.34369746 -123.32776612 160.04019499 C-123.33886956 166.39953603 -123.33929382 172.75881801 -123.33325195 179.11816406 C-123.32720823 185.68589599 -123.33953119 192.25341389 -123.36082202 198.82110929 C-123.37841407 204.4542692 -123.38444325 210.08736082 -123.38118428 215.7205472 C-123.37936766 219.08753558 -123.38204508 222.45437125 -123.39589882 225.82133484 C-123.40816893 229.57360561 -123.40152827 233.3253746 -123.38989258 237.07763672 C-123.39753632 238.19874344 -123.40518005 239.31985016 -123.41305542 240.47492981 C-123.40604111 241.49290146 -123.39902679 242.51087311 -123.39179993 243.55969238 C-123.39196767 244.44754677 -123.39213541 245.33540115 -123.39230824 246.25016022 C-123.2686473 246.95312981 -123.14498636 247.6560994 -123.01757812 248.38037109 C-106.3673298 259.48053664 -83.02868615 250.38037109 -63.01757812 250.38037109 C-63.01757812 209.13037109 -63.01757812 167.88037109 -63.01757812 125.38037109 C-82.15757813 125.38037109 -101.29757813 125.38037109 -121.01757812 125.38037109 Z " fill="#14151A" transform="translate(140.017578125,16.61962890625)"/>
</svg>
