<svg version="1.1" id="Layer_1" xmlns="http://www.w3.org/2000/svg" xmlns:xlink="http://www.w3.org/1999/xlink" x="0px" y="0px"
	 width="100%" viewBox="0 0 111 100" enable-background="new 0 0 111 100" xml:space="preserve">
<path fill="#14151A" opacity="1.000000" stroke="none" 
	d="
M15.999999,101.000000 
	C11.029750,101.000000 6.059499,101.000000 1.000000,101.000000 
	C1.000000,81.645851 1.000000,62.291584 1.359536,42.356659 
	C4.480955,34.325813 6.980812,26.764341 10.083468,19.458881 
	C12.812045,13.034223 13.554722,5.452817 20.000000,1.000000 
	C44.020893,1.000000 68.041786,1.000000 92.627327,1.344870 
	C94.504738,2.992589 96.315720,4.066113 97.040085,5.639799 
	C99.561073,11.116709 101.710243,16.765009 103.991997,22.351732 
	C106.666145,28.899191 109.331070,35.450413 112.000000,42.000000 
	C112.000000,61.547508 112.000000,81.095016 112.000000,101.000000 
	C107.321167,101.000000 102.633247,101.000000 97.357414,100.621613 
	C95.900513,96.929054 95.031532,93.614876 94.137947,90.206863 
	C69.059853,90.206863 43.708839,90.206863 18.985455,90.206863 
	C17.923897,94.044647 16.961946,97.522324 15.999999,101.000000 
M17.043337,35.666672 
	C16.038137,38.663040 15.032937,41.659409 14.012300,44.701786 
	C42.469585,44.701786 70.643562,44.701786 99.014412,44.701786 
	C95.522522,35.054317 92.306213,25.670969 88.623726,16.474285 
	C87.995949,14.906468 85.384956,13.171566 83.668518,13.148824 
	C65.537437,12.908593 47.401081,12.923147 29.269241,13.132611 
	C27.657753,13.151227 25.233398,14.673490 24.612537,16.112589 
	C21.950520,22.282902 19.822416,28.683556 17.043337,35.666672 
M30.418165,71.050926 
	C30.778521,70.705276 31.180315,70.393272 31.492565,70.008575 
	C33.659561,67.338799 35.196404,64.060829 32.552895,61.397701 
	C30.507036,59.336658 26.518095,56.897533 24.529905,57.646122 
	C21.792713,58.676727 18.706675,62.434380 18.468548,65.251816 
	C18.289454,67.370811 22.106274,70.196533 24.644945,72.004723 
	C25.746143,72.789055 28.105560,71.806877 30.418165,71.050926 
M94.997131,64.604607 
	C94.044189,62.945862 93.323288,61.084351 92.088821,59.671604 
	C89.698235,56.935768 86.643761,55.854355 83.460152,58.255722 
	C80.402420,60.562149 77.362503,63.525131 80.149490,67.575203 
	C81.724724,69.864349 84.670692,72.580353 87.055954,72.635139 
	C91.080360,72.727562 94.017555,69.666809 94.997131,64.604607 
z"/>
<path fill="#FFFFFF" opacity="1.000000" stroke="none" 
	d="
M16.468657,101.000000 
	C16.961946,97.522324 17.923897,94.044647 18.985455,90.206863 
	C43.708839,90.206863 69.059853,90.206863 94.137947,90.206863 
	C95.031532,93.614876 95.900513,96.929054 96.884750,100.621613 
	C70.312439,101.000000 43.624878,101.000000 16.468657,101.000000 
z"/>
<path fill="#FFFFFF" opacity="1.000000" stroke="none" 
	d="
M19.530624,1.000000 
	C13.554722,5.452817 12.812045,13.034223 10.083468,19.458881 
	C6.980812,26.764341 4.480955,34.325813 1.359536,41.888000 
	C1.000000,28.434111 1.000000,14.868222 1.000000,1.000000 
	C7.017043,1.000000 13.039145,1.000000 19.530624,1.000000 
z"/>
<path fill="#FFFFFF" opacity="1.000000" stroke="none" 
	d="
M112.000000,41.531342 
	C109.331070,35.450413 106.666145,28.899191 103.991997,22.351732 
	C101.710243,16.765009 99.561073,11.116709 97.040085,5.639799 
	C96.315720,4.066113 94.504738,2.992589 93.095985,1.344870 
	C99.286781,1.000000 105.573570,1.000000 112.000000,1.000000 
	C112.000000,14.353956 112.000000,27.708319 112.000000,41.531342 
z"/>
<path fill="#FFFFFF" opacity="1.000000" stroke="none" 
	d="
M17.271523,35.333462 
	C19.822416,28.683556 21.950520,22.282902 24.612537,16.112589 
	C25.233398,14.673490 27.657753,13.151227 29.269241,13.132611 
	C47.401081,12.923147 65.537437,12.908593 83.668518,13.148824 
	C85.384956,13.171566 87.995949,14.906468 88.623726,16.474285 
	C92.306213,25.670969 95.522522,35.054317 99.014412,44.701786 
	C70.643562,44.701786 42.469585,44.701786 14.012300,44.701786 
	C15.032937,41.659409 16.038137,38.663040 17.271523,35.333462 
z"/>
<path fill="#FFFFFF" opacity="1.000000" stroke="none" 
	d="
M30.155823,71.338997 
	C28.105560,71.806877 25.746143,72.789055 24.644945,72.004723 
	C22.106274,70.196533 18.289454,67.370811 18.468548,65.251816 
	C18.706675,62.434380 21.792713,58.676727 24.529905,57.646122 
	C26.518095,56.897533 30.507036,59.336658 32.552895,61.397701 
	C35.196404,64.060829 33.659561,67.338799 31.492565,70.008575 
	C31.180315,70.393272 30.778521,70.705276 30.155823,71.338997 
z"/>
<path fill="#FFFFFF" opacity="1.000000" stroke="none" 
	d="
M94.997154,64.998138 
	C94.017555,69.666809 91.080360,72.727562 87.055954,72.635139 
	C84.670692,72.580353 81.724724,69.864349 80.149490,67.575203 
	C77.362503,63.525131 80.402420,60.562149 83.460152,58.255722 
	C86.643761,55.854355 89.698235,56.935768 92.088821,59.671604 
	C93.323288,61.084351 94.044189,62.945862 94.997154,64.998138 
z"/>
</svg>