<svg version="1.1" id="Layer_1" xmlns="http://www.w3.org/2000/svg" xmlns:xlink="http://www.w3.org/1999/xlink" x="0px" y="0px"
	 width="100%" viewBox="0 0 2364 311" enable-background="new 0 0 2364 311" xml:space="preserve">
<path fill="#FFFFFF" opacity="1.000000" stroke="none" 
	d="
M2365.000000,282.000000 
	C2365.000000,291.998169 2365.000000,301.996338 2365.000000,311.997253 
	C1632.635742,312.000000 900.271484,312.000000 167.542297,311.660797 
	C167.432846,310.530884 167.688370,309.740204 168.342270,308.971344 
	C172.725723,307.345123 176.720428,305.719910 180.694199,304.045044 
	C196.701233,297.298279 213.255249,295.694885 230.006485,300.107208 
	C238.211792,302.268524 245.987534,306.060577 254.092209,309.407837 
	C254.790939,309.621338 255.355179,309.541595 255.919403,309.461853 
	C255.650406,308.959808 255.381424,308.457794 255.058960,307.605133 
	C251.858994,304.194977 248.889694,300.923553 245.532562,298.115845 
	C235.708939,289.899902 224.631409,284.187378 211.574188,284.093323 
	C197.679718,283.993256 186.190445,290.311920 176.192307,299.428467 
	C173.112610,302.236633 170.744354,305.825043 167.739578,309.366974 
	C164.966522,309.746857 162.504242,309.815918 159.855667,309.553894 
	C139.095779,303.286377 118.522171,297.349945 97.125076,291.175934 
	C98.432373,289.524414 99.180084,288.308105 100.182114,287.360809 
	C104.624290,283.161285 108.893387,278.728180 113.672455,274.944580 
	C130.901459,261.304352 149.639450,250.564087 171.510437,246.223404 
	C182.697006,244.003220 194.279343,242.796524 205.206375,245.388474 
	C233.223679,252.034256 260.942688,259.939423 288.773376,267.369476 
	C304.576294,271.588440 320.511353,275.565277 336.962524,274.848267 
	C350.861603,274.242462 364.695801,272.233826 378.571960,270.994415 
	C394.436859,269.577393 410.299866,268.033997 426.196930,267.128693 
	C433.580566,266.708221 441.042511,267.940552 448.469238,267.944519 
	C465.607208,267.953705 482.244141,271.088989 498.744812,275.318298 
	C500.359772,275.732239 502.064758,275.794922 503.727966,276.020691 
	C503.381226,274.346191 502.723907,273.483826 501.854950,273.007721 
	C495.747650,269.661591 489.764496,266.022125 483.428955,263.171539 
	C462.651093,253.822968 440.595947,249.676804 417.990417,249.173706 
	C404.993744,248.884476 391.951294,250.227036 378.943207,251.052353 
	C372.243256,251.477432 365.579742,252.880585 358.888855,252.963318 
	C343.058044,253.159042 327.141876,253.748535 311.413025,252.398407 
	C300.402740,251.453293 289.572571,247.833801 278.800018,244.901459 
	C271.825562,243.002975 265.100159,240.189590 257.476837,237.509750 
	C260.362457,235.244431 262.474548,233.699951 264.461517,232.008560 
	C280.122803,218.677063 298.615234,211.954422 318.737976,210.156281 
	C336.029175,208.611176 353.211670,210.779282 369.503632,216.985306 
	C383.561646,222.340332 397.236115,228.699310 411.103760,234.558594 
	C415.175446,236.278946 419.327698,237.808655 423.443024,239.425751 
	C423.668396,238.922058 423.893768,238.418381 424.119141,237.914703 
	C423.242798,236.980225 422.430420,235.972870 421.472229,235.131653 
	C420.502960,234.280716 419.356537,233.635468 418.343933,232.829453 
	C406.214081,223.174454 393.093506,215.147095 378.867157,208.980453 
	C375.656464,207.588730 373.862152,206.106750 373.873291,201.948227 
	C374.052643,134.965851 374.000000,67.982857 374.000000,1.000000 
	C1037.666626,1.000000 1701.333374,1.000000 2365.000000,1.000000 
	C2365.000000,10.429864 2365.000000,19.761299 2364.531250,29.546368 
	C2305.492920,30.000000 2246.923340,30.000000 2188.332520,30.000000 
	C2188.332520,114.249954 2188.332520,198.060745 2188.332520,282.000000 
	C2247.443115,282.000000 2306.221680,282.000000 2365.000000,282.000000 
M1325.000000,144.729370 
	C1324.616089,162.142334 1324.945435,179.462402 1330.636475,196.226669 
	C1338.918091,220.622650 1352.413208,241.203217 1373.255615,256.873566 
	C1392.768555,271.544128 1414.785034,279.750305 1438.768921,281.729553 
	C1453.268921,282.926178 1467.928955,282.453979 1482.504028,279.200043 
	C1505.156494,274.142822 1525.062500,264.178833 1541.883667,248.461563 
	C1558.515137,232.921646 1574.535400,216.724930 1590.744629,200.735962 
	C1620.360718,171.521820 1649.918945,142.248917 1679.499146,112.998314 
	C1681.276611,111.240685 1682.961670,109.382156 1684.817383,107.712517 
	C1688.841064,104.092163 1692.684326,100.195786 1697.066895,97.063599 
	C1713.482910,85.331245 1731.774170,81.910606 1751.620361,84.933052 
	C1770.467163,87.803253 1785.842651,96.797150 1796.414917,112.238274 
	C1809.879517,131.904129 1813.357056,153.856934 1807.054321,177.172302 
	C1802.539429,193.873596 1793.372314,207.403885 1779.072144,216.868103 
	C1762.781006,227.649887 1744.531494,230.415955 1725.392334,226.978134 
	C1703.458130,223.038208 1687.181152,211.193329 1676.855591,191.396729 
	C1668.789551,175.932129 1667.354980,159.487198 1669.980225,142.486084 
	C1670.455200,139.409882 1670.740845,136.304428 1671.268188,131.933624 
	C1669.360840,133.438324 1668.576416,133.950180 1667.918579,134.591843 
	C1653.648560,148.508743 1639.405518,162.453186 1625.115845,176.349609 
	C1623.606445,177.817368 1621.559204,178.792404 1620.255737,180.397446 
	C1618.287964,182.820694 1614.856201,186.071960 1615.372925,188.140381 
	C1617.416382,196.320709 1620.174561,204.447113 1623.729614,212.100189 
	C1632.090942,230.099243 1644.323486,245.014297 1660.349487,256.992035 
	C1679.903442,271.606506 1701.917480,279.588501 1725.911743,281.786316 
	C1736.211182,282.729706 1746.739014,281.571503 1757.137573,280.944427 
	C1771.643677,280.069702 1785.288818,275.669220 1798.203125,269.251526 
	C1812.831177,261.982178 1825.750000,252.478317 1836.673828,240.052429 
	C1845.687378,229.799759 1852.823853,218.435715 1857.790039,206.011673 
	C1866.260376,184.821152 1868.897583,162.680023 1866.124023,139.827332 
	C1864.374146,125.409782 1860.567627,111.716751 1854.229370,98.782829 
	C1846.618408,83.251907 1836.024658,70.063889 1822.600098,58.944798 
	C1799.302612,39.648354 1772.286621,30.879015 1742.555176,30.197281 
	C1732.174316,29.959251 1721.687988,31.620985 1711.344849,33.085987 
	C1695.997925,35.259682 1682.278564,41.849003 1668.900879,49.458801 
	C1654.459839,57.673485 1644.400513,70.759003 1632.278320,81.514931 
	C1618.006104,94.178673 1604.750244,107.992317 1591.128174,121.383240 
	C1567.641968,144.471024 1544.240112,167.644516 1520.745850,190.724136 
	C1512.944946,198.387253 1504.978394,205.881805 1497.058472,213.422958 
	C1496.372437,214.076172 1495.441650,214.464264 1494.669556,215.036285 
	C1477.656250,227.639099 1458.503662,230.492966 1438.172485,226.946564 
	C1417.010498,223.255264 1401.404297,211.449448 1391.024658,192.815628 
	C1382.579590,177.654770 1380.449585,161.441971 1382.886230,144.256104 
	C1385.499146,125.826851 1393.312622,110.070984 1407.891235,98.964394 
	C1432.091309,80.527748 1459.105225,78.239578 1486.032593,91.889603 
	C1510.334229,104.208504 1521.826660,125.900146 1522.845093,152.839920 
	C1523.172363,161.496521 1521.677612,170.221985 1520.959595,179.662552 
	C1540.983154,163.075928 1558.037842,143.540237 1577.070923,125.786453 
	C1576.752319,124.755257 1576.309937,123.556900 1576.011353,122.323769 
	C1568.482300,91.244232 1550.491333,67.270851 1524.077759,50.230148 
	C1498.682617,33.846504 1470.354614,27.697029 1439.983887,30.843058 
	C1427.490356,32.137238 1415.476562,34.470299 1403.729126,38.926270 
	C1374.980957,49.830841 1353.646973,69.081749 1339.071289,95.888382 
	C1330.974365,110.779640 1326.972046,127.017395 1325.000000,144.729370 
M1966.000000,174.500000 
	C1966.000000,161.010483 1966.000000,147.520966 1966.000000,134.031464 
	C1971.836670,139.042023 1976.422852,144.320862 1981.068237,149.546875 
	C1989.363770,158.878922 1997.681885,168.191116 2006.014771,177.489960 
	C2020.605469,193.772491 2035.182007,210.068100 2049.827393,226.301407 
	C2060.085693,237.671921 2070.489014,248.911652 2080.745117,260.284149 
	C2084.685791,264.653839 2088.190918,269.430542 2092.282227,273.645355 
	C2095.293457,276.747223 2098.725586,281.241791 2102.335938,281.619293 
	C2112.670654,282.700012 2123.191406,281.999695 2133.633301,281.999695 
	C2133.633301,197.735092 2133.633301,113.897766 2133.633301,30.364712 
	C2114.862305,30.364712 2096.458496,30.364712 2077.704102,30.364712 
	C2077.704102,80.096634 2077.704102,129.464157 2077.704102,179.107742 
	C2076.869629,178.804001 2076.299072,178.774307 2076.036377,178.474747 
	C2066.850342,168.004272 2057.760742,157.448669 2048.515137,147.031311 
	C2036.949219,133.999619 2025.253174,121.083397 2013.623291,108.108429 
	C2002.215210,95.381256 1990.821777,82.641022 1979.418091,69.910034 
	C1968.017212,57.182095 1956.624146,44.447300 1945.178345,31.759996 
	C1944.471436,30.976374 1943.339233,30.090889 1942.395752,30.080530 
	C1931.643799,29.962473 1920.890137,30.005508 1910.298218,30.005508 
	C1910.298218,114.364014 1910.298218,198.083954 1910.298218,281.703583 
	C1928.999756,281.703583 1947.401611,281.703583 1966.000000,281.703583 
	C1966.000000,246.105026 1966.000000,210.802505 1966.000000,174.500000 
M727.497253,239.000000 
	C731.995605,239.000015 736.506958,238.809418 740.984680,239.113495 
	C742.370483,239.207611 744.417908,240.346313 744.885193,241.516678 
	C749.751526,253.705566 754.341797,266.004425 759.048462,278.257507 
	C759.976074,280.672577 761.240295,282.216034 764.447632,282.103668 
	C773.099854,281.800537 781.769714,282.000000 790.432556,282.000000 
	C799.892273,282.000000 809.351929,282.000000 820.689636,282.000000 
	C787.040894,197.261810 753.066833,113.842743 719.859985,30.000286 
	C703.640564,30.000286 687.655334,29.938299 671.672974,30.121485 
	C670.434509,30.135679 668.589600,31.613289 668.082825,32.845272 
	C661.563538,48.692890 655.230103,64.617073 648.862305,80.526917 
	C640.890747,100.443886 632.971436,120.381836 624.955933,140.281082 
	C614.723877,165.683563 604.404297,191.050812 594.148499,216.443756 
	C585.403870,238.094910 576.696045,259.760956 567.738525,282.000000 
	C569.618225,282.000000 571.053589,282.000000 572.488953,282.000000 
	C589.481506,282.000000 606.477356,281.821320 623.464050,282.136932 
	C627.280090,282.207794 628.643860,280.487122 629.739197,277.637756 
	C634.162903,266.128906 638.846924,254.707306 642.800781,243.038651 
	C643.967957,239.593979 645.381409,238.936722 648.532532,238.947891 
	C674.520813,239.040024 700.509583,239.000000 727.497253,239.000000 
M1052.000000,100.500000 
	C1052.000000,77.077019 1052.000000,53.654041 1052.000000,30.275642 
	C1032.706787,30.275642 1013.972961,30.275642 995.000000,30.275642 
	C995.000000,32.356922 995.000000,34.164776 995.000000,35.972630 
	C995.000000,81.288284 995.030579,126.603989 994.956177,171.919510 
	C994.948120,176.826965 994.770752,181.811050 993.916748,186.625641 
	C991.446289,200.553223 984.895996,212.208527 973.080505,220.347931 
	C963.622742,226.863144 952.898193,228.602402 941.555359,228.062805 
	C929.817688,227.504456 919.673706,222.923416 911.688782,214.895386 
	C900.726074,203.873444 896.169922,189.613449 896.088623,174.299774 
	C895.842957,127.985817 896.000000,81.669731 896.000000,35.354469 
	C896.000000,33.604252 896.000000,31.854031 896.000000,30.336426 
	C876.917664,30.336426 858.515747,30.336426 840.000000,30.336426 
	C840.000000,80.311371 839.974243,129.949997 840.044373,179.588516 
	C840.050598,184.002289 840.212219,188.511551 841.097961,192.812469 
	C846.023254,216.728012 855.391846,238.245209 873.711487,255.373474 
	C890.739868,271.294342 910.955505,279.850586 933.711853,281.718109 
	C945.232910,282.663635 957.216614,281.869781 968.606201,279.772095 
	C999.690369,274.047119 1022.959717,256.876190 1038.006714,228.892700 
	C1047.897583,210.498260 1051.761108,190.623154 1051.951904,169.972839 
	C1052.162720,147.150345 1052.000000,124.324425 1052.000000,100.500000 
M1221.400391,282.000000 
	C1223.174072,282.000000 1224.947754,282.000000 1227.088745,282.000000 
	C1227.088745,215.772141 1227.088745,150.049408 1227.088745,83.938370 
	C1253.531250,83.938370 1279.600830,83.938370 1305.185547,83.938370 
	C1305.185547,65.738228 1305.185547,47.944641 1305.185547,30.292004 
	C1233.316650,30.292004 1162.262451,30.292004 1091.289673,30.292004 
	C1091.289673,48.320232 1091.289673,66.055046 1091.289673,84.177124 
	C1117.645020,84.177124 1143.712769,84.177124 1170.151123,84.177124 
	C1170.151123,150.290359 1170.151123,216.013153 1170.151123,282.000000 
	C1187.158569,282.000000 1203.790894,282.000000 1221.400391,282.000000 
z"/>
<path fill="#0054FF" opacity="1.000000" stroke="none" 
	d="
M373.531342,1.000000 
	C374.000000,67.982857 374.052643,134.965851 373.873291,201.948227 
	C373.862152,206.106750 375.656464,207.588730 378.867157,208.980453 
	C393.093506,215.147095 406.214081,223.174454 418.343933,232.829453 
	C419.356537,233.635468 420.502960,234.280716 421.472229,235.131653 
	C422.430420,235.972870 423.242798,236.980225 424.119141,237.914703 
	C423.893768,238.418381 423.668396,238.922058 423.443024,239.425751 
	C419.327698,237.808655 415.175446,236.278946 411.103760,234.558594 
	C397.236115,228.699310 383.561646,222.340332 369.503632,216.985306 
	C353.211670,210.779282 336.029175,208.611176 318.737976,210.156281 
	C298.615234,211.954422 280.122803,218.677063 264.461517,232.008560 
	C262.474548,233.699951 260.362457,235.244431 257.476837,237.509750 
	C265.100159,240.189590 271.825562,243.002975 278.800018,244.901459 
	C289.572571,247.833801 300.402740,251.453293 311.413025,252.398407 
	C327.141876,253.748535 343.058044,253.159042 358.888855,252.963318 
	C365.579742,252.880585 372.243256,251.477432 378.943207,251.052353 
	C391.951294,250.227036 404.993744,248.884476 417.990417,249.173706 
	C440.595947,249.676804 462.651093,253.822968 483.428955,263.171539 
	C489.764496,266.022125 495.747650,269.661591 501.854950,273.007721 
	C502.723907,273.483826 503.381226,274.346191 503.727966,276.020691 
	C502.064758,275.794922 500.359772,275.732239 498.744812,275.318298 
	C482.244141,271.088989 465.607208,267.953705 448.469238,267.944519 
	C441.042511,267.940552 433.580566,266.708221 426.196930,267.128693 
	C410.299866,268.033997 394.436859,269.577393 378.571960,270.994415 
	C364.695801,272.233826 350.861603,274.242462 336.962524,274.848267 
	C320.511353,275.565277 304.576294,271.588440 288.773376,267.369476 
	C260.942688,259.939423 233.223679,252.034256 205.206375,245.388474 
	C194.279343,242.796524 182.697006,244.003220 171.510437,246.223404 
	C149.639450,250.564087 130.901459,261.304352 113.672455,274.944580 
	C108.893387,278.728180 104.624290,283.161285 100.182114,287.360809 
	C99.180084,288.308105 98.432373,289.524414 97.125076,291.175934 
	C118.522171,297.349945 139.095779,303.286377 159.843750,309.906281 
	C160.012054,311.059845 160.006027,311.529907 160.000000,312.000000 
	C108.328140,312.000000 56.656265,312.007446 4.984450,311.958130 
	C3.655996,311.956848 2.328136,311.333344 1.329903,310.414124 
	C8.334511,302.132874 15.109088,294.521393 21.660175,286.722198 
	C31.136955,275.439850 40.407040,263.984100 49.850071,252.673111 
	C57.421692,243.603699 65.168381,234.680511 72.748833,225.618362 
	C82.309105,214.189346 91.735802,202.648560 101.304413,191.226593 
	C107.314629,184.052246 113.549355,177.065948 119.557724,169.890076 
	C127.440414,160.475693 135.155807,150.921326 143.025986,141.496323 
	C148.811813,134.567459 154.789276,127.798637 160.575745,120.870316 
	C168.446808,111.446053 176.169540,101.897881 184.044525,92.476936 
	C191.515381,83.539490 199.165771,74.751884 206.618683,65.799698 
	C215.833633,54.730965 224.919250,43.554623 234.073868,32.435562 
	C242.707077,21.949770 251.357269,11.477954 260.000000,0.999998 
	C297.687561,1.000000 335.375122,1.000000 373.531342,1.000000 
M282.503754,75.997566 
	C281.178101,77.657394 279.870789,79.332260 278.523926,80.974693 
	C267.834534,94.009911 257.084808,106.996094 246.458771,120.082703 
	C236.981903,131.754044 227.624664,143.522705 218.243896,155.271774 
	C214.037109,160.540634 209.901688,165.866455 205.382294,171.613480 
	C242.520126,171.613480 278.703918,171.613480 314.762909,171.613480 
	C314.762909,136.621826 314.762909,102.017075 314.762909,67.000000 
	C310.244659,67.000000 305.899261,67.428513 301.670563,66.908417 
	C293.533813,65.907669 286.867828,67.458786 282.503754,75.997566 
z"/>
<path fill="#FFFFFF" opacity="1.000000" stroke="none" 
	d="
M259.531342,0.999998 
	C251.357269,11.477954 242.707077,21.949770 234.073868,32.435562 
	C224.919250,43.554623 215.833633,54.730965 206.618683,65.799698 
	C199.165771,74.751884 191.515381,83.539490 184.044525,92.476936 
	C176.169540,101.897881 168.446808,111.446053 160.575745,120.870316 
	C154.789276,127.798637 148.811813,134.567459 143.025986,141.496323 
	C135.155807,150.921326 127.440414,160.475693 119.557724,169.890076 
	C113.549355,177.065948 107.314629,184.052246 101.304413,191.226593 
	C91.735802,202.648560 82.309105,214.189346 72.748833,225.618362 
	C65.168381,234.680511 57.421692,243.603699 49.850071,252.673111 
	C40.407040,263.984100 31.136955,275.439850 21.660175,286.722198 
	C15.109088,294.521393 8.334511,302.132874 1.329904,309.914124 
	C1.000000,207.079376 1.000000,104.158760 1.000000,1.000000 
	C87.020744,1.000000 173.041718,1.000000 259.531342,0.999998 
z"/>
<path fill="#000000" opacity="1.000000" stroke="none" 
	d="
M2365.000000,281.531342 
	C2306.221680,282.000000 2247.443115,282.000000 2188.332520,282.000000 
	C2188.332520,198.060745 2188.332520,114.249954 2188.332520,30.000000 
	C2246.923340,30.000000 2305.492920,30.000000 2364.531250,30.000000 
	C2365.000000,47.687561 2365.000000,65.375122 2364.531250,83.531342 
	C2324.128174,84.000000 2284.193848,84.000000 2244.270020,84.000000 
	C2244.270020,95.606194 2244.270020,106.678497 2244.270020,118.146973 
	C2275.611572,118.146973 2306.685303,118.146973 2337.722168,118.146973 
	C2337.722168,135.954422 2337.722168,153.359756 2337.722168,171.162445 
	C2306.372803,171.162445 2275.299316,171.162445 2244.285645,171.162445 
	C2244.285645,190.636490 2244.285645,209.708542 2244.285645,229.000000 
	C2284.713867,229.000000 2324.856934,229.000000 2365.000000,229.000000 
	C2365.000000,246.354233 2365.000000,263.708466 2365.000000,281.531342 
z"/>
<path fill="#FFFFFF" opacity="1.000000" stroke="none" 
	d="
M2365.000000,228.531342 
	C2324.856934,229.000000 2284.713867,229.000000 2244.285645,229.000000 
	C2244.285645,209.708542 2244.285645,190.636490 2244.285645,171.162445 
	C2275.299316,171.162445 2306.372803,171.162445 2337.722168,171.162445 
	C2337.722168,153.359756 2337.722168,135.954422 2337.722168,118.146973 
	C2306.685303,118.146973 2275.611572,118.146973 2244.270020,118.146973 
	C2244.270020,106.678497 2244.270020,95.606194 2244.270020,84.000000 
	C2284.193848,84.000000 2324.128174,84.000000 2364.531250,84.000000 
	C2365.000000,132.020889 2365.000000,180.041794 2365.000000,228.531342 
z"/>
<path fill="#0054FF" opacity="1.000000" stroke="none" 
	d="
M160.437500,312.000000 
	C160.006027,311.529907 160.012054,311.059845 160.030029,310.237366 
	C162.504242,309.815918 164.966522,309.746857 167.713547,309.339722 
	C167.998276,309.001678 167.943893,308.949493 167.943893,308.949493 
	C167.688370,309.740204 167.432846,310.530884 167.088654,311.660797 
	C164.958328,312.000000 162.916672,312.000000 160.437500,312.000000 
z"/>
<path fill="#000000" opacity="1.000000" stroke="none" 
	d="
M1325.000000,144.255432 
	C1326.972046,127.017395 1330.974365,110.779640 1339.071289,95.888382 
	C1353.646973,69.081749 1374.980957,49.830841 1403.729126,38.926270 
	C1415.476562,34.470299 1427.490356,32.137238 1439.983887,30.843058 
	C1470.354614,27.697029 1498.682617,33.846504 1524.077759,50.230148 
	C1550.491333,67.270851 1568.482300,91.244232 1576.011353,122.323769 
	C1576.309937,123.556900 1576.752319,124.755257 1577.070923,125.786453 
	C1558.037842,143.540237 1540.983154,163.075928 1520.959595,179.662552 
	C1521.677612,170.221985 1523.172363,161.496521 1522.845093,152.839920 
	C1521.826660,125.900146 1510.334229,104.208504 1486.032593,91.889603 
	C1459.105225,78.239578 1432.091309,80.527748 1407.891235,98.964394 
	C1393.312622,110.070984 1385.499146,125.826851 1382.886230,144.256104 
	C1380.449585,161.441971 1382.579590,177.654770 1391.024658,192.815628 
	C1401.404297,211.449448 1417.010498,223.255264 1438.172485,226.946564 
	C1458.503662,230.492966 1477.656250,227.639099 1494.669556,215.036285 
	C1495.441650,214.464264 1496.372437,214.076172 1497.058472,213.422958 
	C1504.978394,205.881805 1512.944946,198.387253 1520.745850,190.724136 
	C1544.240112,167.644516 1567.641968,144.471024 1591.128174,121.383240 
	C1604.750244,107.992317 1618.006104,94.178673 1632.278320,81.514931 
	C1644.400513,70.759003 1654.459839,57.673485 1668.900879,49.458801 
	C1682.278564,41.849003 1695.997925,35.259682 1711.344849,33.085987 
	C1721.687988,31.620985 1732.174316,29.959251 1742.555176,30.197281 
	C1772.286621,30.879015 1799.302612,39.648354 1822.600098,58.944798 
	C1836.024658,70.063889 1846.618408,83.251907 1854.229370,98.782829 
	C1860.567627,111.716751 1864.374146,125.409782 1866.124023,139.827332 
	C1868.897583,162.680023 1866.260376,184.821152 1857.790039,206.011673 
	C1852.823853,218.435715 1845.687378,229.799759 1836.673828,240.052429 
	C1825.750000,252.478317 1812.831177,261.982178 1798.203125,269.251526 
	C1785.288818,275.669220 1771.643677,280.069702 1757.137573,280.944427 
	C1746.739014,281.571503 1736.211182,282.729706 1725.911743,281.786316 
	C1701.917480,279.588501 1679.903442,271.606506 1660.349487,256.992035 
	C1644.323486,245.014297 1632.090942,230.099243 1623.729614,212.100189 
	C1620.174561,204.447113 1617.416382,196.320709 1615.372925,188.140381 
	C1614.856201,186.071960 1618.287964,182.820694 1620.255737,180.397446 
	C1621.559204,178.792404 1623.606445,177.817368 1625.115845,176.349609 
	C1639.405518,162.453186 1653.648560,148.508743 1667.918579,134.591843 
	C1668.576416,133.950180 1669.360840,133.438324 1671.268188,131.933624 
	C1670.740845,136.304428 1670.455200,139.409882 1669.980225,142.486084 
	C1667.354980,159.487198 1668.789551,175.932129 1676.855591,191.396729 
	C1687.181152,211.193329 1703.458130,223.038208 1725.392334,226.978134 
	C1744.531494,230.415955 1762.781006,227.649887 1779.072144,216.868103 
	C1793.372314,207.403885 1802.539429,193.873596 1807.054321,177.172302 
	C1813.357056,153.856934 1809.879517,131.904129 1796.414917,112.238274 
	C1785.842651,96.797150 1770.467163,87.803253 1751.620361,84.933052 
	C1731.774170,81.910606 1713.482910,85.331245 1697.066895,97.063599 
	C1692.684326,100.195786 1688.841064,104.092163 1684.817383,107.712517 
	C1682.961670,109.382156 1681.276611,111.240685 1679.499146,112.998314 
	C1649.918945,142.248917 1620.360718,171.521820 1590.744629,200.735962 
	C1574.535400,216.724930 1558.515137,232.921646 1541.883667,248.461563 
	C1525.062500,264.178833 1505.156494,274.142822 1482.504028,279.200043 
	C1467.928955,282.453979 1453.268921,282.926178 1438.768921,281.729553 
	C1414.785034,279.750305 1392.768555,271.544128 1373.255615,256.873566 
	C1352.413208,241.203217 1338.918091,220.622650 1330.636475,196.226669 
	C1324.945435,179.462402 1324.616089,162.142334 1325.000000,144.255432 
z"/>
<path fill="#000000" opacity="1.000000" stroke="none" 
	d="
M1966.000000,175.000000 
	C1966.000000,210.802505 1966.000000,246.105026 1966.000000,281.703583 
	C1947.401611,281.703583 1928.999756,281.703583 1910.298218,281.703583 
	C1910.298218,198.083954 1910.298218,114.364014 1910.298218,30.005508 
	C1920.890137,30.005508 1931.643799,29.962473 1942.395752,30.080530 
	C1943.339233,30.090889 1944.471436,30.976374 1945.178345,31.759996 
	C1956.624146,44.447300 1968.017212,57.182095 1979.418091,69.910034 
	C1990.821777,82.641022 2002.215210,95.381256 2013.623291,108.108429 
	C2025.253174,121.083397 2036.949219,133.999619 2048.515137,147.031311 
	C2057.760742,157.448669 2066.850342,168.004272 2076.036377,178.474747 
	C2076.299072,178.774307 2076.869629,178.804001 2077.704102,179.107742 
	C2077.704102,129.464157 2077.704102,80.096634 2077.704102,30.364712 
	C2096.458496,30.364712 2114.862305,30.364712 2133.633301,30.364712 
	C2133.633301,113.897766 2133.633301,197.735092 2133.633301,281.999695 
	C2123.191406,281.999695 2112.670654,282.700012 2102.335938,281.619293 
	C2098.725586,281.241791 2095.293457,276.747223 2092.282227,273.645355 
	C2088.190918,269.430542 2084.685791,264.653839 2080.745117,260.284149 
	C2070.489014,248.911652 2060.085693,237.671921 2049.827393,226.301407 
	C2035.182007,210.068100 2020.605469,193.772491 2006.014771,177.489960 
	C1997.681885,168.191116 1989.363770,158.878922 1981.068237,149.546875 
	C1976.422852,144.320862 1971.836670,139.042023 1966.000000,134.031464 
	C1966.000000,147.520966 1966.000000,161.010483 1966.000000,175.000000 
z"/>
<path fill="#000000" opacity="1.000000" stroke="none" 
	d="
M726.997681,239.000000 
	C700.509583,239.000000 674.520813,239.040024 648.532532,238.947891 
	C645.381409,238.936722 643.967957,239.593979 642.800781,243.038651 
	C638.846924,254.707306 634.162903,266.128906 629.739197,277.637756 
	C628.643860,280.487122 627.280090,282.207794 623.464050,282.136932 
	C606.477356,281.821320 589.481506,282.000000 572.488953,282.000000 
	C571.053589,282.000000 569.618225,282.000000 567.738525,282.000000 
	C576.696045,259.760956 585.403870,238.094910 594.148499,216.443756 
	C604.404297,191.050812 614.723877,165.683563 624.955933,140.281082 
	C632.971436,120.381836 640.890747,100.443886 648.862305,80.526917 
	C655.230103,64.617073 661.563538,48.692890 668.082825,32.845272 
	C668.589600,31.613289 670.434509,30.135679 671.672974,30.121485 
	C687.655334,29.938299 703.640564,30.000286 719.859985,30.000286 
	C753.066833,113.842743 787.040894,197.261810 820.689636,282.000000 
	C809.351929,282.000000 799.892273,282.000000 790.432556,282.000000 
	C781.769714,282.000000 773.099854,281.800537 764.447632,282.103668 
	C761.240295,282.216034 759.976074,280.672577 759.048462,278.257507 
	C754.341797,266.004425 749.751526,253.705566 744.885193,241.516678 
	C744.417908,240.346313 742.370483,239.207611 740.984680,239.113495 
	C736.506958,238.809418 731.995605,239.000015 726.997681,239.000000 
M672.000366,167.468964 
	C669.650879,173.524780 667.301392,179.580582 664.934814,185.680389 
	C684.511047,185.680389 703.694885,185.680389 723.563965,185.680389 
	C713.832275,160.527344 704.298401,135.885681 694.344421,110.158127 
	C686.577759,129.831711 679.307495,148.247818 672.000366,167.468964 
z"/>
<path fill="#000000" opacity="1.000000" stroke="none" 
	d="
M1052.000000,101.000000 
	C1052.000000,124.324425 1052.162720,147.150345 1051.951904,169.972839 
	C1051.761108,190.623154 1047.897583,210.498260 1038.006714,228.892700 
	C1022.959717,256.876190 999.690369,274.047119 968.606201,279.772095 
	C957.216614,281.869781 945.232910,282.663635 933.711853,281.718109 
	C910.955505,279.850586 890.739868,271.294342 873.711487,255.373474 
	C855.391846,238.245209 846.023254,216.728012 841.097961,192.812469 
	C840.212219,188.511551 840.050598,184.002289 840.044373,179.588516 
	C839.974243,129.949997 840.000000,80.311371 840.000000,30.336426 
	C858.515747,30.336426 876.917664,30.336426 896.000000,30.336426 
	C896.000000,31.854031 896.000000,33.604252 896.000000,35.354469 
	C896.000000,81.669731 895.842957,127.985817 896.088623,174.299774 
	C896.169922,189.613449 900.726074,203.873444 911.688782,214.895386 
	C919.673706,222.923416 929.817688,227.504456 941.555359,228.062805 
	C952.898193,228.602402 963.622742,226.863144 973.080505,220.347931 
	C984.895996,212.208527 991.446289,200.553223 993.916748,186.625641 
	C994.770752,181.811050 994.948120,176.826965 994.956177,171.919510 
	C995.030579,126.603989 995.000000,81.288284 995.000000,35.972630 
	C995.000000,34.164776 995.000000,32.356922 995.000000,30.275642 
	C1013.972961,30.275642 1032.706787,30.275642 1052.000000,30.275642 
	C1052.000000,53.654041 1052.000000,77.077019 1052.000000,101.000000 
z"/>
<path fill="#000000" opacity="1.000000" stroke="none" 
	d="
M1220.911865,282.000000 
	C1203.790894,282.000000 1187.158569,282.000000 1170.151123,282.000000 
	C1170.151123,216.013153 1170.151123,150.290359 1170.151123,84.177124 
	C1143.712769,84.177124 1117.645020,84.177124 1091.289673,84.177124 
	C1091.289673,66.055046 1091.289673,48.320232 1091.289673,30.292004 
	C1162.262451,30.292004 1233.316650,30.292004 1305.185547,30.292004 
	C1305.185547,47.944641 1305.185547,65.738228 1305.185547,83.938370 
	C1279.600830,83.938370 1253.531250,83.938370 1227.088745,83.938370 
	C1227.088745,150.049408 1227.088745,215.772141 1227.088745,282.000000 
	C1224.947754,282.000000 1223.174072,282.000000 1220.911865,282.000000 
z"/>
<path fill="#0054FF" opacity="1.000000" stroke="none" 
	d="
M168.024307,309.028931 
	C170.744354,305.825043 173.112610,302.236633 176.192307,299.428467 
	C186.190445,290.311920 197.679718,283.993256 211.574188,284.093323 
	C224.631409,284.187378 235.708939,289.899902 245.532562,298.115845 
	C248.889694,300.923553 251.858994,304.194977 254.807877,307.733429 
	C254.392746,308.513092 254.175217,308.813843 253.957703,309.114594 
	C245.987534,306.060577 238.211792,302.268524 230.006485,300.107208 
	C213.255249,295.694885 196.701233,297.298279 180.694199,304.045044 
	C176.720428,305.719910 172.725723,307.345123 168.342270,308.971344 
	C167.943893,308.949493 167.998276,309.001678 168.024307,309.028931 
z"/>
<path fill="#0054FF" opacity="1.000000" stroke="none" 
	d="
M254.092209,309.407837 
	C254.175217,308.813843 254.392746,308.513092 254.861343,308.084045 
	C255.381424,308.457794 255.650406,308.959808 255.919403,309.461853 
	C255.355179,309.541595 254.790939,309.621338 254.092209,309.407837 
z"/>
<path fill="#FFFFFF" opacity="1.000000" stroke="none" 
	d="
M282.759338,75.738159 
	C286.867828,67.458786 293.533813,65.907669 301.670563,66.908417 
	C305.899261,67.428513 310.244659,67.000000 314.762909,67.000000 
	C314.762909,102.017075 314.762909,136.621826 314.762909,171.613480 
	C278.703918,171.613480 242.520126,171.613480 205.382294,171.613480 
	C209.901688,165.866455 214.037109,160.540634 218.243896,155.271774 
	C227.624664,143.522705 236.981903,131.754044 246.458771,120.082703 
	C257.084808,106.996094 267.834534,94.009911 278.523926,80.974693 
	C279.870789,79.332260 281.178101,77.657394 282.759338,75.738159 
z"/>
<path fill="#FFFFFF" opacity="1.000000" stroke="none" 
	d="
M672.018799,167.066437 
	C679.307495,148.247818 686.577759,129.831711 694.344421,110.158127 
	C704.298401,135.885681 713.832275,160.527344 723.563965,185.680389 
	C703.694885,185.680389 684.511047,185.680389 664.934814,185.680389 
	C667.301392,179.580582 669.650879,173.524780 672.018799,167.066437 
z"/>
</svg>