<svg version="1.1" id="Layer_1" xmlns="http://www.w3.org/2000/svg" xmlns:xlink="http://www.w3.org/1999/xlink" x="0px" y="0px"
	 width="100%" viewBox="0 0 243 300" enable-background="new 0 0 243 300" xml:space="preserve">
<path fill="#14151A" opacity="1.000000" stroke="none" 
	d="
M1.000000,289.000000 
	C1.000000,204.312439 1.000000,119.624878 1.363304,34.466743 
	C2.161786,33.814560 2.802038,33.758865 3.002168,33.432930 
	C8.082815,25.158480 15.807701,22.756554 25.024666,22.942339 
	C36.811905,23.179932 48.631599,22.538847 60.391674,23.151863 
	C69.156204,23.608728 76.702003,22.563545 81.908157,14.650470 
	C82.399658,13.903417 83.394554,13.409830 84.250237,12.992173 
	C92.488571,8.971039 100.747185,4.991467 109.000000,1.000000 
	C117.020905,1.000000 125.041809,1.000000 133.668228,1.379384 
	C135.737885,1.931520 137.268906,1.886158 138.655594,2.311462 
	C149.950760,5.775755 160.451874,10.675222 168.314392,19.883696 
	C170.459106,22.395531 172.870743,23.091078 176.064178,23.063389 
	C192.035782,22.924896 208.010010,22.909458 223.981689,23.044254 
	C230.434372,23.098715 235.866577,25.845398 240.132034,30.690321 
	C241.572845,32.326851 242.719131,34.222672 244.000000,35.999996 
	C244.000000,120.687561 244.000000,205.375122 243.637985,290.533264 
	C240.324646,294.176361 235.936951,296.159729 235.000000,301.000000 
	C161.312439,301.000000 87.624878,301.000000 13.385420,300.657471 
	C8.889015,296.543304 4.944507,292.771637 1.000000,289.000000 
M226.000000,114.500000 
	C226.000000,91.672188 225.976013,68.844322 226.029617,46.016636 
	C226.036514,43.078495 226.019592,40.869411 221.956619,40.929832 
	C209.132446,41.120564 196.303650,41.000191 182.928833,41.000191 
	C188.083221,52.144070 188.307159,63.710548 188.036377,75.381119 
	C187.846619,83.559395 184.608963,86.990257 176.455719,86.996651 
	C161.459244,87.008408 146.462784,87.000000 131.466309,87.000000 
	C110.471245,87.000000 89.476173,87.007622 68.481117,86.996101 
	C60.536743,86.991737 57.119881,83.528748 56.973145,75.817520 
	C56.748650,64.019943 56.771622,52.280449 62.087124,41.000004 
	C49.133591,41.000004 36.801556,41.193710 24.481266,40.898029 
	C19.990864,40.790260 18.905748,42.254284 18.912489,46.579735 
	C19.032976,123.894699 18.998699,201.209900 19.010078,278.525055 
	C19.010290,279.957825 19.161236,281.390564 19.234907,282.699951 
	C88.337379,282.699951 157.062469,282.699951 226.000000,282.699951 
	C226.000000,226.766769 226.000000,171.133377 226.000000,114.500000 
M102.683075,23.033295 
	C82.363869,32.180477 73.596832,53.670460 75.551285,67.772774 
	C106.924141,67.772774 138.302185,67.772774 170.295395,67.772774 
	C169.770935,63.145302 169.868057,58.641476 168.686005,54.503006 
	C163.635162,36.819527 152.187210,24.977917 134.376221,20.312925 
	C124.027176,17.602341 113.394196,17.728319 102.683075,23.033295 
z"/>
<path fill="#FFFFFF" opacity="1.000000" stroke="none" 
	d="
M244.000000,35.531338 
	C242.719131,34.222672 241.572845,32.326851 240.132034,30.690321 
	C235.866577,25.845398 230.434372,23.098715 223.981689,23.044254 
	C208.010010,22.909458 192.035782,22.924896 176.064178,23.063389 
	C172.870743,23.091078 170.459106,22.395531 168.314392,19.883696 
	C160.451874,10.675222 149.950760,5.775755 138.655594,2.311462 
	C137.268906,1.886158 135.737885,1.931520 134.136871,1.379384 
	C170.555710,1.000000 207.111404,1.000000 244.000000,1.000000 
	C244.000000,12.352059 244.000000,23.707371 244.000000,35.531338 
z"/>
<path fill="#FFFFFF" opacity="1.000000" stroke="none" 
	d="
M108.531342,1.000000 
	C100.747185,4.991467 92.488571,8.971039 84.250237,12.992173 
	C83.394554,13.409830 82.399658,13.903417 81.908157,14.650470 
	C76.702003,22.563545 69.156204,23.608728 60.391674,23.151863 
	C48.631599,22.538847 36.811905,23.179932 25.024666,22.942339 
	C15.807701,22.756554 8.082815,25.158480 3.002168,33.432930 
	C2.802038,33.758865 2.161786,33.814560 1.363304,33.998085 
	C1.000000,23.034239 1.000000,12.068476 1.000000,1.000000 
	C36.687500,1.000000 72.375092,1.000000 108.531342,1.000000 
z"/>
<path fill="#FFFFFF" opacity="1.000000" stroke="none" 
	d="
M1.000000,289.479187 
	C4.944507,292.771637 8.889015,296.543304 12.916761,300.657471 
	C9.078021,301.000000 5.156042,301.000000 1.000000,301.000000 
	C1.000000,297.321411 1.000000,293.639893 1.000000,289.479187 
z"/>
<path fill="#FFFFFF" opacity="1.000000" stroke="none" 
	d="
M235.491058,301.000000 
	C235.936951,296.159729 240.324646,294.176361 243.637985,291.001892 
	C244.000000,294.246460 244.000000,297.492950 244.000000,301.000000 
	C241.330307,301.000000 238.656204,301.000000 235.491058,301.000000 
z"/>
<path fill="#FFFFFF" opacity="1.000000" stroke="none" 
	d="
M226.000000,115.000000 
	C226.000000,171.133377 226.000000,226.766769 226.000000,282.699951 
	C157.062469,282.699951 88.337379,282.699951 19.234907,282.699951 
	C19.161236,281.390564 19.010290,279.957825 19.010078,278.525055 
	C18.998699,201.209900 19.032976,123.894699 18.912489,46.579735 
	C18.905748,42.254284 19.990864,40.790260 24.481266,40.898029 
	C36.801556,41.193710 49.133591,41.000004 62.087124,41.000004 
	C56.771622,52.280449 56.748650,64.019943 56.973145,75.817520 
	C57.119881,83.528748 60.536743,86.991737 68.481117,86.996101 
	C89.476173,87.007622 110.471245,87.000000 131.466309,87.000000 
	C146.462784,87.000000 161.459244,87.008408 176.455719,86.996651 
	C184.608963,86.990257 187.846619,83.559395 188.036377,75.381119 
	C188.307159,63.710548 188.083221,52.144070 182.928833,41.000191 
	C196.303650,41.000191 209.132446,41.120564 221.956619,40.929832 
	C226.019592,40.869411 226.036514,43.078495 226.029617,46.016636 
	C225.976013,68.844322 226.000000,91.672188 226.000000,115.000000 
M127.500000,155.000000 
	C139.978348,154.999969 152.457306,155.074173 164.934769,154.969055 
	C171.314545,154.915329 176.698883,150.728958 176.998474,145.947845 
	C177.266846,141.665451 173.293427,137.174500 168.143570,136.118469 
	C166.863525,135.855988 165.494431,136.003799 164.166260,136.003540 
	C138.876831,135.998734 113.587402,135.999954 88.297974,136.000031 
	C84.970421,136.000046 81.634895,135.854568 78.317177,136.035370 
	C73.380463,136.304382 69.822960,138.869156 68.249466,143.520905 
	C66.865723,147.611710 69.320541,150.791595 72.411980,152.673279 
	C74.864441,154.166000 78.150322,154.860916 81.080231,154.901855 
	C96.217659,155.113220 111.359619,155.000000 127.500000,155.000000 
M95.500069,182.000000 
	C89.177689,182.000015 82.853241,181.913010 76.534462,182.063843 
	C75.035110,182.099640 73.251869,182.558823 72.124947,183.472015 
	C69.239525,185.810242 66.818413,188.734833 68.372070,192.792709 
	C70.121994,197.363205 73.449104,200.021057 78.621956,200.013199 
	C99.585564,199.981400 120.549263,200.000015 141.512924,200.000000 
	C149.998215,200.000000 158.484406,200.074158 166.968491,199.973526 
	C172.504349,199.907852 177.149780,195.293533 176.999039,190.285172 
	C176.859756,185.657944 172.395554,182.000748 166.878052,182.000473 
	C143.418716,181.999359 119.959373,182.000000 95.500069,182.000000 
z"/>
<path fill="#FFFFFF" opacity="1.000000" stroke="none" 
	d="
M103.073059,22.991028 
	C113.394196,17.728319 124.027176,17.602341 134.376221,20.312925 
	C152.187210,24.977917 163.635162,36.819527 168.686005,54.503006 
	C169.868057,58.641476 169.770935,63.145302 170.295395,67.772774 
	C138.302185,67.772774 106.924141,67.772774 75.551285,67.772774 
	C73.596832,53.670460 82.363869,32.180477 103.073059,22.991028 
z"/>
<path fill="#14151A" opacity="1.000000" stroke="none" 
	d="
M127.000000,155.000000 
	C111.359619,155.000000 96.217659,155.113220 81.080231,154.901855 
	C78.150322,154.860916 74.864441,154.166000 72.411980,152.673279 
	C69.320541,150.791595 66.865723,147.611710 68.249466,143.520905 
	C69.822960,138.869156 73.380463,136.304382 78.317177,136.035370 
	C81.634895,135.854568 84.970421,136.000046 88.297974,136.000031 
	C113.587402,135.999954 138.876831,135.998734 164.166260,136.003540 
	C165.494431,136.003799 166.863525,135.855988 168.143570,136.118469 
	C173.293427,137.174500 177.266846,141.665451 176.998474,145.947845 
	C176.698883,150.728958 171.314545,154.915329 164.934769,154.969055 
	C152.457306,155.074173 139.978348,154.999969 127.000000,155.000000 
z"/>
<path fill="#14151A" opacity="1.000000" stroke="none" 
	d="
M96.000053,182.000000 
	C119.959373,182.000000 143.418716,181.999359 166.878052,182.000473 
	C172.395554,182.000748 176.859756,185.657944 176.999039,190.285172 
	C177.149780,195.293533 172.504349,199.907852 166.968491,199.973526 
	C158.484406,200.074158 149.998215,200.000000 141.512924,200.000000 
	C120.549263,200.000015 99.585564,199.981400 78.621956,200.013199 
	C73.449104,200.021057 70.121994,197.363205 68.372070,192.792709 
	C66.818413,188.734833 69.239525,185.810242 72.124947,183.472015 
	C73.251869,182.558823 75.035110,182.099640 76.534462,182.063843 
	C82.853241,181.913010 89.177689,182.000015 96.000053,182.000000 
z"/>
</svg>