<svg version="1.1" id="Layer_1" xmlns="http://www.w3.org/2000/svg" xmlns:xlink="http://www.w3.org/1999/xlink" x="0px" y="0px"
	 width="100%" viewBox="0 0 300 206" enable-background="new 0 0 300 206" xml:space="preserve">
<path fill="#FFFFFF" opacity="1.000000" stroke="none" 
	d="
M1.000000,193.000000 
	C1.000000,164.979111 1.000000,136.958206 1.335150,108.562317 
	C4.023495,109.791283 6.365373,112.773315 8.731580,112.792747 
	C44.870296,113.089508 81.012207,113.013680 117.153320,112.976120 
	C120.588203,112.972549 124.741959,108.842827 124.998497,105.485222 
	C125.582695,97.839180 121.531075,94.014481 112.688957,94.008118 
	C83.043236,93.986771 53.397423,94.033234 23.751787,93.977684 
	C15.904602,93.962975 7.979806,93.230537 1.000000,98.000000 
	C1.000000,70.312439 1.000000,42.624878 1.335169,14.562483 
	C4.638138,18.053806 8.501756,19.102533 13.366135,19.094893 
	C97.306847,18.963034 181.247849,18.982571 265.188721,19.043470 
	C270.204437,19.047110 274.680878,18.819159 277.203278,13.438280 
	C279.769012,7.965002 276.341736,4.831140 273.141388,1.474442 
	C273.039948,1.368060 273.044708,1.160433 273.000000,1.000001 
	C282.314728,1.000000 291.629486,1.000000 301.000000,1.000000 
	C301.000000,64.687553 301.000000,128.375122 300.674194,192.445114 
	C290.328674,182.816956 280.299622,172.815689 270.299530,162.785492 
	C268.842682,161.324265 267.105347,160.295090 268.915527,157.437592 
	C276.418060,145.594193 279.312775,132.865417 277.135498,118.670792 
	C273.318512,93.786118 253.589935,74.345177 228.852417,71.194611 
	C208.527222,68.606003 191.237625,75.580032 177.853729,91.588326 
	C165.822678,105.978485 162.038116,122.674095 166.383713,140.351044 
	C175.457367,177.260681 216.782883,195.821320 250.346054,175.706772 
	C253.806763,173.632751 255.079361,174.481079 257.271210,176.712219 
	C265.563080,185.152786 274.011230,193.439743 282.308075,201.875504 
	C283.767151,203.358978 284.780701,205.280685 286.000000,207.000000 
	C239.312439,207.000000 192.624878,207.000000 145.474915,206.629547 
	C146.224808,202.909088 148.667206,199.447098 148.374619,196.234161 
	C147.877365,190.773132 142.772644,188.009552 135.750763,188.006882 
	C97.637878,187.992416 59.524921,188.037659 21.412165,187.966949 
	C14.139717,187.953461 6.823676,187.331100 1.000000,193.000000 
z"/>
<path fill="#0078FF" opacity="1.000000" stroke="none" 
	d="
M286.472656,207.000000 
	C284.780701,205.280685 283.767151,203.358978 282.308075,201.875504 
	C274.011230,193.439743 265.563080,185.152786 257.271210,176.712219 
	C255.079361,174.481079 253.806763,173.632751 250.346054,175.706772 
	C216.782883,195.821320 175.457367,177.260681 166.383713,140.351044 
	C162.038116,122.674095 165.822678,105.978485 177.853729,91.588326 
	C191.237625,75.580032 208.527222,68.606003 228.852417,71.194611 
	C253.589935,74.345177 273.318512,93.786118 277.135498,118.670792 
	C279.312775,132.865417 276.418060,145.594193 268.915527,157.437592 
	C267.105347,160.295090 268.842682,161.324265 270.299530,162.785492 
	C280.299622,172.815689 290.328674,182.816956 300.674194,192.913773 
	C301.000000,197.593750 301.000000,202.187500 301.000000,207.000000 
	C296.316559,207.000000 291.630951,207.000000 286.472656,207.000000 
M222.427200,165.000000 
	C225.008087,164.666016 227.674713,164.639771 230.156082,163.948532 
	C247.273773,159.179962 256.266113,148.897018 258.776733,131.917755 
	C261.469086,113.709412 248.924362,94.309799 228.845490,90.709435 
	C206.538727,86.709595 186.147964,101.128098 184.132294,124.391090 
	C182.232742,146.313766 199.315384,164.851227 222.427200,165.000000 
z"/>
<path fill="#0078FF" opacity="1.000000" stroke="none" 
	d="
M272.531342,1.000001 
	C273.044708,1.160433 273.039948,1.368060 273.141388,1.474442 
	C276.341736,4.831140 279.769012,7.965002 277.203278,13.438280 
	C274.680878,18.819159 270.204437,19.047110 265.188721,19.043470 
	C181.247849,18.982571 97.306847,18.963034 13.366135,19.094893 
	C8.501756,19.102533 4.638138,18.053806 1.335169,14.093826 
	C1.000000,10.969407 1.000000,7.938814 1.376868,4.446093 
	C2.169157,2.989310 2.584578,1.994655 3.000000,1.000000 
	C92.687561,1.000000 182.375122,1.000000 272.531342,1.000001 
z"/>
<path fill="#0078FF" opacity="1.000000" stroke="none" 
	d="
M1.000000,193.474121 
	C6.823676,187.331100 14.139717,187.953461 21.412165,187.966949 
	C59.524921,188.037659 97.637878,187.992416 135.750763,188.006882 
	C142.772644,188.009552 147.877365,190.773132 148.374619,196.234161 
	C148.667206,199.447098 146.224808,202.909088 145.006256,206.629547 
	C96.999985,207.000000 48.999962,207.000000 1.000000,207.000000 
	C1.000000,202.590271 1.000000,198.269257 1.000000,193.474121 
z"/>
<path fill="#0078FF" opacity="1.000000" stroke="none" 
	d="
M1.000000,98.454109 
	C7.979806,93.230537 15.904602,93.962975 23.751787,93.977684 
	C53.397423,94.033234 83.043236,93.986771 112.688957,94.008118 
	C121.531075,94.014481 125.582695,97.839180 124.998497,105.485222 
	C124.741959,108.842827 120.588203,112.972549 117.153320,112.976120 
	C81.012207,113.013680 44.870296,113.089508 8.731580,112.792747 
	C6.365373,112.773315 4.023495,109.791283 1.335150,108.093658 
	C1.000000,104.969406 1.000000,101.938812 1.000000,98.454109 
z"/>
<path fill="#FFFFFF" opacity="1.000000" stroke="none" 
	d="
M2.500000,1.000000 
	C2.584578,1.994655 2.169157,2.989310 1.376868,3.991982 
	C1.333333,3.000000 1.666667,2.000000 2.500000,1.000000 
z"/>
<path fill="#FFFFFF" opacity="1.000000" stroke="none" 
	d="
M221.963593,165.000000 
	C199.315384,164.851227 182.232742,146.313766 184.132294,124.391090 
	C186.147964,101.128098 206.538727,86.709595 228.845490,90.709435 
	C248.924362,94.309799 261.469086,113.709412 258.776733,131.917755 
	C256.266113,148.897018 247.273773,159.179962 230.156082,163.948532 
	C227.674713,164.639771 225.008087,164.666016 221.963593,165.000000 
z"/>
</svg>