<svg version="1.1" id="Layer_1" xmlns="http://www.w3.org/2000/svg" xmlns:xlink="http://www.w3.org/1999/xlink" x="0px" y="0px"
	 width="100%" viewBox="0 0 300 300" enable-background="new 0 0 300 300" xml:space="preserve">
<path fill="#FFFFFF" opacity="1.000000" stroke="none" 
	d="
M301.000000,64.000000 
	C301.000000,143.000015 301.000000,222.000031 301.000000,301.000000 
	C292.910583,301.000000 284.923981,301.000000 276.475983,300.633362 
	C276.407715,299.836121 276.724213,299.273346 277.205292,298.994690 
	C284.904449,294.535645 289.098541,288.180725 289.048279,278.984192 
	C288.908997,253.490662 289.000000,227.995850 289.000000,202.501541 
	C288.999969,187.504898 289.054810,172.507950 288.977142,157.511719 
	C288.937256,149.808090 281.670898,145.446182 274.699097,148.723022 
	C269.168823,151.322296 269.105072,156.546509 269.085968,161.307709 
	C268.932373,199.631851 269.000000,237.956909 269.000000,276.281677 
	C269.000000,278.060791 269.000000,279.839905 269.000000,282.000000 
	C266.690613,282.000000 264.894928,282.000000 263.099243,282.000000 
	C184.283524,282.000000 105.467819,282.000275 26.652103,281.999573 
	C20.004784,281.999512 20.000700,281.996552 20.000622,275.550507 
	C19.999670,196.901413 19.999975,118.252327 20.000046,39.603241 
	C20.000051,32.678894 19.999725,32.939869 26.921511,32.956207 
	C65.246063,33.046680 103.571953,33.121571 141.894058,32.802494 
	C145.549149,32.772064 149.769882,30.689262 152.653961,28.275787 
	C155.386032,25.989517 155.321762,21.486965 153.572540,18.434725 
	C151.619583,15.026996 148.423462,12.892819 143.784866,12.910643 
	C103.461151,13.065580 63.136471,13.046533 22.812368,12.952855 
	C16.314383,12.937760 10.930840,14.993772 6.679857,19.854025 
	C4.678863,22.141811 2.886760,24.612301 1.000000,27.000000 
	C1.000000,18.347715 1.000000,9.695430 1.000000,1.000000 
	C80.020889,1.000000 159.041794,1.000000 238.424606,1.327854 
	C237.606339,2.521588 236.289200,3.250398 235.265594,4.273026 
	C186.575272,52.916637 137.884872,101.560318 89.340332,150.349121 
	C87.492043,152.206711 86.196152,155.477310 86.145622,158.118210 
	C85.849197,173.610870 85.987221,189.112122 86.005547,204.610443 
	C86.014328,212.041107 90.013733,215.988281 97.523590,215.995636 
	C112.521965,216.010345 127.522629,215.855362 142.517334,216.090195 
	C146.885788,216.158600 149.951004,214.647537 152.945618,211.645630 
	C200.897446,163.577362 248.923004,115.582664 296.945374,67.584824 
	C298.218964,66.311897 299.645050,65.191521 301.000000,64.000000 
z"/>
<path fill="#0078FF" opacity="1.000000" stroke="none" 
	d="
M301.000000,63.550018 
	C299.645050,65.191521 298.218964,66.311897 296.945374,67.584824 
	C248.923004,115.582664 200.897446,163.577362 152.945618,211.645630 
	C149.951004,214.647537 146.885788,216.158600 142.517334,216.090195 
	C127.522629,215.855362 112.521965,216.010345 97.523590,215.995636 
	C90.013733,215.988281 86.014328,212.041107 86.005547,204.610443 
	C85.987221,189.112122 85.849197,173.610870 86.145622,158.118210 
	C86.196152,155.477310 87.492043,152.206711 89.340332,150.349121 
	C137.884872,101.560318 186.575272,52.916637 235.265594,4.273026 
	C236.289200,3.250398 237.606339,2.521588 238.893265,1.327854 
	C241.041672,1.000000 243.083328,1.000000 245.669235,1.327852 
	C247.623932,2.751916 249.162308,3.718720 250.423782,4.965659 
	C257.864075,12.320163 265.208405,19.771761 272.645538,27.129536 
	C282.066772,36.450253 291.545868,45.712524 301.000000,55.000000 
	C301.000000,57.700012 301.000000,60.400028 301.000000,63.550018 
M262.499969,44.000019 
	C255.864182,37.339863 249.228394,30.679712 243.182083,24.611210 
	C235.372284,32.397781 227.868164,39.879589 220.615005,47.111179 
	C231.825516,58.325466 243.322266,69.826096 255.496628,82.004547 
	C262.199890,75.295303 269.366241,68.238823 276.296539,60.957706 
	C276.830963,60.396225 276.139923,57.851334 275.275085,56.915024 
	C271.328644,52.642509 267.116577,48.615349 262.499969,44.000019 
z"/>
<path fill="#0078FF" opacity="1.000000" stroke="none" 
	d="
M1.000000,27.468658 
	C2.886760,24.612301 4.678863,22.141811 6.679857,19.854025 
	C10.930840,14.993772 16.314383,12.937760 22.812368,12.952855 
	C63.136471,13.046533 103.461151,13.065580 143.784866,12.910643 
	C148.423462,12.892819 151.619583,15.026996 153.572540,18.434725 
	C155.321762,21.486965 155.386032,25.989517 152.653961,28.275787 
	C149.769882,30.689262 145.549149,32.772064 141.894058,32.802494 
	C103.571953,33.121571 65.246063,33.046680 26.921511,32.956207 
	C19.999725,32.939869 20.000051,32.678894 20.000046,39.603241 
	C19.999975,118.252327 19.999670,196.901413 20.000622,275.550507 
	C20.000700,281.996552 20.004784,281.999512 26.652103,281.999573 
	C105.467819,282.000275 184.283524,282.000000 263.099243,282.000000 
	C264.894928,282.000000 266.690613,282.000000 269.000000,282.000000 
	C269.000000,279.839905 269.000000,278.060791 269.000000,276.281677 
	C269.000000,237.956909 268.932373,199.631851 269.085968,161.307709 
	C269.105072,156.546509 269.168823,151.322296 274.699097,148.723022 
	C281.670898,145.446182 288.937256,149.808090 288.977142,157.511719 
	C289.054810,172.507950 288.999969,187.504898 289.000000,202.501541 
	C289.000000,227.995850 288.908997,253.490662 289.048279,278.984192 
	C289.098541,288.180725 284.904449,294.535645 277.205292,298.994690 
	C276.724213,299.273346 276.407715,299.836121 276.007324,300.633362 
	C188.645767,301.000000 101.291542,301.000000 13.461426,300.634949 
	C8.990359,296.179962 4.995182,292.089966 1.000002,288.000000 
	C1.000000,201.312439 1.000000,114.624878 1.000000,27.468658 
z"/>
<path fill="#FFFFFF" opacity="1.000000" stroke="none" 
	d="
M301.000000,54.531342 
	C291.545868,45.712524 282.066772,36.450253 272.645538,27.129536 
	C265.208405,19.771761 257.864075,12.320163 250.423782,4.965659 
	C249.162308,3.718720 247.623932,2.751916 246.106735,1.327852 
	C264.259430,1.000000 282.518890,1.000000 301.000000,1.000000 
	C301.000000,18.686943 301.000000,36.374813 301.000000,54.531342 
z"/>
<path fill="#FFFFFF" opacity="1.000000" stroke="none" 
	d="
M1.000002,288.476654 
	C4.995182,292.089966 8.990359,296.179962 12.992769,300.634949 
	C9.074009,301.000000 5.148019,301.000000 1.000000,301.000000 
	C1.000000,296.986084 1.000000,292.969696 1.000002,288.476654 
z"/>
<path fill="#FFFFFF" opacity="1.000000" stroke="none" 
	d="
M262.750000,44.250008 
	C267.116577,48.615349 271.328644,52.642509 275.275085,56.915024 
	C276.139923,57.851334 276.830963,60.396225 276.296539,60.957706 
	C269.366241,68.238823 262.199890,75.295303 255.496628,82.004547 
	C243.322266,69.826096 231.825516,58.325466 220.615005,47.111179 
	C227.868164,39.879589 235.372284,32.397781 243.182083,24.611210 
	C249.228394,30.679712 255.864182,37.339863 262.750000,44.250008 
z"/>
</svg>