<svg version="1.1" id="Layer_1" xmlns="http://www.w3.org/2000/svg" xmlns:xlink="http://www.w3.org/1999/xlink" x="0px" y="0px"
	 width="100%" viewBox="0 0 243 300" enable-background="new 0 0 243 300" xml:space="preserve">
<path fill="#0078FF" opacity="1.000000" stroke="none" 
	d="
M244.000000,34.000004 
	C244.000000,119.020897 244.000000,204.041794 243.667877,289.623718 
	C239.223831,293.789856 235.111923,297.394928 231.000000,301.000000 
	C159.979111,301.000000 88.958206,301.000000 17.338379,300.655853 
	C8.436493,298.349640 4.210771,292.196472 1.000000,285.000000 
	C1.000000,203.312439 1.000000,121.624878 1.341357,39.344330 
	C5.682072,27.602146 13.630387,22.688278 25.423798,22.929167 
	C39.871204,23.224264 54.332802,23.161781 68.779259,22.844345 
	C71.272575,22.789558 73.874931,20.942633 76.161133,19.501801 
	C82.632195,15.423541 88.713676,10.654831 95.434464,7.068602 
	C100.572708,4.326830 106.450928,2.971845 112.000000,1.000000 
	C119.354248,1.000000 126.708496,1.000000 134.690979,1.364963 
	C147.450058,3.719271 158.447601,8.476334 167.234177,17.021044 
	C171.731140,21.394203 176.038559,23.365005 182.338623,23.148449 
	C196.268173,22.669632 210.227142,23.124557 224.170776,22.941891 
	C230.298355,22.861614 235.046265,25.308195 239.199844,29.478476 
	C240.750244,31.035107 242.397110,32.495655 244.000000,34.000004 
M150.676727,32.811405 
	C135.397812,21.592731 119.093246,19.998367 102.387199,28.813564 
	C87.182419,36.836601 79.918907,50.192280 78.834900,67.541351 
	C108.661736,67.541351 138.037613,67.541351 167.989899,67.541351 
	C167.245071,53.462849 161.999512,42.047703 150.676727,32.811405 
M135.499985,153.933167 
	C145.982239,153.932083 156.465210,154.004456 166.946442,153.900116 
	C172.508331,153.844742 176.088287,150.435120 176.158264,145.516113 
	C176.228073,140.608673 172.650589,136.959229 167.151138,136.944473 
	C137.368439,136.864563 107.584320,136.797745 77.804436,137.097778 
	C75.169800,137.124313 71.659592,139.190231 70.117912,141.399063 
	C66.138885,147.100037 70.866577,153.875931 78.594650,153.908173 
	C97.229462,153.985931 115.864830,153.933243 135.499985,153.933167 
M166.180679,199.143677 
	C168.386612,198.578552 170.902283,198.501572 172.730728,197.341476 
	C176.022110,195.253204 176.966339,191.733307 175.752899,188.095047 
	C174.311356,183.772949 170.892593,182.103439 166.416595,182.114609 
	C147.608948,182.161514 128.801117,182.134354 109.993355,182.134613 
	C99.341171,182.134750 88.687706,182.035492 78.037292,182.173157 
	C71.562973,182.256851 67.341743,187.477982 69.159531,193.052261 
	C70.654259,197.635925 74.172050,199.195328 78.869049,199.182495 
	C107.663017,199.103882 136.457306,199.143738 166.180679,199.143677 
z"/>
<path fill="#FFFFFF" opacity="1.000000" stroke="none" 
	d="
M111.531342,1.000000 
	C106.450928,2.971845 100.572708,4.326830 95.434464,7.068602 
	C88.713676,10.654831 82.632195,15.423541 76.161133,19.501801 
	C73.874931,20.942633 71.272575,22.789558 68.779259,22.844345 
	C54.332802,23.161781 39.871204,23.224264 25.423798,22.929167 
	C13.630387,22.688278 5.682072,27.602146 1.341357,38.875671 
	C1.000000,26.370636 1.000000,13.741270 1.000000,1.000000 
	C37.687489,1.000000 74.375084,1.000000 111.531342,1.000000 
z"/>
<path fill="#FFFFFF" opacity="1.000000" stroke="none" 
	d="
M244.000000,33.531345 
	C242.397110,32.495655 240.750244,31.035107 239.199844,29.478476 
	C235.046265,25.308195 230.298355,22.861614 224.170776,22.941891 
	C210.227142,23.124557 196.268173,22.669632 182.338623,23.148449 
	C176.038559,23.365005 171.731140,21.394203 167.234177,17.021044 
	C158.447601,8.476334 147.450058,3.719271 135.159607,1.364963 
	C171.221039,1.000000 207.442062,1.000000 244.000000,1.000000 
	C244.000000,11.685201 244.000000,22.373941 244.000000,33.531345 
z"/>
<path fill="#FFFFFF" opacity="1.000000" stroke="none" 
	d="
M1.000000,285.471191 
	C4.210771,292.196472 8.436493,298.349640 16.869720,300.655853 
	C11.741572,301.000000 6.483145,301.000000 1.000000,301.000000 
	C1.000000,295.982300 1.000000,290.962341 1.000000,285.471191 
z"/>
<path fill="#FFFFFF" opacity="1.000000" stroke="none" 
	d="
M231.476654,301.000000 
	C235.111923,297.394928 239.223831,293.789856 243.667877,290.092407 
	C244.000000,293.595947 244.000000,297.191864 244.000000,301.000000 
	C239.985947,301.000000 235.969635,301.000000 231.476654,301.000000 
z"/>
<path fill="#FBFDFF" opacity="1.000000" stroke="none" 
	d="
M150.958740,33.031750 
	C161.999512,42.047703 167.245071,53.462849 167.989899,67.541351 
	C138.037613,67.541351 108.661736,67.541351 78.834900,67.541351 
	C79.918907,50.192280 87.182419,36.836601 102.387199,28.813564 
	C119.093246,19.998367 135.397812,21.592731 150.958740,33.031750 
z"/>
<path fill="#FCFDFF" opacity="1.000000" stroke="none" 
	d="
M134.999969,153.933167 
	C115.864830,153.933243 97.229462,153.985931 78.594650,153.908173 
	C70.866577,153.875931 66.138885,147.100037 70.117912,141.399063 
	C71.659592,139.190231 75.169800,137.124313 77.804436,137.097778 
	C107.584320,136.797745 137.368439,136.864563 167.151138,136.944473 
	C172.650589,136.959229 176.228073,140.608673 176.158264,145.516113 
	C176.088287,150.435120 172.508331,153.844742 166.946442,153.900116 
	C156.465210,154.004456 145.982239,153.932083 134.999969,153.933167 
z"/>
<path fill="#FBFDFF" opacity="1.000000" stroke="none" 
	d="
M165.716095,199.143921 
	C136.457306,199.143738 107.663017,199.103882 78.869049,199.182495 
	C74.172050,199.195328 70.654259,197.635925 69.159531,193.052261 
	C67.341743,187.477982 71.562973,182.256851 78.037292,182.173157 
	C88.687706,182.035492 99.341171,182.134750 109.993355,182.134613 
	C128.801117,182.134354 147.608948,182.161514 166.416595,182.114609 
	C170.892593,182.103439 174.311356,183.772949 175.752899,188.095047 
	C176.966339,191.733307 176.022110,195.253204 172.730728,197.341476 
	C170.902283,198.501572 168.386612,198.578552 165.716095,199.143921 
z"/>
</svg>