<svg version="1.1" id="Layer_1" xmlns="http://www.w3.org/2000/svg" xmlns:xlink="http://www.w3.org/1999/xlink" x="0px" y="0px"
	 width="100%" viewBox="0 0 300 228" enable-background="new 0 0 300 228" xml:space="preserve">
<path fill="#0078FF" opacity="1.000000" stroke="none" 
	d="
M271.000000,229.000000 
	C255.979111,229.000000 240.958206,229.000000 225.352737,228.665649 
	C217.394196,224.453369 214.245331,218.021469 214.037079,210.019653 
	C213.857147,203.105743 213.999710,196.183441 213.999710,189.273758 
	C172.031555,189.273758 130.702072,189.273758 89.000397,189.273758 
	C89.000397,195.160721 88.709274,200.800461 89.064850,206.399139 
	C89.683846,216.145279 86.005447,223.579849 78.000000,229.000000 
	C62.979107,229.000000 47.958210,229.000000 32.353867,228.666656 
	C23.884497,224.452148 21.006439,217.713318 21.003765,209.370209 
	C20.993515,177.375854 20.999592,145.381485 20.999578,113.387131 
	C20.999577,111.639557 20.999578,109.891983 20.999578,108.000397 
	C17.246468,108.000397 14.225476,107.745934 11.264551,108.059204 
	C6.663301,108.546021 3.423191,106.710609 1.000000,103.000000 
	C1.000000,101.285645 1.000000,99.571281 1.336446,97.310684 
	C3.722697,95.165535 5.586468,92.598518 7.859579,92.161713 
	C13.210620,91.133446 18.756992,91.121681 24.568264,90.672043 
	C27.747478,83.430519 31.134680,75.653557 34.572018,67.898804 
	C41.434589,52.416615 48.231194,36.904095 55.243328,21.489754 
	C58.680687,13.933614 60.757732,5.368430 69.000000,1.000000 
	C123.687561,1.000000 178.375122,1.000000 233.646454,1.333649 
	C238.509598,3.848001 241.605881,6.929556 243.105087,11.714858 
	C244.096710,14.880022 245.892792,17.791668 247.312119,20.824587 
	C251.523560,29.823881 255.845978,38.773758 259.898499,47.844162 
	C263.696655,56.345203 267.180267,64.986343 270.850677,73.545059 
	C273.401886,79.493958 276.034973,85.407738 278.575836,91.210083 
	C286.232086,91.163925 294.218964,89.322136 301.000000,95.000000 
	C301.000000,98.030594 301.000000,101.061188 300.645599,104.658249 
	C295.117798,110.585320 288.225647,106.548241 282.000366,108.554802 
	C282.000366,110.275169 282.000366,112.064720 282.000366,113.854279 
	C282.000366,144.809174 281.838867,175.765411 282.096375,206.718170 
	C282.176147,216.304840 279.098419,223.760925 271.000000,229.000000 
M79.875786,16.000490 
	C76.965088,15.454718 75.279961,16.763073 74.180656,19.417164 
	C72.467354,23.553688 70.580605,27.619978 68.704529,31.687054 
	C66.539955,36.379551 64.181892,40.986416 62.131641,45.727242 
	C58.517269,54.084801 55.209839,62.576786 51.510204,70.895210 
	C48.913242,76.734337 45.835331,82.358284 43.094837,88.136497 
	C42.755535,88.851898 43.171638,89.925575 43.223866,90.643112 
	C115.712074,90.643112 187.745575,90.643112 260.076996,90.643112 
	C256.391541,81.781845 253.031418,73.261200 249.325790,64.893562 
	C243.335449,51.366764 236.981232,38.000423 231.047470,24.449497 
	C227.476608,16.294744 227.422974,16.000406 218.790619,16.000406 
	C172.792679,16.000406 126.794754,16.000414 79.875786,16.000490 
M93.451454,133.488968 
	C85.829590,133.277435 78.208359,132.939682 70.585625,132.901398 
	C65.968063,132.878189 62.280197,136.491058 62.314960,140.491928 
	C62.349453,144.460785 66.079582,147.957611 70.683228,148.041351 
	C77.005592,148.156357 83.385513,148.555405 89.631760,147.857315 
	C92.475243,147.539490 96.168938,145.504532 97.488892,143.139069 
	C99.313812,139.868683 98.195503,135.957306 93.451454,133.488968 
M222.501251,148.078979 
	C225.997147,148.069214 229.500916,148.203400 232.986908,148.012680 
	C237.194321,147.782471 240.755966,144.045700 240.653091,140.279602 
	C240.553497,136.634277 237.145035,133.033249 233.164719,132.929581 
	C226.177673,132.747620 219.179764,132.751831 212.191986,132.915894 
	C207.955399,133.015381 204.916656,136.188126 204.771591,140.115616 
	C204.617081,144.298035 207.636658,147.718552 212.029251,148.006393 
	C215.179382,148.212845 218.352570,148.067413 222.501251,148.078979 
z"/>
<path fill="#FFFFFF" opacity="1.000000" stroke="none" 
	d="
M78.468658,229.000000 
	C86.005447,223.579849 89.683846,216.145279 89.064850,206.399139 
	C88.709274,200.800461 89.000397,195.160721 89.000397,189.273758 
	C130.702072,189.273758 172.031555,189.273758 213.999710,189.273758 
	C213.999710,196.183441 213.857147,203.105743 214.037079,210.019653 
	C214.245331,218.021469 217.394196,224.453369 224.884079,228.665649 
	C176.312439,229.000000 127.624878,229.000000 78.468658,229.000000 
z"/>
<path fill="#FFFFFF" opacity="1.000000" stroke="none" 
	d="
M68.531342,1.000000 
	C60.757732,5.368430 58.680687,13.933614 55.243328,21.489754 
	C48.231194,36.904095 41.434589,52.416615 34.572018,67.898804 
	C31.134680,75.653557 27.747478,83.430519 24.568264,90.672043 
	C18.756992,91.121681 13.210620,91.133446 7.859579,92.161713 
	C5.586468,92.598518 3.722697,95.165535 1.336446,96.882217 
	C1.000000,65.085579 1.000000,33.171158 1.000000,1.000000 
	C23.353573,1.000000 45.708126,1.000000 68.531342,1.000000 
z"/>
<path fill="#FFFFFF" opacity="1.000000" stroke="none" 
	d="
M301.000000,94.531342 
	C294.218964,89.322136 286.232086,91.163925 278.575836,91.210083 
	C276.034973,85.407738 273.401886,79.493958 270.850677,73.545059 
	C267.180267,64.986343 263.696655,56.345203 259.898499,47.844162 
	C255.845978,38.773758 251.523560,29.823881 247.312119,20.824587 
	C245.892792,17.791668 244.096710,14.880022 243.105087,11.714858 
	C241.605881,6.929556 238.509598,3.848001 234.115112,1.333649 
	C256.272491,1.000000 278.544952,1.000000 301.000000,1.000000 
	C301.000000,32.020657 301.000000,63.041668 301.000000,94.531342 
z"/>
<path fill="#FFFFFF" opacity="1.000000" stroke="none" 
	d="
M1.000000,103.468658 
	C3.423191,106.710609 6.663301,108.546021 11.264551,108.059204 
	C14.225476,107.745934 17.246468,108.000397 20.999578,108.000397 
	C20.999578,109.891983 20.999577,111.639557 20.999578,113.387131 
	C20.999592,145.381485 20.993515,177.375854 21.003765,209.370209 
	C21.006439,217.713318 23.884497,224.452148 31.885208,228.666656 
	C21.695541,229.000000 11.391084,229.000000 1.000000,229.000000 
	C1.000000,187.312469 1.000000,145.624893 1.000000,103.468658 
z"/>
<path fill="#FFFFFF" opacity="1.000000" stroke="none" 
	d="
M271.468658,229.000000 
	C279.098419,223.760925 282.176147,216.304840 282.096375,206.718170 
	C281.838867,175.765411 282.000366,144.809174 282.000366,113.854279 
	C282.000366,112.064720 282.000366,110.275169 282.000366,108.554802 
	C288.225647,106.548241 295.117798,110.585320 300.645599,105.112358 
	C301.000000,146.215576 301.000000,187.431152 301.000000,229.000000 
	C291.315308,229.000000 281.626312,229.000000 271.468658,229.000000 
z"/>
<path fill="#FFFFFF" opacity="1.000000" stroke="none" 
	d="
M80.336304,16.000454 
	C126.794754,16.000414 172.792679,16.000406 218.790619,16.000406 
	C227.422974,16.000406 227.476608,16.294744 231.047470,24.449497 
	C236.981232,38.000423 243.335449,51.366764 249.325790,64.893562 
	C253.031418,73.261200 256.391541,81.781845 260.076996,90.643112 
	C187.745575,90.643112 115.712074,90.643112 43.223866,90.643112 
	C43.171638,89.925575 42.755535,88.851898 43.094837,88.136497 
	C45.835331,82.358284 48.913242,76.734337 51.510204,70.895210 
	C55.209839,62.576786 58.517269,54.084801 62.131641,45.727242 
	C64.181892,40.986416 66.539955,36.379551 68.704529,31.687054 
	C70.580605,27.619978 72.467354,23.553688 74.180656,19.417164 
	C75.279961,16.763073 76.965088,15.454718 80.336304,16.000454 
z"/>
<path fill="#FDFEFF" opacity="1.000000" stroke="none" 
	d="
M93.815842,133.697327 
	C98.195503,135.957306 99.313812,139.868683 97.488892,143.139069 
	C96.168938,145.504532 92.475243,147.539490 89.631760,147.857315 
	C83.385513,148.555405 77.005592,148.156357 70.683228,148.041351 
	C66.079582,147.957611 62.349453,144.460785 62.314960,140.491928 
	C62.280197,136.491058 65.968063,132.878189 70.585625,132.901398 
	C78.208359,132.939682 85.829590,133.277435 93.815842,133.697327 
z"/>
<path fill="#FCFEFF" opacity="1.000000" stroke="none" 
	d="
M222.008362,148.078979 
	C218.352570,148.067413 215.179382,148.212845 212.029251,148.006393 
	C207.636658,147.718552 204.617081,144.298035 204.771591,140.115616 
	C204.916656,136.188126 207.955399,133.015381 212.191986,132.915894 
	C219.179764,132.751831 226.177673,132.747620 233.164719,132.929581 
	C237.145035,133.033249 240.553497,136.634277 240.653091,140.279602 
	C240.755966,144.045700 237.194321,147.782471 232.986908,148.012680 
	C229.500916,148.203400 225.997147,148.069214 222.008362,148.078979 
z"/>
</svg>