<svg version="1.1" id="Layer_1" xmlns="http://www.w3.org/2000/svg" xmlns:xlink="http://www.w3.org/1999/xlink" x="0px" y="0px"
	 width="100%" viewBox="0 0 300 228" enable-background="new 0 0 300 228" xml:space="preserve">
<path fill="#14151A" opacity="1.000000" stroke="none" 
	d="
M271.000000,229.000000 
	C255.312439,229.000000 239.624878,229.000000 223.466278,228.624847 
	C215.021973,221.394150 213.182205,212.450394 213.943466,202.470276 
	C214.278961,198.071869 214.000000,193.626572 214.000000,189.214355 
	C172.066071,189.214355 130.725189,189.214355 89.000000,189.214355 
	C89.000000,196.198792 89.152443,202.980789 88.943573,209.751663 
	C88.815636,213.898956 88.781494,218.120575 85.277565,221.419846 
	C82.907333,223.651627 81.073662,226.453247 79.000000,229.000000 
	C62.645771,229.000000 46.291542,229.000000 29.468426,228.603638 
	C28.981123,227.708771 29.162632,226.928009 28.915255,226.752792 
	C21.373446,221.411270 20.949823,213.530624 20.969938,205.340744 
	C21.045124,174.729935 21.000000,144.118835 21.000000,113.507843 
	C21.000000,111.745010 21.000000,109.982170 21.000000,108.220444 
	C13.847040,107.275604 6.433253,110.185432 1.000000,104.000000 
	C1.000000,100.969406 1.000000,97.938812 1.399036,94.453926 
	C8.889037,90.468224 16.382320,90.444855 24.139551,91.472595 
	C29.765480,78.847458 35.406582,66.182129 41.052948,53.519131 
	C45.921558,42.600391 50.835468,31.701632 55.654427,20.761040 
	C58.915478,13.357411 61.117554,5.269942 69.000000,1.000000 
	C123.687561,1.000000 178.375122,1.000000 233.628693,1.345801 
	C235.811752,2.887020 238.003036,3.746031 238.937592,5.341277 
	C241.681168,10.024438 244.037872,14.947537 246.341705,19.872280 
	C251.238678,30.340219 256.049683,40.849030 260.816254,51.377171 
	C266.798615,64.590691 272.701111,77.840363 278.573212,90.929802 
	C286.456451,91.409500 294.448639,89.293633 301.000000,95.000000 
	C301.000000,98.030594 301.000000,101.061188 300.638550,104.645325 
	C295.067352,110.754608 287.927795,106.326752 282.000000,108.590454 
	C282.000000,141.313721 281.834412,173.917404 282.101868,206.517548 
	C282.181091,216.173035 279.224579,223.736267 271.000000,229.000000 
M258.969940,86.841507 
	C255.882278,79.655823 252.882828,72.430672 249.688202,65.292870 
	C243.507538,51.483231 237.162476,37.747101 230.993530,23.932283 
	C227.635971,16.413303 227.175201,16.000000 218.891907,16.000000 
	C173.245468,15.999999 127.598999,16.027758 81.952690,15.952057 
	C77.906906,15.945347 74.789421,15.877999 73.750221,21.187271 
	C73.014496,24.946096 70.287209,28.292391 68.594223,31.891188 
	C64.800240,39.956116 60.927155,47.990543 57.401432,56.173183 
	C53.383926,65.497177 49.765190,74.992317 45.841549,84.357948 
	C44.982357,86.408813 43.567459,88.226868 42.089436,90.682129 
	C115.474350,90.682129 187.649734,90.682129 260.135345,90.682129 
	C259.662781,89.423759 259.333130,88.545914 258.969940,86.841507 
M180.500000,108.000000 
	C133.079559,108.000000 85.659119,108.000000 38.292652,108.000000 
	C38.292652,129.974258 38.292652,151.374496 38.292652,172.713654 
	C113.977051,172.713654 189.368454,172.713654 264.707367,172.713654 
	C264.707367,151.025787 264.707367,129.625565 264.707367,108.000000 
	C236.776901,108.000000 209.138443,108.000000 180.500000,108.000000 
M39.078636,213.577133 
	C48.862385,213.714127 58.646774,213.941238 68.429054,213.871368 
	C69.620583,213.862854 71.794876,212.295197 71.829132,211.386566 
	C72.108177,203.986801 71.986107,196.571899 71.986107,189.303802 
	C60.306976,189.303802 49.252609,189.303802 38.416534,189.303802 
	C38.416534,197.378708 38.416534,205.147797 39.078636,213.577133 
M231.000000,206.373703 
	C231.000656,213.999817 231.000656,213.999908 238.399338,213.999969 
	C245.880508,214.000031 253.366455,213.846161 260.840454,214.077698 
	C263.711121,214.166626 264.870422,212.764938 264.924744,210.483704 
	C265.093353,203.403564 264.986450,196.316864 264.986450,189.265106 
	C253.380264,189.265106 242.329666,189.265106 231.000000,189.265106 
	C231.000000,194.817108 231.000000,200.108673 231.000000,206.373703 
z"/>
<path fill="#FFFFFF" opacity="1.000000" stroke="none" 
	d="
M79.468658,229.000000 
	C81.073662,226.453247 82.907333,223.651627 85.277565,221.419846 
	C88.781494,218.120575 88.815636,213.898956 88.943573,209.751663 
	C89.152443,202.980789 89.000000,196.198792 89.000000,189.214355 
	C130.725189,189.214355 172.066071,189.214355 214.000000,189.214355 
	C214.000000,193.626572 214.278961,198.071869 213.943466,202.470276 
	C213.182205,212.450394 215.021973,221.394150 222.997620,228.624847 
	C175.312439,229.000000 127.624878,229.000000 79.468658,229.000000 
z"/>
<path fill="#FFFFFF" opacity="1.000000" stroke="none" 
	d="
M68.531342,1.000000 
	C61.117554,5.269942 58.915478,13.357411 55.654427,20.761040 
	C50.835468,31.701632 45.921558,42.600391 41.052948,53.519131 
	C35.406582,66.182129 29.765480,78.847458 24.139551,91.472595 
	C16.382320,90.444855 8.889037,90.468224 1.399036,93.999817 
	C1.000000,63.084454 1.000000,32.168911 1.000000,1.000000 
	C23.353590,1.000000 45.708138,1.000000 68.531342,1.000000 
z"/>
<path fill="#FFFFFF" opacity="1.000000" stroke="none" 
	d="
M301.000000,94.531342 
	C294.448639,89.293633 286.456451,91.409500 278.573212,90.929802 
	C272.701111,77.840363 266.798615,64.590691 260.816254,51.377171 
	C256.049683,40.849030 251.238678,30.340219 246.341705,19.872280 
	C244.037872,14.947537 241.681168,10.024438 238.937592,5.341277 
	C238.003036,3.746031 235.811752,2.887020 234.097351,1.345801 
	C256.272491,1.000000 278.544952,1.000000 301.000000,1.000000 
	C301.000000,32.020657 301.000000,63.041668 301.000000,94.531342 
z"/>
<path fill="#FFFFFF" opacity="1.000000" stroke="none" 
	d="
M1.000000,104.468658 
	C6.433253,110.185432 13.847040,107.275604 21.000000,108.220444 
	C21.000000,109.982170 21.000000,111.745010 21.000000,113.507843 
	C21.000000,144.118835 21.045124,174.729935 20.969938,205.340744 
	C20.949823,213.530624 21.373446,221.411270 28.915255,226.752792 
	C29.162632,226.928009 28.981123,227.708771 28.999767,228.603638 
	C19.693432,229.000000 10.386863,229.000000 1.000000,229.000000 
	C1.000000,187.645798 1.000000,146.291565 1.000000,104.468658 
z"/>
<path fill="#FFFFFF" opacity="1.000000" stroke="none" 
	d="
M271.468658,229.000000 
	C279.224579,223.736267 282.181091,216.173035 282.101868,206.517548 
	C281.834412,173.917404 282.000000,141.313721 282.000000,108.590454 
	C287.927795,106.326752 295.067352,110.754608 300.638550,105.099442 
	C301.000000,146.215576 301.000000,187.431152 301.000000,229.000000 
	C291.315308,229.000000 281.626312,229.000000 271.468658,229.000000 
z"/>
<path fill="#FFFFFF" opacity="1.000000" stroke="none" 
	d="
M258.986694,87.254784 
	C259.333130,88.545914 259.662781,89.423759 260.135345,90.682129 
	C187.649734,90.682129 115.474350,90.682129 42.089436,90.682129 
	C43.567459,88.226868 44.982357,86.408813 45.841549,84.357948 
	C49.765190,74.992317 53.383926,65.497177 57.401432,56.173183 
	C60.927155,47.990543 64.800240,39.956116 68.594223,31.891188 
	C70.287209,28.292391 73.014496,24.946096 73.750221,21.187271 
	C74.789421,15.877999 77.906906,15.945347 81.952690,15.952057 
	C127.598999,16.027758 173.245468,15.999999 218.891907,16.000000 
	C227.175201,16.000000 227.635971,16.413303 230.993530,23.932283 
	C237.162476,37.747101 243.507538,51.483231 249.688202,65.292870 
	C252.882828,72.430672 255.882278,79.655823 258.986694,87.254784 
z"/>
<path fill="#FFFFFF" opacity="1.000000" stroke="none" 
	d="
M181.000000,108.000000 
	C209.138443,108.000000 236.776901,108.000000 264.707367,108.000000 
	C264.707367,129.625565 264.707367,151.025787 264.707367,172.713654 
	C189.368454,172.713654 113.977051,172.713654 38.292652,172.713654 
	C38.292652,151.374496 38.292652,129.974258 38.292652,108.000000 
	C85.659119,108.000000 133.079559,108.000000 181.000000,108.000000 
M90.905006,148.996780 
	C96.582939,147.258575 99.633850,143.651794 98.980247,139.450272 
	C98.299706,135.075562 93.915993,132.009842 88.304810,132.001801 
	C82.640099,131.993683 76.975327,131.985291 71.310669,132.004028 
	C65.298325,132.023911 62.082684,134.893204 62.000340,140.267303 
	C61.922371,145.356369 65.750847,148.924194 71.516403,148.985123 
	C77.680260,149.050262 83.845345,148.999695 90.905006,148.996780 
M209.754318,148.250198 
	C217.810318,148.483658 225.907562,149.294022 233.906021,148.722321 
	C238.315750,148.407135 241.630249,144.841995 241.016708,139.371521 
	C240.575790,135.440247 236.698502,132.036987 232.303009,132.009445 
	C226.326614,131.971970 220.337280,132.238266 214.377121,131.924835 
	C209.583099,131.672714 205.973236,133.946121 204.369293,137.700455 
	C202.562698,141.929108 205.058411,145.602386 209.754318,148.250198 
z"/>
<path fill="#FFFFFF" opacity="1.000000" stroke="none" 
	d="
M38.747585,213.247009 
	C38.416534,205.147797 38.416534,197.378708 38.416534,189.303802 
	C49.252609,189.303802 60.306976,189.303802 71.986107,189.303802 
	C71.986107,196.571899 72.108177,203.986801 71.829132,211.386566 
	C71.794876,212.295197 69.620583,213.862854 68.429054,213.871368 
	C58.646774,213.941238 48.862385,213.714127 38.747585,213.247009 
z"/>
<path fill="#FFFFFF" opacity="1.000000" stroke="none" 
	d="
M231.000000,205.886963 
	C231.000000,200.108673 231.000000,194.817108 231.000000,189.265106 
	C242.329666,189.265106 253.380264,189.265106 264.986450,189.265106 
	C264.986450,196.316864 265.093353,203.403564 264.924744,210.483704 
	C264.870422,212.764938 263.711121,214.166626 260.840454,214.077698 
	C253.366455,213.846161 245.880508,214.000031 238.399338,213.999969 
	C231.000656,213.999908 231.000656,213.999817 231.000000,205.886963 
z"/>
<path fill="#0078FF" opacity="1.000000" stroke="none" 
	d="
M90.457443,148.998199 
	C83.845345,148.999695 77.680260,149.050262 71.516403,148.985123 
	C65.750847,148.924194 61.922371,145.356369 62.000340,140.267303 
	C62.082684,134.893204 65.298325,132.023911 71.310669,132.004028 
	C76.975327,131.985291 82.640099,131.993683 88.304810,132.001801 
	C93.915993,132.009842 98.299706,135.075562 98.980247,139.450272 
	C99.633850,143.651794 96.582939,147.258575 90.457443,148.998199 
z"/>
<path fill="#0078FF" opacity="1.000000" stroke="none" 
	d="
M209.361038,148.123260 
	C205.058411,145.602386 202.562698,141.929108 204.369293,137.700455 
	C205.973236,133.946121 209.583099,131.672714 214.377121,131.924835 
	C220.337280,132.238266 226.326614,131.971970 232.303009,132.009445 
	C236.698502,132.036987 240.575790,135.440247 241.016708,139.371521 
	C241.630249,144.841995 238.315750,148.407135 233.906021,148.722321 
	C225.907562,149.294022 217.810318,148.483658 209.361038,148.123260 
z"/>
</svg>