<svg xmlns="http://www.w3.org/2000/svg" width="300" height="300" viewBox="0 0 300 300">
<g>
<path d="M 275.80 297.87 L 271.50 300.00 L 300.00 300.00 L 299.97 180.25 C299.95,93.58 299.64,61.05 298.85,62.50 C297.16,65.61 150.84,211.95 147.80,213.56 C145.66,214.70 139.88,215.00 119.95,215.00 C92.57,215.00 89.45,214.47 87.14,209.40 C86.38,207.73 86.00,197.92 86.00,179.71 L 86.00 152.51 L 161.76 76.76 L 237.51 1.00 L 246.55 1.00 L 273.27 27.79 L 300.00 54.59 L 300.00 300.00 L 0.00 300.00 L 8.75 299.96 C17.25,299.92 17.41,299.88 14.18,298.48 C8.29,295.92 5.23,293.10 2.59,287.80 L 0.00 282.61 L 0.00 0.00 L 0.08 15.75 C0.14,29.35 0.31,30.98 1.33,27.73 C2.98,22.40 7.55,17.11 12.38,14.92 C16.27,13.15 20.16,13.04 82.30,13.02 L 148.09 13.00 L 150.55 15.45 C153.82,18.73 153.84,23.91 150.59,27.69 L 148.17 30.50 L 19.50 31.50 L 19.25 156.23 L 18.99 280.96 L 21.25 281.50 C22.49,281.80 78.62,281.92 146.00,281.77 L 268.50 281.50 L 269.00 217.50 C269.45,159.31 269.35,151.24 272.91,149.00 C273.65,148.53 274.55,148.31 275.64,147.95 C280.07,146.49 283.87,147.74 286.09,151.38 C287.91,154.36 287.99,157.32 287.95,218.00 C287.92,268.43 287.64,282.27 286.57,285.25 C284.58,290.85 280.62,295.49 275.80,297.87 ZM 104.00 160.49 L 104.00 196.00 L 140.51 196.00 L 191.00 145.50 L 241.49 95.01 L 224.00 77.50 C214.39,67.88 206.07,60.00 205.51,60.00 C204.96,60.00 181.89,82.61 154.25,110.25 ZM 236.50 64.00 L 254.47 82.00 L 266.24 70.26 L 278.01 58.52 L 260.01 40.51 L 242.00 22.51 L 218.52 45.99 Z" fill="rgb(4,1,1)"/>
<path d="M 237.84 1.00 C235.23,0.03 215.35,0.01 120.25,0.00 L 0.00 0.00 L 245.45 0.00 L 246.44 1.00 ZM 96.50 142.01 L 160.25 78.16 C174.41,63.98 187.84,50.59 199.41,39.10 L 161.76 76.76 ZM 0.45 28.76 L 2.05 25.56 C4.35,20.94 6.90,18.01 10.56,15.89 C6.44,18.45 2.77,23.08 1.33,27.73 C0.91,29.08 0.63,29.59 0.45,28.76 ZM 299.80 54.38 C299.91,52.03 300.00,40.87 300.00,27.50 L 300.00 54.59 Z" fill="rgb(96,95,94)"/>
<path d="M 237.84 1.00 L 237.51 1.00 L 199.41 39.10 C198.14,40.37 196.84,41.66 195.52,42.97 C217.93,20.52 234.17,4.21 237.41,0.88 C237.59,0.92 237.73,0.96 237.84,1.00 ZM 143.49 0.01 C168.48,0.01 187.02,0.02 200.72,0.07 C185.04,0.04 165.35,0.02 143.49,0.01 Z" fill="rgb(150,149,148)"/>
<path d="M -0.00 291.30 L -0.00 282.61 L 2.59 287.80 C5.23,293.10 8.29,295.92 14.18,298.48 C17.41,299.88 17.25,299.92 8.75,299.96 L 0.00 300.00 L -0.00 291.30 ZM 275.80 297.87 C280.62,295.49 284.58,290.85 286.57,285.25 C287.64,282.27 287.92,268.43 287.95,218.00 C287.99,157.32 287.91,154.36 286.09,151.38 C283.87,147.74 280.07,146.49 275.64,147.95 C269.28,150.05 269.55,147.21 269.00,217.50 L 268.50 281.50 L 146.00 281.77 C78.62,281.92 22.49,281.80 21.25,281.50 L 18.99 280.96 L 19.25 156.23 L 19.50 31.50 L 83.84 31.00 L 148.17 30.50 L 150.59 27.69 C153.84,23.91 153.82,18.73 150.55,15.45 L 148.09 13.00 L 82.30 13.02 C20.47,13.04 16.26,13.16 12.50,14.89 C7.77,17.08 4.74,20.17 2.05,25.56 L 0.08 29.50 L 0.04 14.75 L 0.00 0.00 L 119.00 0.00 C184.45,0.00 238.00,0.12 238.00,0.26 C238.00,0.40 203.80,34.71 162.00,76.51 L 86.00 152.51 L 86.00 179.71 C86.00,197.92 86.38,207.73 87.14,209.40 C89.45,214.47 92.57,215.00 119.95,215.00 C139.88,215.00 145.66,214.70 147.80,213.56 C150.84,211.95 297.16,65.61 298.85,62.50 C299.64,61.05 299.95,93.58 299.97,180.25 L 300.00 300.00 L 285.75 300.00 L 271.50 300.00 L 275.80 297.87 ZM 104.00 178.25 L 104.00 160.49 L 154.25 110.25 C181.89,82.61 204.96,60.00 205.51,60.00 C206.07,60.00 214.39,67.88 224.00,77.50 L 241.49 95.01 L 191.00 145.50 L 140.51 196.00 L 122.25 196.00 L 104.00 196.00 L 104.00 178.25 ZM 236.50 64.00 L 218.52 45.99 L 230.26 34.25 L 242.00 22.51 L 260.01 40.51 L 278.01 58.52 L 266.24 70.26 L 254.47 82.00 L 236.50 64.00 ZM 272.48 27.34 L 245.45 0.00 L 272.73 0.00 L 300.00 0.00 L 300.00 27.50 C300.00,42.62 299.89,54.93 299.75,54.84 C299.61,54.75 287.34,42.37 272.48,27.34 Z" fill="rgb(254,254,254)"/>
</g>
</svg>