<svg version="1.1" id="Layer_1" xmlns="http://www.w3.org/2000/svg" xmlns:xlink="http://www.w3.org/1999/xlink" x="0px" y="0px"
	 width="100%" viewBox="0 0 300 206" enable-background="new 0 0 300 206" xml:space="preserve">
<path fill="#FFFFFF" opacity="1.000000" stroke="none" 
	d="
M1.000000,193.000000 
	C1.000000,164.979111 1.000000,136.958206 1.340430,108.549576 
	C4.178038,109.774536 6.663490,112.770569 9.174153,112.791847 
	C45.124752,113.096558 81.078758,113.012512 117.031921,112.980759 
	C120.682549,112.977531 124.828033,108.782089 124.999916,105.174080 
	C125.355820,97.703232 121.470581,94.019402 113.013519,94.011169 
	C83.385460,93.982346 53.757355,93.993912 24.129276,94.004059 
	C16.194029,94.006783 8.082079,93.037231 1.000000,98.000000 
	C1.000000,69.979103 1.000000,41.958210 1.344599,13.564199 
	C3.664733,17.664560 7.156712,19.063944 11.932380,19.059332 
	C96.662186,18.977489 181.392090,19.000011 266.121979,18.999872 
	C267.120758,18.999872 268.166626,19.191843 269.110016,18.962709 
	C272.814606,18.062904 275.366302,16.049168 277.023193,12.319793 
	C279.408569,6.950699 275.459351,4.356667 273.000000,1.000000 
	C282.314819,1.000000 291.629639,1.000000 301.000000,1.000000 
	C301.000000,65.020882 301.000000,129.041779 300.662506,193.442902 
	C299.241577,192.407104 298.297089,190.853378 297.052399,189.597107 
	C288.138611,180.600342 279.105347,171.720764 270.284576,162.634537 
	C269.222656,161.540680 268.257446,158.854065 268.849731,157.880936 
	C276.199707,145.804993 279.280548,133.167374 277.143738,118.872581 
	C273.444702,94.126732 254.135330,74.600815 229.149521,71.225113 
	C208.829193,68.479736 191.259979,75.329430 177.998398,91.521889 
	C163.195816,109.595924 160.731750,129.805237 170.130081,150.734528 
	C183.831543,181.246506 220.901138,193.644745 250.575989,175.605728 
	C253.424759,173.873993 254.624237,174.012817 256.714172,176.144699 
	C265.346039,184.949829 274.161652,193.575012 282.778717,202.394333 
	C283.907776,203.549850 284.278198,205.446579 285.000000,207.000000 
	C238.312439,207.000000 191.624878,207.000000 144.550583,206.658554 
	C147.157684,203.478058 149.996338,200.619934 148.426102,195.869247 
	C146.633209,190.445007 142.738098,188.004639 135.477493,188.003281 
	C97.730553,187.996231 59.983604,188.013000 22.236681,187.988968 
	C14.746197,187.984192 7.064275,187.023911 1.000000,193.000000 
z"/>
<path fill="#14151A" opacity="1.000000" stroke="none" 
	d="
M285.471191,207.000000 
	C284.278198,205.446579 283.907776,203.549850 282.778717,202.394333 
	C274.161652,193.575012 265.346039,184.949829 256.714172,176.144699 
	C254.624237,174.012817 253.424759,173.873993 250.575989,175.605728 
	C220.901138,193.644745 183.831543,181.246506 170.130081,150.734528 
	C160.731750,129.805237 163.195816,109.595924 177.998398,91.521889 
	C191.259979,75.329430 208.829193,68.479736 229.149521,71.225113 
	C254.135330,74.600815 273.444702,94.126732 277.143738,118.872581 
	C279.280548,133.167374 276.199707,145.804993 268.849731,157.880936 
	C268.257446,158.854065 269.222656,161.540680 270.284576,162.634537 
	C279.105347,171.720764 288.138611,180.600342 297.052399,189.597107 
	C298.297089,190.853378 299.241577,192.407104 300.662506,193.911560 
	C301.000000,198.266068 301.000000,202.532135 301.000000,207.000000 
	C295.981995,207.000000 290.962189,207.000000 285.471191,207.000000 
M186.026932,140.123611 
	C190.149460,149.341629 196.034760,156.551254 205.481689,161.263321 
	C227.254547,172.123489 255.604538,158.745712 258.805328,132.001801 
	C261.872772,106.372253 240.190170,85.822334 213.824615,90.766457 
	C191.357407,94.979553 178.930420,119.773155 186.026932,140.123611 
z"/>
<path fill="#14151A" opacity="1.000000" stroke="none" 
	d="
M272.531342,1.000000 
	C275.459351,4.356667 279.408569,6.950699 277.023193,12.319793 
	C275.366302,16.049168 272.814606,18.062904 269.110016,18.962709 
	C268.166626,19.191843 267.120758,18.999872 266.121979,18.999872 
	C181.392090,19.000011 96.662186,18.977489 11.932380,19.059332 
	C7.156712,19.063944 3.664733,17.664560 1.344599,13.095543 
	C1.000000,10.958333 1.000000,8.916667 1.328980,6.390904 
	C2.091271,5.232911 2.524583,4.559012 2.987050,3.658486 
	C3.016206,3.431858 3.166667,3.000345 3.507761,2.993937 
	C4.565904,2.325019 5.282952,1.662509 6.000000,1.000000 
	C94.687561,1.000000 183.375122,1.000000 272.531342,1.000000 
z"/>
<path fill="#14151A" opacity="1.000000" stroke="none" 
	d="
M1.000000,193.474121 
	C7.064275,187.023911 14.746197,187.984192 22.236681,187.988968 
	C59.983604,188.013000 97.730553,187.996231 135.477493,188.003281 
	C142.738098,188.004639 146.633209,190.445007 148.426102,195.869247 
	C149.996338,200.619934 147.157684,203.478058 144.081924,206.658554 
	C96.333313,207.000000 48.666630,207.000000 1.000000,207.000000 
	C1.000000,202.590118 1.000000,198.269180 1.000000,193.474121 
z"/>
<path fill="#14151A" opacity="1.000000" stroke="none" 
	d="
M1.000000,98.454109 
	C8.082079,93.037231 16.194029,94.006783 24.129276,94.004059 
	C53.757355,93.993912 83.385460,93.982346 113.013519,94.011169 
	C121.470581,94.019402 125.355820,97.703232 124.999916,105.174080 
	C124.828033,108.782089 120.682549,112.977531 117.031921,112.980759 
	C81.078758,113.012512 45.124752,113.096558 9.174153,112.791847 
	C6.663490,112.770569 4.178038,109.774536 1.340430,108.080917 
	C1.000000,104.969406 1.000000,101.938812 1.000000,98.454109 
z"/>
<path fill="#FFFFFF" opacity="1.000000" stroke="none" 
	d="
M3.166667,3.000345 
	C3.166667,3.000345 3.016206,3.431858 2.663557,3.711090 
	C1.873939,3.993548 1.436969,3.996774 1.000000,4.000000 
	C1.333333,3.000000 1.666667,2.000000 2.500587,1.336334 
	C3.056338,2.115227 3.111502,2.557786 3.166667,3.000345 
z"/>
<path fill="#14151A" opacity="1.000000" stroke="none" 
	d="
M3.507761,2.993937 
	C3.111502,2.557786 3.056338,2.115227 3.000587,1.336334 
	C3.750000,1.000000 4.500000,1.000000 5.625000,1.000000 
	C5.282952,1.662509 4.565904,2.325019 3.507761,2.993937 
z"/>
<path fill="#14151A" opacity="1.000000" stroke="none" 
	d="
M1.000000,4.333333 
	C1.436969,3.996774 1.873939,3.993548 2.634401,3.937718 
	C2.524583,4.559012 2.091271,5.232911 1.328980,5.953404 
	C1.000000,5.555555 1.000000,5.111111 1.000000,4.333333 
z"/>
<path fill="#FFFFFF" opacity="1.000000" stroke="none" 
	d="
M186.011261,139.710785 
	C178.930420,119.773155 191.357407,94.979553 213.824615,90.766457 
	C240.190170,85.822334 261.872772,106.372253 258.805328,132.001801 
	C255.604538,158.745712 227.254547,172.123489 205.481689,161.263321 
	C196.034760,156.551254 190.149460,149.341629 186.011261,139.710785 
z"/>
</svg>